<?xml version="1.0" encoding="utf-8"?>
<!-- Generator: Adobe Illustrator 19.1.0, SVG Export Plug-In . SVG Version: 6.00 Build 0)  -->
<svg version="1.1" id="레이어_1" xmlns="http://www.w3.org/2000/svg" xmlns:xlink="http://www.w3.org/1999/xlink" x="0px"
	 y="0px" viewBox="0 0 208.6 139.4" style="enable-background:new 0 0 208.6 139.4;" xml:space="preserve">
<style type="text/css">
	.st0{fill:#FFFFFF;stroke:#000000;stroke-width:3;stroke-linecap:round;stroke-linejoin:round;stroke-miterlimit:10;}
</style>
<g>
	<path class="st0" d="M90.2,41.4c-7.6-5.2-18.4-5.3-26.6-0.8c-9,4.9-14.9,14.6-16.8,24.7c-7-3.1-15.7-1-21.4,4.1
		c-5.8,5.1-8.9,12.6-9.9,20.2c-0.8,6.4,0,13.6,4.7,18.1c2.2,2,4.9,3.3,7.7,4.3c8.3,2.8,17.4,3.1,25.9,0.7
		c14.2,13.4,38.2,14.8,53.8,3.1c-0.2,1.7,1.4,2.9,2.9,3.7c14.6,7.6,34.2,3.5,44.6-9.2c7.5,4.1,17.3,2.7,24.3-2.2s11.3-13,13.2-21.4
		c1.1-4.9,1.3-10.2-0.9-14.7c-1.5-3-4-5.3-6.5-7.6c-6-5.5-13.4-11.4-21.3-9.7c1.7-1.6,2.1-4.2,2.2-6.5c0.3-11.7-7.3-22.8-17.7-28.2
		c-10.4-5.4-23-5.6-34.1-2C103,21.6,92.3,30.3,90.2,41.4"/>
</g>
</svg>
