<?xml version="1.0" encoding="utf-8"?>
<!-- Generator: Adobe Illustrator 19.1.0, SVG Export Plug-In . SVG Version: 6.00 Build 0)  -->
<svg version="1.1" id="레이어_1" xmlns="http://www.w3.org/2000/svg" xmlns:xlink="http://www.w3.org/1999/xlink" x="0px"
	 y="0px" viewBox="0 0 131.3 134.2" style="enable-background:new 0 0 131.3 134.2;" xml:space="preserve">
<style type="text/css">
	.st0{fill:#FFFFFF;}
</style>
<g>
	<g>
		<g>
			<path class="st0" d="M115.7,17.7c-26.3,4.9-53.2,5.2-79.9,4c-6.9-0.3-14.2-0.8-20.2-4.1"/>
			<path d="M60.7,23.8c-7.8,0-16.1-0.2-25-0.6c-7.5-0.3-14.7-0.9-20.9-4.3c-0.7-0.4-1-1.3-0.6-2c0.4-0.7,1.3-1,2-0.6
				c5.7,3.1,12.5,3.6,19.6,4c32.5,1.5,57.1,0.3,79.6-3.9c0.8-0.2,1.6,0.4,1.8,1.2c0.2,0.8-0.4,1.6-1.2,1.8
				C99.4,22.3,81.7,23.8,60.7,23.8z"/>
		</g>
		<g>
			<path class="st0" d="M15.5,17.6c6.1,31.2,6.3,64,0.4,95.2"/>
			<path d="M15.9,114.2c-0.1,0-0.2,0-0.3,0c-0.8-0.2-1.4-0.9-1.2-1.8c5.8-30.9,5.7-63.7-0.4-94.6c-0.2-0.8,0.4-1.6,1.2-1.8
				c0.8-0.2,1.6,0.4,1.8,1.2c6.1,31.3,6.3,64.4,0.4,95.7C17.3,113.7,16.7,114.2,15.9,114.2z"/>
		</g>
	</g>
</g>
</svg>
