<?xml version="1.0" encoding="utf-8"?>
<!-- Generator: Adobe Illustrator 19.1.0, SVG Export Plug-In . SVG Version: 6.00 Build 0)  -->
<svg version="1.1" id="레이어_1" xmlns="http://www.w3.org/2000/svg" xmlns:xlink="http://www.w3.org/1999/xlink" x="0px"
	 y="0px" viewBox="0 0 549.1 203.7" style="enable-background:new 0 0 549.1 203.7;" xml:space="preserve">
<style type="text/css">
	.st0{fill:#FFFFFF;}
</style>
<g>
	<g>
		<g>
			<g>
				<g>
					<polygon class="st0" points="361.6,85.8 361.8,190.4 328.7,190.4 328.5,76.5 358.1,84.8 					"/>
				</g>
				<g>
					<polygon points="358.1,78.4 358.1,84.8 328.5,76.5 328.5,75.9 327.5,76.2 300.5,82.6 300.5,76.6 316.2,67 343.7,67 					"/>
				</g>
				<g>
					<polygon class="st0" points="328.5,76.5 328.7,190.4 294.5,190.4 294.3,84.1 300.5,82.6 327.5,76.2 					"/>
				</g>
			</g>
			<g>
				<g>
					<path d="M294.5,191.9c-0.8,0-1.5-0.7-1.5-1.5l-0.2-106.3c0-0.8,0.7-1.5,1.5-1.5c0,0,0,0,0,0c0.8,0,1.5,0.7,1.5,1.5l0.2,106.3
						C296,191.2,295.3,191.9,294.5,191.9C294.5,191.9,294.5,191.9,294.5,191.9z"/>
				</g>
				<g>
					<path d="M328.5,77.5c-0.6,0-1-0.4-1-1v-0.5c0-0.6,0.4-1,1-1s1,0.4,1,1v0.5C329.5,77,329.1,77.5,328.5,77.5z"/>
				</g>
				<g>
					<path d="M328.7,191.9c-0.8,0-1.5-0.7-1.5-1.5L327,76.5c0-0.8,0.7-1.5,1.5-1.5c0,0,0,0,0,0c0.8,0,1.5,0.7,1.5,1.5l0.2,113.9
						C330.2,191.2,329.6,191.9,328.7,191.9C328.7,191.9,328.7,191.9,328.7,191.9z"/>
				</g>
				<g>
					<path d="M361.8,191.9c-0.8,0-1.5-0.7-1.5-1.5l-0.2-104.5c0-0.8,0.7-1.5,1.5-1.5c0.8,0,1.5,0.7,1.5,1.5l0.2,104.5
						C363.3,191.2,362.6,191.9,361.8,191.9C361.8,191.9,361.8,191.9,361.8,191.9z"/>
				</g>
				<g>
					<path d="M294.3,85.6c-0.7,0-1.3-0.5-1.5-1.2c-0.2-0.8,0.3-1.6,1.1-1.8l6.2-1.5c0.8-0.2,1.6,0.3,1.8,1.1
						c0.2,0.8-0.3,1.6-1.1,1.8l-6.2,1.5C294.5,85.6,294.4,85.6,294.3,85.6z"/>
				</g>
				<g>
					<path d="M300.5,84.1c-0.7,0-1.3-0.5-1.5-1.2c-0.2-0.8,0.3-1.6,1.1-1.8l27-6.4c0.8-0.2,1.6,0.3,1.8,1.1c0.2,0.8-0.3,1.6-1.1,1.8
						l-27,6.4C300.8,84.1,300.6,84.1,300.5,84.1z"/>
				</g>
				<g>
					<path d="M327.5,77.2c-0.5,0-0.9-0.3-1-0.8c-0.1-0.5,0.2-1.1,0.7-1.2l1-0.2c0.5-0.1,1.1,0.2,1.2,0.7c0.1,0.5-0.2,1.1-0.7,1.2
						l-1,0.2C327.7,77.2,327.6,77.2,327.5,77.2z"/>
				</g>
				<g>
					<path d="M361.6,87.3c-0.1,0-0.3,0-0.4-0.1l-3.5-1c-0.8-0.2-1.3-1.1-1-1.9c0.2-0.8,1.1-1.3,1.9-1l3.5,1c0.8,0.2,1.3,1.1,1,1.9
						C362.8,86.9,362.2,87.3,361.6,87.3z"/>
				</g>
				<g>
					<path d="M358.1,86.3c-0.1,0-0.3,0-0.4-0.1l-29.6-8.4c-0.8-0.2-1.3-1.1-1-1.9c0.2-0.8,1.1-1.3,1.9-1l29.6,8.4
						c0.8,0.2,1.3,1.1,1,1.9C359.4,85.9,358.8,86.3,358.1,86.3z"/>
				</g>
				<g>
					<path d="M328.5,77.5c-0.1,0-0.2,0-0.3,0l-1-0.3c-0.5-0.2-0.8-0.7-0.7-1.2c0.2-0.5,0.7-0.8,1.2-0.7l1,0.3
						c0.5,0.2,0.8,0.7,0.7,1.2C329.4,77.2,329,77.5,328.5,77.5z"/>
				</g>
				<g>
					<path d="M328.7,191.9h-34.3c-0.8,0-1.5-0.7-1.5-1.5s0.7-1.5,1.5-1.5h34.3c0.8,0,1.5,0.7,1.5,1.5S329.6,191.9,328.7,191.9z"/>
				</g>
				<g>
					<path d="M361.8,191.9h-33c-0.8,0-1.5-0.7-1.5-1.5s0.7-1.5,1.5-1.5h33c0.8,0,1.5,0.7,1.5,1.5S362.6,191.9,361.8,191.9z"/>
				</g>
				<g>
					<path d="M302.9,92.6c-0.5,0-0.9-0.4-1-0.8c-0.1-0.5,0.3-1.1,0.8-1.1l16-2.4c0.5-0.1,1.1,0.3,1.1,0.8c0.1,0.5-0.3,1.1-0.8,1.1
						l-16,2.4C303,92.6,302.9,92.6,302.9,92.6z"/>
				</g>
				<g>
					<path d="M302.9,100.9c-0.5,0-0.9-0.4-1-0.9c0-0.6,0.4-1,0.9-1.1l16-1.4c0.6-0.1,1,0.4,1.1,0.9c0,0.6-0.4,1-0.9,1.1L302.9,100.9
						C302.9,100.9,302.9,100.9,302.9,100.9z"/>
				</g>
				<g>
					<path d="M302.9,110.6c-0.5,0-0.9-0.4-1-0.9c-0.1-0.5,0.3-1.1,0.8-1.1l16-2.3c0.5-0.1,1.1,0.3,1.1,0.8c0.1,0.5-0.3,1.1-0.8,1.1
						l-16,2.3C302.9,110.6,302.9,110.6,302.9,110.6z"/>
				</g>
				<g>
					<path d="M303.2,119.7c-0.5,0-0.9-0.4-1-0.8c-0.1-0.5,0.3-1.1,0.8-1.1l16-2.4c0.5-0.1,1.1,0.3,1.1,0.8c0.1,0.5-0.3,1.1-0.8,1.1
						l-16,2.4C303.3,119.7,303.3,119.7,303.2,119.7z"/>
				</g>
				<g>
					<path d="M303.2,128c-0.5,0-0.9-0.4-1-0.9c0-0.6,0.4-1,0.9-1.1l16-1.4c0.6-0.1,1,0.4,1.1,0.9c0,0.6-0.4,1-0.9,1.1L303.2,128
						C303.3,128,303.2,128,303.2,128z"/>
				</g>
				<g>
					<path d="M303.2,137.8c-0.5,0-0.9-0.4-1-0.9c-0.1-0.5,0.3-1.1,0.8-1.1l16-2.3c0.5-0.1,1.1,0.3,1.1,0.8c0.1,0.5-0.3,1.1-0.8,1.1
						l-16,2.3C303.3,137.8,303.3,137.8,303.2,137.8z"/>
				</g>
				<g>
					<path d="M302.9,148.4c-0.5,0-0.9-0.4-1-0.8c-0.1-0.5,0.3-1.1,0.8-1.1l16-2.4c0.5-0.1,1.1,0.3,1.1,0.8c0.1,0.5-0.3,1.1-0.8,1.1
						l-16,2.4C303,148.4,302.9,148.4,302.9,148.4z"/>
				</g>
				<g>
					<path d="M302.9,156.7c-0.5,0-0.9-0.4-1-0.9c0-0.6,0.4-1,0.9-1.1l16-1.4c0.6-0.1,1,0.4,1.1,0.9c0,0.6-0.4,1-0.9,1.1L302.9,156.7
						C302.9,156.7,302.9,156.7,302.9,156.7z"/>
				</g>
				<g>
					<path d="M353,91.9c-0.1,0-0.1,0-0.2,0l-16-2.4c-0.5-0.1-0.9-0.6-0.8-1.1c0.1-0.5,0.6-0.9,1.1-0.8l16,2.4
						c0.5,0.1,0.9,0.6,0.8,1.1C353.9,91.5,353.5,91.9,353,91.9z"/>
				</g>
				<g>
					<path d="M353,100.2C353,100.2,352.9,100.2,353,100.2l-16.1-1.4c-0.5,0-1-0.5-0.9-1.1c0-0.5,0.5-1,1.1-0.9l16,1.4
						c0.5,0,1,0.5,0.9,1.1C353.9,99.8,353.5,100.2,353,100.2z"/>
				</g>
				<g>
					<path d="M353,109.9c0,0-0.1,0-0.1,0l-16-2.3c-0.5-0.1-0.9-0.6-0.8-1.1c0.1-0.5,0.6-0.9,1.1-0.8l16,2.3c0.5,0.1,0.9,0.6,0.8,1.1
						C353.9,109.6,353.5,109.9,353,109.9z"/>
				</g>
				<g>
					<path d="M352.6,119c-0.1,0-0.1,0-0.2,0l-16-2.4c-0.5-0.1-0.9-0.6-0.8-1.1c0.1-0.5,0.6-0.9,1.1-0.8l16,2.4
						c0.5,0.1,0.9,0.6,0.8,1.1C353.5,118.6,353.1,119,352.6,119z"/>
				</g>
				<g>
					<path d="M352.6,127.3C352.6,127.3,352.6,127.3,352.6,127.3l-16.1-1.4c-0.5,0-1-0.5-0.9-1.1c0-0.5,0.5-1,1.1-0.9l16,1.4
						c0.5,0,1,0.5,0.9,1.1C353.6,126.9,353.1,127.3,352.6,127.3z"/>
				</g>
				<g>
					<path d="M352.6,137c0,0-0.1,0-0.1,0l-16-2.3c-0.5-0.1-0.9-0.6-0.8-1.1c0.1-0.5,0.6-0.9,1.1-0.8l16,2.3c0.5,0.1,0.9,0.6,0.8,1.1
						C353.5,136.7,353.1,137,352.6,137z"/>
				</g>
				<g>
					<path d="M353,147.7c-0.1,0-0.1,0-0.2,0l-16-2.4c-0.5-0.1-0.9-0.6-0.8-1.1c0.1-0.5,0.6-0.9,1.1-0.8l16,2.4
						c0.5,0.1,0.9,0.6,0.8,1.1C353.9,147.3,353.5,147.7,353,147.7z"/>
				</g>
				<g>
					<path d="M353,156C353,156,352.9,156,353,156l-16.1-1.4c-0.5,0-1-0.5-0.9-1.1c0-0.5,0.5-1,1.1-0.9l16,1.4c0.5,0,1,0.5,0.9,1.1
						C353.9,155.6,353.5,156,353,156z"/>
				</g>
				<g>
					<path d="M300.5,84.1c-0.8,0-1.5-0.7-1.5-1.5v-6c0-0.8,0.7-1.5,1.5-1.5s1.5,0.7,1.5,1.5v6C302,83.4,301.4,84.1,300.5,84.1z"/>
				</g>
				<g>
					<path d="M300.5,78.1c-0.5,0-1-0.3-1.3-0.7c-0.4-0.7-0.2-1.6,0.5-2.1l15.7-9.6c0.7-0.4,1.6-0.2,2.1,0.5c0.4,0.7,0.2,1.6-0.5,2.1
						l-15.7,9.6C301.1,78.1,300.8,78.1,300.5,78.1z"/>
				</g>
				<g>
					<path d="M343.7,68.5h-27.5c-0.8,0-1.5-0.7-1.5-1.5s0.7-1.5,1.5-1.5h27.5c0.8,0,1.5,0.7,1.5,1.5S344.6,68.5,343.7,68.5z"/>
				</g>
				<g>
					<path d="M358.1,79.9c-0.3,0-0.7-0.1-0.9-0.3l-14.4-11.4c-0.6-0.5-0.8-1.5-0.2-2.1c0.5-0.6,1.5-0.8,2.1-0.2L359,77.3
						c0.6,0.5,0.8,1.5,0.2,2.1C359,79.8,358.5,79.9,358.1,79.9z"/>
				</g>
				<g>
					<path d="M358.1,86.3c-0.8,0-1.5-0.7-1.5-1.5v-6.4c0-0.8,0.7-1.5,1.5-1.5s1.5,0.7,1.5,1.5v6.4C359.6,85.7,358.9,86.3,358.1,86.3
						z"/>
				</g>
			</g>
		</g>
	</g>
</g>
<g>
	<g>
		<g>
			<g>
				<g>
					<polygon points="97.9,77.8 97.9,84.2 68.3,75.8 68.3,75.3 67.3,75.5 40.3,81.9 40.3,76 56,66.4 83.5,66.4 					"/>
				</g>
			</g>
			<g>
				<g>
					<path d="M34.2,191.2c-0.8,0-1.5-0.7-1.5-1.5L32.6,83.4c0-0.8,0.7-1.5,1.5-1.5c0.8,0,1.5,0.7,1.5,1.5l0.2,106.3
						C35.7,190.5,35.1,191.2,34.2,191.2C34.2,191.2,34.2,191.2,34.2,191.2z"/>
				</g>
				<g>
					<path d="M68.3,76.8c-0.6,0-1-0.4-1-1v-0.5c0-0.6,0.4-1,1-1s1,0.4,1,1v0.5C69.3,76.4,68.9,76.8,68.3,76.8z"/>
				</g>
				<g>
					<path d="M68.5,191.2c-0.8,0-1.5-0.7-1.5-1.5L66.8,75.8c0-0.8,0.7-1.5,1.5-1.5c0,0,0,0,0,0c0.8,0,1.5,0.7,1.5,1.5L70,189.7
						C70,190.5,69.3,191.2,68.5,191.2C68.5,191.2,68.5,191.2,68.5,191.2z"/>
				</g>
				<g>
					<path d="M101.5,191.2c-0.8,0-1.5-0.7-1.5-1.5L99.9,85.2c0-0.8,0.7-1.5,1.5-1.5c0,0,0,0,0,0c0.8,0,1.5,0.7,1.5,1.5l0.2,104.5
						C103,190.5,102.4,191.2,101.5,191.2C101.5,191.2,101.5,191.2,101.5,191.2z"/>
				</g>
				<g>
					<path d="M34,84.9c-0.7,0-1.3-0.5-1.5-1.2c-0.2-0.8,0.3-1.6,1.1-1.8l6.2-1.5c0.8-0.2,1.6,0.3,1.8,1.1s-0.3,1.6-1.1,1.8l-6.2,1.5
						C34.3,84.9,34.2,84.9,34,84.9z"/>
				</g>
				<g>
					<path d="M40.3,83.4c-0.7,0-1.3-0.5-1.5-1.2c-0.2-0.8,0.3-1.6,1.1-1.8l27-6.4c0.8-0.2,1.6,0.3,1.8,1.1c0.2,0.8-0.3,1.6-1.1,1.8
						l-27,6.4C40.5,83.4,40.4,83.4,40.3,83.4z"/>
				</g>
				<g>
					<path d="M67.3,76.5c-0.5,0-0.9-0.3-1-0.8c-0.1-0.5,0.2-1.1,0.7-1.2l1-0.2c0.5-0.1,1.1,0.2,1.2,0.7c0.1,0.5-0.2,1.1-0.7,1.2
						l-1,0.2C67.4,76.5,67.4,76.5,67.3,76.5z"/>
				</g>
				<g>
					<path d="M101.4,86.7c-0.1,0-0.3,0-0.4-0.1l-3.5-1c-0.8-0.2-1.3-1.1-1-1.9c0.2-0.8,1.1-1.3,1.9-1l3.5,1c0.8,0.2,1.3,1.1,1,1.9
						C102.6,86.2,102,86.7,101.4,86.7z"/>
				</g>
				<g>
					<path d="M97.9,85.7c-0.1,0-0.3,0-0.4-0.1l-29.6-8.4c-0.8-0.2-1.3-1.1-1-1.9c0.2-0.8,1.1-1.3,1.9-1l29.6,8.4
						c0.8,0.2,1.3,1.1,1,1.9C99.1,85.2,98.5,85.7,97.9,85.7z"/>
				</g>
				<g>
					<path d="M68.3,76.8c-0.1,0-0.2,0-0.3,0l-1-0.3c-0.5-0.2-0.8-0.7-0.7-1.2c0.2-0.5,0.7-0.8,1.2-0.7l1,0.3
						c0.5,0.2,0.8,0.7,0.7,1.2C69.1,76.5,68.7,76.8,68.3,76.8z"/>
				</g>
				<g>
					<path d="M68.5,191.2H34.2c-0.8,0-1.5-0.7-1.5-1.5s0.7-1.5,1.5-1.5h34.3c0.8,0,1.5,0.7,1.5,1.5S69.3,191.2,68.5,191.2z"/>
				</g>
				<g>
					<path d="M101.5,191.2h-33c-0.8,0-1.5-0.7-1.5-1.5s0.7-1.5,1.5-1.5h33c0.8,0,1.5,0.7,1.5,1.5S102.3,191.2,101.5,191.2z"/>
				</g>
				<g>
					<path d="M42.6,91.9c-0.5,0-0.9-0.4-1-0.8c-0.1-0.5,0.3-1.1,0.8-1.1l16-2.4c0.5-0.1,1.1,0.3,1.1,0.8c0.1,0.5-0.3,1.1-0.8,1.1
						l-16,2.4C42.7,91.9,42.7,91.9,42.6,91.9z"/>
				</g>
				<g>
					<path d="M42.6,100.3c-0.5,0-0.9-0.4-1-0.9c0-0.6,0.4-1,0.9-1.1l16-1.4c0.6-0.1,1,0.4,1.1,0.9c0,0.6-0.4,1-0.9,1.1L42.6,100.3
						C42.7,100.3,42.6,100.3,42.6,100.3z"/>
				</g>
				<g>
					<path d="M42.6,110c-0.5,0-0.9-0.4-1-0.9c-0.1-0.5,0.3-1.1,0.8-1.1l16-2.3c0.5-0.1,1.1,0.3,1.1,0.8c0.1,0.5-0.3,1.1-0.8,1.1
						l-16,2.3C42.7,110,42.7,110,42.6,110z"/>
				</g>
				<g>
					<path d="M43,119c-0.5,0-0.9-0.4-1-0.8c-0.1-0.5,0.3-1.1,0.8-1.1l16-2.4c0.5-0.1,1.1,0.3,1.1,0.8c0.1,0.5-0.3,1.1-0.8,1.1
						l-16,2.4C43.1,119,43,119,43,119z"/>
				</g>
				<g>
					<path d="M43,127.4c-0.5,0-0.9-0.4-1-0.9c0-0.6,0.4-1,0.9-1.1l16-1.4c0.6-0.1,1,0.4,1.1,0.9c0,0.6-0.4,1-0.9,1.1L43,127.4
						C43,127.4,43,127.4,43,127.4z"/>
				</g>
				<g>
					<path d="M43,137.1c-0.5,0-0.9-0.4-1-0.9c-0.1-0.5,0.3-1.1,0.8-1.1l16-2.3c0.5-0.1,1.1,0.3,1.1,0.8c0.1,0.5-0.3,1.1-0.8,1.1
						l-16,2.3C43.1,137.1,43,137.1,43,137.1z"/>
				</g>
				<g>
					<path d="M42.6,147.7c-0.5,0-0.9-0.4-1-0.8c-0.1-0.5,0.3-1.1,0.8-1.1l16-2.4c0.5-0.1,1.1,0.3,1.1,0.8c0.1,0.5-0.3,1.1-0.8,1.1
						l-16,2.4C42.7,147.7,42.7,147.7,42.6,147.7z"/>
				</g>
				<g>
					<path d="M42.6,156.1c-0.5,0-0.9-0.4-1-0.9c0-0.6,0.4-1,0.9-1.1l16-1.4c0.6-0.1,1,0.4,1.1,0.9c0,0.6-0.4,1-0.9,1.1L42.6,156.1
						C42.7,156.1,42.6,156.1,42.6,156.1z"/>
				</g>
				<g>
					<path d="M92.8,91.2c-0.1,0-0.1,0-0.2,0l-16-2.4c-0.5-0.1-0.9-0.6-0.8-1.1c0.1-0.5,0.6-0.9,1.1-0.8l16,2.4
						c0.5,0.1,0.9,0.6,0.8,1.1C93.7,90.9,93.2,91.2,92.8,91.2z"/>
				</g>
				<g>
					<path d="M92.8,99.5C92.7,99.5,92.7,99.5,92.8,99.5l-16.1-1.4c-0.5,0-1-0.5-0.9-1.1c0-0.5,0.5-1,1.1-0.9l16,1.4
						c0.5,0,1,0.5,0.9,1.1C93.7,99.1,93.3,99.5,92.8,99.5z"/>
				</g>
				<g>
					<path d="M92.8,109.3c0,0-0.1,0-0.1,0l-16-2.3c-0.5-0.1-0.9-0.6-0.8-1.1c0.1-0.5,0.6-0.9,1.1-0.8l16,2.3
						c0.5,0.1,0.9,0.6,0.8,1.1C93.7,108.9,93.2,109.3,92.8,109.3z"/>
				</g>
				<g>
					<path d="M92.4,118.3c-0.1,0-0.1,0-0.2,0l-16-2.4c-0.5-0.1-0.9-0.6-0.8-1.1c0.1-0.5,0.6-0.9,1.1-0.8l16,2.4
						c0.5,0.1,0.9,0.6,0.8,1.1C93.3,118,92.9,118.3,92.4,118.3z"/>
				</g>
				<g>
					<path d="M92.4,126.7C92.4,126.7,92.3,126.7,92.4,126.7l-16.1-1.4c-0.5,0-1-0.5-0.9-1.1c0-0.5,0.5-1,1.1-0.9l16,1.4
						c0.5,0,1,0.5,0.9,1.1C93.3,126.3,92.9,126.7,92.4,126.7z"/>
				</g>
				<g>
					<path d="M92.4,136.4c0,0-0.1,0-0.1,0l-16-2.3c-0.5-0.1-0.9-0.6-0.8-1.1c0.1-0.5,0.6-0.9,1.1-0.8l16,2.3
						c0.5,0.1,0.9,0.6,0.8,1.1C93.3,136,92.9,136.4,92.4,136.4z"/>
				</g>
				<g>
					<path d="M92.8,147c-0.1,0-0.1,0-0.2,0l-16-2.4c-0.5-0.1-0.9-0.6-0.8-1.1c0.1-0.5,0.6-0.9,1.1-0.8l16,2.4
						c0.5,0.1,0.9,0.6,0.8,1.1C93.7,146.7,93.2,147,92.8,147z"/>
				</g>
				<g>
					<path d="M92.8,155.4C92.7,155.4,92.7,155.4,92.8,155.4L76.7,154c-0.5,0-1-0.5-0.9-1.1c0-0.5,0.5-1,1.1-0.9l16,1.4
						c0.5,0,1,0.5,0.9,1.1C93.7,155,93.3,155.4,92.8,155.4z"/>
				</g>
				<g>
					<path d="M40.3,83.4c-0.8,0-1.5-0.7-1.5-1.5v-6c0-0.8,0.7-1.5,1.5-1.5s1.5,0.7,1.5,1.5v6C41.8,82.8,41.1,83.4,40.3,83.4z"/>
				</g>
				<g>
					<path d="M40.3,77.5c-0.5,0-1-0.3-1.3-0.7c-0.4-0.7-0.2-1.6,0.5-2.1l15.7-9.6c0.7-0.4,1.6-0.2,2.1,0.5c0.4,0.7,0.2,1.6-0.5,2.1
						l-15.7,9.6C40.8,77.4,40.6,77.5,40.3,77.5z"/>
				</g>
				<g>
					<path d="M83.5,67.9H56c-0.8,0-1.5-0.7-1.5-1.5s0.7-1.5,1.5-1.5h27.5c0.8,0,1.5,0.7,1.5,1.5S84.3,67.9,83.5,67.9z"/>
				</g>
				<g>
					<path d="M97.9,79.3c-0.3,0-0.7-0.1-0.9-0.3L82.6,67.5c-0.6-0.5-0.8-1.5-0.2-2.1c0.5-0.6,1.5-0.8,2.1-0.2l14.4,11.4
						c0.6,0.5,0.8,1.5,0.2,2.1C98.7,79.1,98.3,79.3,97.9,79.3z"/>
				</g>
				<g>
					<path d="M97.9,85.7c-0.8,0-1.5-0.7-1.5-1.5v-6.4c0-0.8,0.7-1.5,1.5-1.5s1.5,0.7,1.5,1.5v6.4C99.4,85,98.7,85.7,97.9,85.7z"/>
				</g>
			</g>
		</g>
	</g>
</g>
<g>
	<g>
		<g>
			<g>
				<g>
					<polygon class="st0" points="217,111 217,189.7 190.4,189.7 190.4,100.1 190.4,100.1 					"/>
				</g>
				<g>
					<polygon class="st0" points="190.4,100.1 190.4,189.7 165.2,189.7 165.2,108.1 					"/>
				</g>
			</g>
			<g>
				<g>
					<path d="M165.2,191.2c-0.8,0-1.5-0.7-1.5-1.5v-81.6c0-0.8,0.7-1.5,1.5-1.5s1.5,0.7,1.5,1.5v81.6
						C166.7,190.5,166,191.2,165.2,191.2z"/>
				</g>
				<g>
					<path d="M165.2,109.6c-0.6,0-1.2-0.4-1.4-1c-0.2-0.8,0.2-1.6,1-1.9l25.2-8c0.8-0.2,1.6,0.2,1.9,1c0.2,0.8-0.2,1.6-1,1.9
						l-25.2,8C165.5,109.6,165.3,109.6,165.2,109.6z"/>
				</g>
				<g>
					<path d="M190.4,101.6c-0.6,0-1.2-0.4-1.4-1c-0.3-0.8,0.1-1.6,0.9-1.9l0.1,0c0.8-0.3,1.6,0.2,1.9,0.9c0.3,0.8-0.2,1.6-0.9,1.9
						C190.8,101.6,190.6,101.6,190.4,101.6z"/>
				</g>
				<g>
					<path d="M190.4,101.6c-0.8,0-1.5-0.7-1.5-1.5s0.7-1.5,1.5-1.5s1.5,0.7,1.5,1.5v0C191.9,101,191.2,101.6,190.4,101.6z"/>
				</g>
				<g>
					<path d="M190.4,191.2c-0.8,0-1.5-0.7-1.5-1.5v-89.5c0-0.8,0.7-1.5,1.5-1.5s1.5,0.7,1.5,1.5v89.5
						C191.9,190.5,191.2,191.2,190.4,191.2z"/>
				</g>
				<g>
					<path d="M217,112.5c-0.2,0-0.4,0-0.6-0.1l-26.6-10.9c-0.8-0.3-1.1-1.2-0.8-2c0.3-0.8,1.2-1.1,2-0.8l26.6,10.9
						c0.8,0.3,1.1,1.2,0.8,2C218.2,112.2,217.6,112.5,217,112.5z"/>
				</g>
				<g>
					<path d="M190.4,101.6c-0.2,0-0.3,0-0.5-0.1l-0.1,0c-0.8-0.3-1.2-1.1-0.9-1.9c0.3-0.8,1.1-1.2,1.9-0.9c0.8,0.3,1.2,1.1,1,1.9
						C191.6,101.2,191.1,101.6,190.4,101.6z"/>
				</g>
				<g>
					<path d="M217,191.2c-0.8,0-1.5-0.7-1.5-1.5V111c0-0.8,0.7-1.5,1.5-1.5s1.5,0.7,1.5,1.5v78.7C218.5,190.5,217.8,191.2,217,191.2
						z"/>
				</g>
				<g>
					<path d="M190.4,191.2h-25.2c-0.8,0-1.5-0.7-1.5-1.5s0.7-1.5,1.5-1.5h25.2c0.8,0,1.5,0.7,1.5,1.5S191.2,191.2,190.4,191.2z"/>
				</g>
				<g>
					<path d="M217,191.2h-26.6c-0.8,0-1.5-0.7-1.5-1.5s0.7-1.5,1.5-1.5H217c0.8,0,1.5,0.7,1.5,1.5S217.8,191.2,217,191.2z"/>
				</g>
			</g>
		</g>
	</g>
</g>
<g>
	<g>
		<g>
			<g>
				<g>
					<rect x="280.4" y="168.8" class="st0" width="26.6" height="20.9"/>
				</g>
				<g>
					<polygon class="st0" points="307,147.3 307,168.8 280.4,168.8 280.4,146 					"/>
				</g>
				<g>
					<polygon class="st0" points="307,128 307,147.3 280.4,146 280.4,124.1 					"/>
				</g>
				<g>
					<polygon class="st0" points="307,111 307,128 280.4,124.1 280.4,100.1 280.4,100.1 					"/>
				</g>
				<g>
					<polygon class="st0" points="280.4,168.8 280.4,189.7 255.2,189.7 255.2,108.1 280.4,100.1 280.4,124.1 280.4,146 					"/>
				</g>
			</g>
			<g>
				<g>
					<path d="M255.2,191.2c-0.8,0-1.5-0.7-1.5-1.5v-81.6c0-0.8,0.7-1.5,1.5-1.5s1.5,0.7,1.5,1.5v81.6
						C256.7,190.5,256,191.2,255.2,191.2z"/>
				</g>
				<g>
					<path d="M255.2,109.6c-0.6,0-1.2-0.4-1.4-1c-0.2-0.8,0.2-1.6,1-1.9l25.2-8c0.8-0.2,1.6,0.2,1.9,1c0.2,0.8-0.2,1.6-1,1.9
						l-25.2,8C255.5,109.6,255.3,109.6,255.2,109.6z"/>
				</g>
				<g>
					<path d="M280.4,101.6c-0.6,0-1.2-0.4-1.4-1c-0.3-0.8,0.1-1.6,0.9-1.9l0.1,0c0.8-0.3,1.6,0.2,1.9,0.9c0.3,0.8-0.2,1.6-0.9,1.9
						C280.8,101.6,280.6,101.6,280.4,101.6z"/>
				</g>
				<g>
					<path d="M280.4,101.6c-0.8,0-1.5-0.6-1.5-1.5v-0.1c0-0.8,0.7-1.5,1.5-1.5s1.5,0.7,1.5,1.5S281.2,101.6,280.4,101.6z"/>
				</g>
				<g>
					<path d="M280.4,147.5c-0.8,0-1.5-0.7-1.5-1.5v-21.9c0-0.8,0.7-1.5,1.5-1.5s1.5,0.7,1.5,1.5V146
						C281.9,146.8,281.2,147.5,280.4,147.5z"/>
				</g>
				<g>
					<path d="M280.4,170.3c-0.8,0-1.5-0.7-1.5-1.5V146c0-0.8,0.7-1.5,1.5-1.5s1.5,0.7,1.5,1.5v22.8
						C281.9,169.6,281.2,170.3,280.4,170.3z"/>
				</g>
				<g>
					<path d="M280.4,125.6c-0.8,0-1.5-0.7-1.5-1.5v-24c0-0.8,0.7-1.5,1.5-1.5s1.5,0.7,1.5,1.5v24
						C281.9,124.9,281.2,125.6,280.4,125.6z"/>
				</g>
				<g>
					<path d="M280.4,191.2c-0.8,0-1.5-0.7-1.5-1.5v-20.9c0-0.8,0.7-1.5,1.5-1.5s1.5,0.7,1.5,1.5v20.9
						C281.9,190.5,281.2,191.2,280.4,191.2z"/>
				</g>
				<g>
					<path d="M307,112.5c-0.2,0-0.4,0-0.6-0.1l-26.6-10.9c-0.8-0.3-1.1-1.2-0.8-2c0.3-0.8,1.2-1.1,2-0.8l26.6,10.9
						c0.8,0.3,1.1,1.2,0.8,2C308.2,112.2,307.6,112.5,307,112.5z"/>
				</g>
				<g>
					<path d="M280.4,101.6c-0.2,0-0.4-0.1-0.7-0.2l-0.1,0c-0.7-0.4-1-1.3-0.7-2c0.4-0.7,1.3-1,2-0.7c0.7,0.4,1.1,1.3,0.7,2
						C281.5,101.3,281,101.6,280.4,101.6z"/>
				</g>
				<g>
					<path d="M307,191.2c-0.8,0-1.5-0.7-1.5-1.5v-20.9c0-0.8,0.7-1.5,1.5-1.5s1.5,0.7,1.5,1.5v20.9
						C308.5,190.5,307.9,191.2,307,191.2z"/>
				</g>
				<g>
					<path d="M307,148.8c-0.8,0-1.5-0.7-1.5-1.5V128c0-0.8,0.7-1.5,1.5-1.5s1.5,0.7,1.5,1.5v19.2C308.5,148.1,307.9,148.8,307,148.8
						z"/>
				</g>
				<g>
					<path d="M307,129.5c-0.8,0-1.5-0.7-1.5-1.5v-17c0-0.8,0.7-1.5,1.5-1.5s1.5,0.7,1.5,1.5v17C308.5,128.9,307.9,129.5,307,129.5z"
						/>
				</g>
				<g>
					<path d="M307,170.3c-0.8,0-1.5-0.7-1.5-1.5v-21.5c0-0.8,0.7-1.5,1.5-1.5s1.5,0.7,1.5,1.5v21.5
						C308.5,169.6,307.9,170.3,307,170.3z"/>
				</g>
				<g>
					<path d="M280.4,191.2h-25.2c-0.8,0-1.5-0.7-1.5-1.5s0.7-1.5,1.5-1.5h25.2c0.8,0,1.5,0.7,1.5,1.5S281.2,191.2,280.4,191.2z"/>
				</g>
				<g>
					<path d="M307,191.2h-26.6c-0.8,0-1.5-0.7-1.5-1.5s0.7-1.5,1.5-1.5H307c0.8,0,1.5,0.7,1.5,1.5S307.9,191.2,307,191.2z"/>
				</g>
				<g>
					<path d="M307,129c0,0-0.1,0-0.1,0l-26.6-3.9c-0.5-0.1-0.9-0.6-0.8-1.1c0.1-0.5,0.6-0.9,1.1-0.8l26.6,3.9
						c0.5,0.1,0.9,0.6,0.8,1.1C307.9,128.7,307.5,129,307,129z"/>
				</g>
				<g>
					<path d="M307,148.3C307,148.3,307,148.3,307,148.3l-26.7-1.3c-0.6,0-1-0.5-1-1c0-0.6,0.5-1,1-1l26.6,1.3c0.6,0,1,0.5,1,1
						C308,147.8,307.6,148.3,307,148.3z"/>
				</g>
				<g>
					<path d="M307,169.8h-26.6c-0.6,0-1-0.4-1-1s0.4-1,1-1H307c0.6,0,1,0.4,1,1S307.6,169.8,307,169.8z"/>
				</g>
			</g>
		</g>
	</g>
</g>
<g>
	<g>
		<g>
			<g>
				<g>
					<polygon class="st0" points="240.4,66.2 240.4,189.7 224.1,189.7 224.1,61.3 236.7,65.1 					"/>
				</g>
				<g>
					<polygon class="st0" points="236.7,44 236.7,65.1 224.1,61.3 222.2,61.7 222.2,60.7 222.2,39.2 232.3,42.6 					"/>
				</g>
				<g>
					<polygon class="st0" points="222.5,20.6 232.3,42.6 222.2,39.2 222.2,39 221.9,39.1 214.7,41 					"/>
				</g>
				<g>
					<polygon class="st0" points="224.1,61.3 224.1,189.7 201.7,189.7 201.7,66.4 207,65.2 222.2,61.7 					"/>
				</g>
				<g>
					<polygon class="st0" points="222.2,60.7 222.2,61.7 207,65.2 207,43.1 214.7,41 221.9,39.1 222.2,39.2 					"/>
				</g>
			</g>
			<g>
				<g>
					<path d="M201.7,191.2c-0.8,0-1.5-0.7-1.5-1.5V66.4c0-0.8,0.7-1.5,1.5-1.5s1.5,0.7,1.5,1.5v123.3
						C203.2,190.5,202.5,191.2,201.7,191.2z"/>
				</g>
				<g>
					<path d="M224.1,191.2c-0.8,0-1.5-0.7-1.5-1.5V61.3c0-0.8,0.7-1.5,1.5-1.5s1.5,0.7,1.5,1.5v128.4
						C225.6,190.5,224.9,191.2,224.1,191.2z"/>
				</g>
				<g>
					<path d="M240.4,191.2c-0.8,0-1.5-0.7-1.5-1.5V66.2c0-0.8,0.7-1.5,1.5-1.5s1.5,0.7,1.5,1.5v123.5
						C241.9,190.5,241.2,191.2,240.4,191.2z"/>
				</g>
				<g>
					<path d="M222.2,62.2c-0.8,0-1.5-0.7-1.5-1.5V39.2c0-0.8,0.7-1.5,1.5-1.5s1.5,0.7,1.5,1.5v21.5C223.7,61.5,223,62.2,222.2,62.2z
						"/>
				</g>
				<g>
					<path d="M222.2,40.7c-0.8,0-1.5-0.7-1.5-1.5V39c0-0.8,0.7-1.5,1.5-1.5s1.5,0.7,1.5,1.5v0.2C223.7,40,223,40.7,222.2,40.7z"/>
				</g>
				<g>
					<path d="M222.2,63.2c-0.8,0-1.5-0.7-1.5-1.5v-1c0-0.8,0.7-1.5,1.5-1.5s1.5,0.7,1.5,1.5v1C223.7,62.6,223,63.2,222.2,63.2z"/>
				</g>
				<g>
					<path d="M207,66.7c-0.8,0-1.5-0.7-1.5-1.5V43.1c0-0.8,0.7-1.5,1.5-1.5s1.5,0.7,1.5,1.5v22.1C208.5,66,207.8,66.7,207,66.7z"/>
				</g>
				<g>
					<path d="M236.7,66.6c-0.8,0-1.5-0.7-1.5-1.5V44c0-0.8,0.7-1.5,1.5-1.5s1.5,0.7,1.5,1.5v21C238.2,65.9,237.5,66.6,236.7,66.6z"
						/>
				</g>
				<g>
					<path d="M207,66.7c-0.7,0-1.3-0.5-1.5-1.2c-0.2-0.8,0.3-1.6,1.1-1.8l15.2-3.5c0.8-0.2,1.6,0.3,1.8,1.1c0.2,0.8-0.3,1.6-1.1,1.8
						l-15.2,3.5C207.2,66.7,207.1,66.7,207,66.7z"/>
				</g>
				<g>
					<path d="M222.2,63.2c-0.7,0-1.3-0.5-1.5-1.2c-0.2-0.8,0.3-1.6,1.1-1.8l1.9-0.4c0.8-0.2,1.6,0.3,1.8,1.1s-0.3,1.6-1.1,1.8
						l-1.9,0.4C222.4,63.2,222.3,63.2,222.2,63.2z"/>
				</g>
				<g>
					<path d="M201.7,67.9c-0.7,0-1.3-0.5-1.5-1.2c-0.2-0.8,0.3-1.6,1.1-1.8l5.3-1.2c0.8-0.2,1.6,0.3,1.8,1.1
						c0.2,0.8-0.3,1.6-1.1,1.8l-5.3,1.2C201.9,67.9,201.8,67.9,201.7,67.9z"/>
				</g>
				<g>
					<path d="M240.4,67.7c-0.1,0-0.3,0-0.4-0.1l-3.8-1.1c-0.8-0.2-1.2-1.1-1-1.9c0.2-0.8,1.1-1.2,1.9-1l3.8,1.1
						c0.8,0.2,1.2,1.1,1,1.9C241.7,67.3,241.1,67.7,240.4,67.7z"/>
				</g>
				<g>
					<path d="M236.7,66.6c-0.1,0-0.3,0-0.4-0.1l-12.6-3.8c-0.8-0.2-1.2-1.1-1-1.9c0.2-0.8,1.1-1.2,1.9-1l12.6,3.8
						c0.8,0.2,1.2,1.1,1,1.9C237.9,66.1,237.3,66.6,236.7,66.6z"/>
				</g>
				<g>
					<path d="M214.7,42.5c-0.7,0-1.3-0.4-1.4-1.1c-0.2-0.8,0.3-1.6,1.1-1.8l7.3-1.9c0.8-0.2,1.6,0.3,1.8,1.1
						c0.2,0.8-0.3,1.6-1.1,1.8l-7.3,1.9C214.9,42.5,214.8,42.5,214.7,42.5z"/>
				</g>
				<g>
					<path d="M221.9,40.6c-0.7,0-1.3-0.4-1.4-1.1c-0.2-0.8,0.3-1.6,1.1-1.8l0.3-0.1c0.8-0.2,1.6,0.3,1.8,1.1
						c0.2,0.8-0.3,1.6-1.1,1.8l-0.3,0.1C222.2,40.6,222,40.6,221.9,40.6z"/>
				</g>
				<g>
					<path d="M207,44.6c-0.7,0-1.3-0.4-1.4-1.1c-0.2-0.8,0.3-1.6,1.1-1.8l7.6-2c0.8-0.2,1.6,0.3,1.8,1.1c0.2,0.8-0.3,1.6-1.1,1.8
						l-7.6,2C207.3,44.6,207.1,44.6,207,44.6z"/>
				</g>
				<g>
					<path d="M222.2,40.7c-0.2,0-0.3,0-0.5-0.1l-0.3-0.1c-0.8-0.3-1.2-1.1-0.9-1.9c0.3-0.8,1.1-1.2,1.9-0.9l0.3,0.1
						c0.8,0.3,1.2,1.1,0.9,1.9C223.4,40.3,222.8,40.7,222.2,40.7z"/>
				</g>
				<g>
					<path d="M236.7,45.5c-0.2,0-0.3,0-0.5-0.1l-4.4-1.5c-0.8-0.3-1.2-1.1-0.9-1.9c0.3-0.8,1.1-1.2,1.9-0.9l4.4,1.5
						c0.8,0.3,1.2,1.1,0.9,1.9C237.9,45.1,237.3,45.5,236.7,45.5z"/>
				</g>
				<g>
					<path d="M232.3,44.1c-0.2,0-0.3,0-0.5-0.1l-10.1-3.4c-0.8-0.3-1.2-1.1-0.9-1.9s1.1-1.2,1.9-0.9l10.1,3.4
						c0.8,0.3,1.2,1.1,0.9,1.9C233.5,43.7,232.9,44.1,232.3,44.1z"/>
				</g>
				<g>
					<path d="M232.3,44.1c-0.6,0-1.1-0.3-1.4-0.9l-9.8-22c-0.3-0.8,0-1.6,0.8-2c0.8-0.3,1.6,0,2,0.8l9.8,22c0.3,0.8,0,1.6-0.8,2
						C232.7,44,232.5,44.1,232.3,44.1z"/>
				</g>
				<g>
					<path d="M214.7,42.5c-0.2,0-0.4,0-0.5-0.1c-0.8-0.3-1.2-1.2-0.9-1.9l7.8-20.5c0.3-0.8,1.2-1.2,1.9-0.9c0.8,0.3,1.2,1.2,0.9,1.9
						l-7.8,20.5C215.8,42.2,215.3,42.5,214.7,42.5z"/>
				</g>
				<g>
					<path d="M224.1,191.2h-22.4c-0.8,0-1.5-0.7-1.5-1.5s0.7-1.5,1.5-1.5h22.4c0.8,0,1.5,0.7,1.5,1.5S224.9,191.2,224.1,191.2z"/>
				</g>
				<g>
					<path d="M240.4,191.2h-16.3c-0.8,0-1.5-0.7-1.5-1.5s0.7-1.5,1.5-1.5h16.3c0.8,0,1.5,0.7,1.5,1.5S241.2,191.2,240.4,191.2z"/>
				</g>
			</g>
		</g>
	</g>
</g>
<g>
	<g>
		<g>
			<g>
				<g>
					<polygon class="st0" points="379,129.4 379,189.7 371.3,189.7 371.3,122 					"/>
				</g>
				<g>
					<polygon class="st0" points="371.3,122 371.3,189.7 353.2,189.7 353.2,121.1 370.3,121.1 					"/>
				</g>
			</g>
			<g>
				<g>
					<path d="M353.2,191.2c-0.8,0-1.5-0.7-1.5-1.5v-68.6c0-0.8,0.7-1.5,1.5-1.5s1.5,0.7,1.5,1.5v68.6
						C354.7,190.5,354,191.2,353.2,191.2z"/>
				</g>
				<g>
					<path d="M371.3,191.2c-0.8,0-1.5-0.7-1.5-1.5V122c0-0.8,0.7-1.5,1.5-1.5s1.5,0.7,1.5,1.5v67.7
						C372.8,190.5,372.1,191.2,371.3,191.2z"/>
				</g>
				<g>
					<path d="M370.3,122.6h-17c-0.8,0-1.5-0.7-1.5-1.5s0.7-1.5,1.5-1.5h17c0.8,0,1.5,0.7,1.5,1.5S371.1,122.6,370.3,122.6z"/>
				</g>
				<g>
					<path d="M371.3,122.6h-1c-0.8,0-1.5-0.7-1.5-1.5s0.7-1.5,1.5-1.5h1c0.8,0,1.5,0.7,1.5,1.5S372.1,122.6,371.3,122.6z"/>
				</g>
				<g>
					<path d="M379,130.9c-0.4,0-0.7-0.1-1-0.4l-7.7-7.4c-0.6-0.6-0.6-1.5,0-2.1c0.6-0.6,1.5-0.6,2.1,0l7.7,7.4
						c0.6,0.6,0.6,1.5,0,2.1C379.7,130.8,379.4,130.9,379,130.9z"/>
				</g>
				<g>
					<path d="M371.3,123.5c-0.4,0-0.7-0.1-1-0.4l-1-0.9c-0.6-0.6-0.6-1.5,0-2.1c0.6-0.6,1.5-0.6,2.1,0l1,0.9c0.6,0.6,0.6,1.5,0,2.1
						C372,123.3,371.6,123.5,371.3,123.5z"/>
				</g>
				<g>
					<path d="M379,191.2c-0.8,0-1.5-0.7-1.5-1.5v-60.3c0-0.8,0.7-1.5,1.5-1.5s1.5,0.7,1.5,1.5v60.3
						C380.5,190.5,379.8,191.2,379,191.2z"/>
				</g>
				<g>
					<path d="M379,191.2h-7.7c-0.8,0-1.5-0.7-1.5-1.5s0.7-1.5,1.5-1.5h7.7c0.8,0,1.5,0.7,1.5,1.5S379.8,191.2,379,191.2z"/>
				</g>
				<g>
					<path d="M371.3,191.2h-18c-0.8,0-1.5-0.7-1.5-1.5s0.7-1.5,1.5-1.5h18c0.8,0,1.5,0.7,1.5,1.5S372.1,191.2,371.3,191.2z"/>
				</g>
			</g>
		</g>
	</g>
</g>
<g>
	<g>
		<g>
			<g>
				<g>
					<polygon class="st0" points="463.5,101.5 463.5,189.7 433.8,189.7 433.8,93.2 434.6,93.1 					"/>
				</g>
				<g>
					<polygon points="463.5,86.4 463.5,101.5 434.6,93.1 433.8,92.9 433.8,76 					"/>
				</g>
				<g>
					<polygon class="st0" points="433.8,93.2 433.8,189.7 384.2,189.7 384.2,96.8 					"/>
				</g>
				<g>
					<polygon points="433.8,92.9 433.8,93.2 384.2,96.8 384.2,80.5 433.8,76 					"/>
				</g>
			</g>
			<g>
				<g>
					<path d="M384.2,191.2c-0.8,0-1.5-0.7-1.5-1.5V96.8c0-0.8,0.7-1.5,1.5-1.5s1.5,0.7,1.5,1.5v92.9
						C385.7,190.5,385,191.2,384.2,191.2z"/>
				</g>
				<g>
					<path d="M384.2,98.3c-0.8,0-1.5-0.7-1.5-1.5V80.5c0-0.8,0.7-1.5,1.5-1.5s1.5,0.7,1.5,1.5v16.3C385.7,97.6,385,98.3,384.2,98.3z
						"/>
				</g>
				<g>
					<path d="M384.2,82c-0.8,0-1.4-0.6-1.5-1.4c-0.1-0.8,0.5-1.6,1.4-1.6l49.6-4.5c0.8-0.1,1.6,0.5,1.6,1.4c0.1,0.8-0.5,1.6-1.4,1.6
						L384.3,82C384.3,82,384.2,82,384.2,82z"/>
				</g>
				<g>
					<path d="M463.5,87.9c-0.2,0-0.3,0-0.5-0.1l-29.8-10.4c-0.8-0.3-1.2-1.1-0.9-1.9s1.1-1.2,1.9-0.9L464,85
						c0.8,0.3,1.2,1.1,0.9,1.9C464.7,87.5,464.2,87.9,463.5,87.9z"/>
				</g>
				<g>
					<path d="M463.5,191.2c-0.8,0-1.5-0.7-1.5-1.5v-88.2c0-0.8,0.7-1.5,1.5-1.5s1.5,0.7,1.5,1.5v88.2
						C465,190.5,464.4,191.2,463.5,191.2z"/>
				</g>
				<g>
					<path d="M463.5,103c-0.8,0-1.5-0.7-1.5-1.5V86.4c0-0.8,0.7-1.5,1.5-1.5s1.5,0.7,1.5,1.5v15.1C465,102.3,464.4,103,463.5,103z"
						/>
				</g>
				<g>
					<path d="M433.8,94.4c-0.8,0-1.5-0.7-1.5-1.5V76c0-0.8,0.7-1.5,1.5-1.5s1.5,0.7,1.5,1.5v16.9C435.3,93.7,434.6,94.4,433.8,94.4z
						"/>
				</g>
				<g>
					<path d="M433.8,94.7c-0.8,0-1.5-0.7-1.5-1.5v-0.3c0-0.8,0.7-1.5,1.5-1.5s1.5,0.7,1.5,1.5v0.3C435.3,94,434.6,94.7,433.8,94.7z"
						/>
				</g>
				<g>
					<path d="M433.8,191.2c-0.8,0-1.5-0.7-1.5-1.5V93.2c0-0.8,0.7-1.5,1.5-1.5s1.5,0.7,1.5,1.5v96.5
						C435.3,190.5,434.6,191.2,433.8,191.2z"/>
				</g>
				<g>
					<path d="M463.5,191.2h-29.8c-0.8,0-1.5-0.7-1.5-1.5s0.7-1.5,1.5-1.5h29.8c0.8,0,1.5,0.7,1.5,1.5S464.4,191.2,463.5,191.2z"/>
				</g>
				<g>
					<path d="M433.8,191.2h-49.6c-0.8,0-1.5-0.7-1.5-1.5s0.7-1.5,1.5-1.5h49.6c0.8,0,1.5,0.7,1.5,1.5S434.6,191.2,433.8,191.2z"/>
				</g>
				<g>
					<path d="M433.8,94.7c-0.8,0-1.4-0.6-1.5-1.4c-0.1-0.8,0.5-1.5,1.4-1.6l0.9-0.1c0.8-0.1,1.5,0.5,1.6,1.4
						c0.1,0.8-0.5,1.5-1.4,1.6l-0.9,0.1C433.9,94.7,433.8,94.7,433.8,94.7z"/>
				</g>
				<g>
					<path d="M384.2,98.3c-0.8,0-1.4-0.6-1.5-1.4c-0.1-0.8,0.6-1.5,1.4-1.6l49.6-3.6c0.8-0.1,1.5,0.6,1.6,1.4
						c0.1,0.8-0.6,1.5-1.4,1.6l-49.6,3.6C384.3,98.3,384.2,98.3,384.2,98.3z"/>
				</g>
				<g>
					<path d="M463.5,103c-0.1,0-0.3,0-0.4-0.1l-28.9-8.4c-0.8-0.2-1.3-1.1-1-1.9s1.1-1.3,1.9-1l28.9,8.4c0.8,0.2,1.3,1.1,1,1.9
						C464.8,102.6,464.2,103,463.5,103z"/>
				</g>
				<g>
					<path d="M434.6,94.6c-0.1,0-0.3,0-0.4-0.1l-0.9-0.2c-0.8-0.2-1.3-1.1-1-1.9c0.2-0.8,1.1-1.3,1.9-1l0.9,0.2
						c0.8,0.2,1.3,1.1,1,1.9C435.9,94.2,435.3,94.6,434.6,94.6z"/>
				</g>
			</g>
		</g>
	</g>
</g>
<g>
	<g>
		<g>
			<g>
				<g>
					<polygon class="st0" points="181.5,170.2 181.5,189.7 172.3,189.7 172.3,165.9 					"/>
				</g>
				<g>
					<rect x="71" y="165.9" class="st0" width="101.4" height="23.8"/>
				</g>
			</g>
			<g>
				<g>
					<path d="M71,191.2c-0.8,0-1.5-0.7-1.5-1.5v-23.8c0-0.8,0.7-1.5,1.5-1.5s1.5,0.7,1.5,1.5v23.8C72.5,190.5,71.8,191.2,71,191.2z"
						/>
				</g>
				<g>
					<path d="M172.3,167.4H71c-0.8,0-1.5-0.7-1.5-1.5s0.7-1.5,1.5-1.5h101.4c0.8,0,1.5,0.7,1.5,1.5S173.2,167.4,172.3,167.4z"/>
				</g>
				<g>
					<path d="M172.3,191.2c-0.8,0-1.5-0.7-1.5-1.5v-23.8c0-0.8,0.7-1.5,1.5-1.5s1.5,0.7,1.5,1.5v23.8
						C173.8,190.5,173.2,191.2,172.3,191.2z"/>
				</g>
				<g>
					<path d="M181.5,171.7c-0.2,0-0.4,0-0.6-0.1l-9.1-4.3c-0.7-0.4-1.1-1.2-0.7-2c0.4-0.7,1.2-1.1,2-0.7l9.1,4.3
						c0.7,0.4,1.1,1.2,0.7,2C182.6,171.3,182,171.7,181.5,171.7z"/>
				</g>
				<g>
					<path d="M181.5,191.2c-0.8,0-1.5-0.7-1.5-1.5v-19.5c0-0.8,0.7-1.5,1.5-1.5s1.5,0.7,1.5,1.5v19.5
						C183,190.5,182.3,191.2,181.5,191.2z"/>
				</g>
				<g>
					<path d="M172.3,191.2H71c-0.8,0-1.5-0.7-1.5-1.5s0.7-1.5,1.5-1.5h101.4c0.8,0,1.5,0.7,1.5,1.5S173.2,191.2,172.3,191.2z"/>
				</g>
				<g>
					<path d="M181.5,191.2h-9.1c-0.8,0-1.5-0.7-1.5-1.5s0.7-1.5,1.5-1.5h9.1c0.8,0,1.5,0.7,1.5,1.5S182.3,191.2,181.5,191.2z"/>
				</g>
				<g>
					<path d="M163.5,173.7H77.4c-0.8,0-1.5-0.7-1.5-1.5s0.7-1.5,1.5-1.5h86.1c0.8,0,1.5,0.7,1.5,1.5S164.3,173.7,163.5,173.7z"/>
				</g>
			</g>
		</g>
	</g>
</g>
<g>
	<g>
		<g>
			<g>
				<g>
					<polygon class="st0" points="516.5,170.9 516.5,190.4 507.4,190.4 507.4,166.6 					"/>
				</g>
				<g>
					<rect x="406" y="166.6" class="st0" width="101.3" height="23.8"/>
				</g>
			</g>
			<g>
				<g>
					<path d="M406,191.9c-0.8,0-1.5-0.7-1.5-1.5v-23.8c0-0.8,0.7-1.5,1.5-1.5s1.5,0.7,1.5,1.5v23.8
						C407.5,191.2,406.8,191.9,406,191.9z"/>
				</g>
				<g>
					<path d="M507.4,168.1H406c-0.8,0-1.5-0.7-1.5-1.5s0.7-1.5,1.5-1.5h101.4c0.8,0,1.5,0.7,1.5,1.5S508.2,168.1,507.4,168.1z"/>
				</g>
				<g>
					<path d="M507.4,191.9c-0.8,0-1.5-0.7-1.5-1.5v-23.8c0-0.8,0.7-1.5,1.5-1.5s1.5,0.7,1.5,1.5v23.8
						C508.9,191.2,508.2,191.9,507.4,191.9z"/>
				</g>
				<g>
					<path d="M516.5,172.4c-0.2,0-0.4,0-0.6-0.1l-9.1-4.3c-0.8-0.4-1.1-1.2-0.7-2c0.4-0.8,1.2-1.1,2-0.7l9.1,4.3
						c0.8,0.4,1.1,1.2,0.7,2C517.6,172.1,517.1,172.4,516.5,172.4z"/>
				</g>
				<g>
					<path d="M516.5,191.9c-0.8,0-1.5-0.7-1.5-1.5v-19.5c0-0.8,0.7-1.5,1.5-1.5s1.5,0.7,1.5,1.5v19.5
						C518,191.2,517.3,191.9,516.5,191.9z"/>
				</g>
				<g>
					<path d="M507.4,191.9H406c-0.8,0-1.5-0.7-1.5-1.5s0.7-1.5,1.5-1.5h101.4c0.8,0,1.5,0.7,1.5,1.5S508.2,191.9,507.4,191.9z"/>
				</g>
				<g>
					<path d="M516.5,191.9h-9.1c-0.8,0-1.5-0.7-1.5-1.5s0.7-1.5,1.5-1.5h9.1c0.8,0,1.5,0.7,1.5,1.5S517.3,191.9,516.5,191.9z"/>
				</g>
				<g>
					<path d="M498.5,174.4h-86.1c-0.8,0-1.5-0.7-1.5-1.5s0.7-1.5,1.5-1.5h86.1c0.8,0,1.5,0.7,1.5,1.5S499.3,174.4,498.5,174.4z"/>
				</g>
			</g>
		</g>
	</g>
</g>
<g>
	<rect x="13.5" y="185.4" width="525.5" height="7.9"/>
	<path d="M539,194.8H13.5c-0.8,0-1.5-0.7-1.5-1.5v-7.9c0-0.8,0.7-1.5,1.5-1.5H539c0.8,0,1.5,0.7,1.5,1.5v7.9
		C540.5,194.1,539.8,194.8,539,194.8z M15,191.8h522.5v-4.9H15V191.8z"/>
</g>
</svg>
