<?xml version="1.0" encoding="utf-8"?>
<!-- Generator: Adobe Illustrator 19.1.0, SVG Export Plug-In . SVG Version: 6.00 Build 0)  -->
<svg version="1.1" id="레이어_1" xmlns="http://www.w3.org/2000/svg" xmlns:xlink="http://www.w3.org/1999/xlink" x="0px"
	 y="0px" viewBox="0 0 663.1 362.7" style="enable-background:new 0 0 663.1 362.7;" xml:space="preserve">
<style type="text/css">
	.st0{fill:#FFFFFF;}
</style>
<g>
	<g>
		<g>
			<g>
				<g>
					<path class="st0" d="M646.4,309c3,5.2,3.9,11.8,2.4,17.7c-1.4,5.6-4.7,10.5-9.1,14.4c-1.8-8.8-2.2-18.2,1.7-26.3
						C642.6,312.4,644.2,310.2,646.4,309z"/>
				</g>
				<g>
					<path d="M646.4,309c-2.2,1.3-3.8,3.5-4.9,5.8c-3.9,8-3.5,17.5-1.7,26.3c-1.6,1.4-3.4,2.7-5.3,3.9c-3.7-11.5-2.8-24.4,2.7-35.2
						c1.2-2.3,2.8-4.7,5-6C643.8,305.2,645.3,307,646.4,309z"/>
				</g>
				<g>
					<path class="st0" d="M639.1,301.5c1.1,0.6,2.1,1.4,3.1,2.2c-2.2,1.3-3.8,3.6-5,6c-5.5,10.8-6.5,23.7-2.7,35.2c0,0,0,0,0,0
						l-38.8-1.3c3.7-2,7.9-3.4,11.5-5.7c6.6-4.1,11-11.2,13.3-18.6c2.3-7.4,2.7-15.3,3-23.1c0.2-5.8,0.2-11.6,0.2-17.4
						c0-4.3-0.1-8.6-0.3-12.8c1.2,2.4,2.4,4.9,3.6,7.3c1.4,2.9,2.9,5.8,4.9,8.3c1.7,2.1,3.8,3.9,6.2,4.9c-0.1,3.8-0.5,7.7-1,11.5
						c-0.1,0.5-0.2,1,0,1.5C637.2,300.5,638.2,301,639.1,301.5z"/>
				</g>
				<g>
					<path d="M637.8,276.2c0.2,3.4,0.3,6.9,0.2,10.3c-2.4-1-4.5-2.8-6.2-4.9c-2-2.5-3.5-5.4-4.9-8.3c-1.2-2.4-2.4-4.9-3.6-7.3
						c-0.1-2.9-0.2-5.9-0.4-8.8c-0.2-3.9-0.5-7.8-1.2-11.6c3.1,0.9,6.1,2.1,8.5,4.2C628.1,259.2,631,269.5,637.8,276.2z"/>
				</g>
				<g>
					<path class="st0" d="M609.9,175.7c-1.2,4.2-1.7,8.6-1.2,12.9c0.1,0.7,0.2,1.5,0.7,2.1c0.4,0.4,0.8,0.6,1.3,0.7
						c4.5,1.3,9.4-1.1,12.6-4.5c1.8-2,3.3-4.5,3.6-7.2c0.3-2.7-0.7-5.6-3-7.1c-2-1.3-4.5-1.4-6.8-0.7c-2.3,0.7-4.3,1.9-6.2,3.2
						C610.6,175.2,610.3,175.4,609.9,175.7z M594.7,192c0,0.1-0.1,0.1-0.1,0.2c-1.1,1.9-2.2,3.8-3.4,5.7c-0.2,0.4-0.5,0.8-0.7,1.2
						c-0.3,2.4,0.4,5,0.9,7.4c-5.1,1.6-10.6,1.9-15.8,0.8c0.1-5.9,0.8-11.7,3.1-17.1c1.2-2.7,2.7-5.2,4.4-7.7
						c4.5-6.6,10.2-12.4,16.6-17.1c3.5-2.6,7.3-4.9,11.2-6.9c2.6-1.3,5.3-2.4,8.1-2.8c1.1-0.2,2.2-0.3,3.4-0.2
						c6,0.3,11.3,4.7,13.8,10.2s2.6,11.8,1.4,17.7c-2,9.3-7.4,18.2-15.7,22.8c-2,1.1-4.2,2-6.4,2.1c-4.2,0.2-8-2.2-11.3-4.7
						C600.2,200.5,596.4,196.6,594.7,192z"/>
				</g>
				<g>
					<path class="st0" d="M635.2,259.9c1.3,5.3,2.2,10.8,2.6,16.3c-6.8-6.7-9.7-17-7.7-26.3c0.4,0.3,0.7,0.7,1,1.1
						C633.4,253.4,634.4,256.7,635.2,259.9z"/>
				</g>
				<g>
					<path class="st0" d="M631,75.6c0.8,11.4,0.2,22.9-0.8,34.3c-1,10.9-2.3,21.8-5.6,32.2c-1.5,4.7-3.4,9.2-5.6,13.6
						c-2.8,0.4-5.5,1.6-8.1,2.8c-3.9,1.9-7.7,4.2-11.2,6.9c3.8-8.4,7.3-17,9.8-25.9c0.9-3.2,1.6-6.5,2.4-9.7
						c1.1-4.6,2.1-9.2,3.2-13.9c0.9-3.9,1.8-7.9,2.3-11.9c0.5-3.7,0.6-7.5,0.7-11.3c0.2-5.8,0.4-11.7,0.6-17.5
						c0.1-3.4,0.2-6.8-0.3-10.2c-0.3-1.9-0.9-3.8-1.6-5.7c-0.3-0.7-0.7-1.5-1.4-1.7c-0.8-0.3-1.6,0.2-2.3,0.6
						c-2.6,1.8-4.9,4-6.7,6.5c-0.7-2.3-2.6-3.8-3.4-6c-1.8-4.7,4.6-12,7.6-15.2c-1.3-0.2-2.6-0.5-3.9-0.9c6.8-2.6,15.6,0,19.5,6.3
						c2.3,3.8,2.9,8.4,3.5,12.9C630.1,66.6,630.6,71.1,631,75.6z"/>
				</g>
				<g>
					<path class="st0" d="M623.5,278.8c0,5.8,0,11.6-0.2,17.4c-0.2,7.8-0.7,15.6-3,23.1c-2.3,7.4-6.7,14.5-13.3,18.6
						c-3.6,2.2-7.8,3.6-11.5,5.7l-37.7-1.2c-1.5-1.5-4.1-2.2-6.2-3.2c-7.1-3.1-10.8-10.9-13.8-18c-1.4-3.3-2.9-6.6-3.7-10.2
						c-0.1-0.3-0.1-0.6-0.2-0.8c-0.3-1.4-0.5-2.9-0.7-4.3c-0.2-2-0.3-4.1-0.3-6.1c0-6.8,0.9-13.5,2.1-20.2c2.3-0.2,4.6-0.4,7-0.7
						c-1.5,5.6-1.3,11.4-0.8,17.2c0.6,6.6,1.5,13.2,4.1,19.2c2.6,6,7.2,11.5,13.4,13.8c3.3,1.2,6.9,1.5,10.4,1.8
						c3.8,0.3,7.6,0.5,11.4,0.7c5.1,0.3,10.4,0.4,15.1-1.7c3.1-1.4,5.7-3.8,7.9-6.5c5.2-6.4,8.3-14.3,9.9-22.4
						c1.6-8.1,1.9-16.3,2.2-24.6C618.2,277.4,620.9,278.1,623.5,278.8z"/>
				</g>
				<g>
					<path class="st0" d="M623.5,278.8c-2.6-0.7-5.3-1.4-7.9-2.2c-0.3,8.2-0.6,16.5-2.2,24.6c-1.6,8.1-4.7,16-9.9,22.4
						c-2.2,2.7-4.8,5.1-7.9,6.5c-4.6,2.1-10,2-15.1,1.7c-3.8-0.2-7.6-0.4-11.4-0.7c-3.5-0.3-7.1-0.6-10.4-1.8
						c-6.2-2.3-10.8-7.8-13.4-13.8c-2.6-6-3.5-12.7-4.1-19.2c-0.5-5.7-0.8-11.6,0.8-17.2c-2.3,0.2-4.6,0.4-7,0.7
						c0.4-2.2,0.8-4.3,1.2-6.5c1.3-6.9,2.7-14,6.2-20.1c2.9-4.9,7.4-9.2,12.8-10.8c-0.8,2.3-1.5,4.6-2,7c-4.1,16.7-5,34.2-2.7,51.3
						c0.3,2.5,0.8,5.1,1.9,7.3c2.2,4.2,6.6,6.6,11,8.2c5.8,2.2,12.1,3.3,18.3,2.5c2.9-0.4,5.9-1.2,8.4-2.7c4.8-3,7.5-8.3,9.3-13.6
						c7.2-21.9,1.3-47.3,12.6-67.4c0.8-1.3,1.6-2.7,2.6-3.8c1.6,1.7,2.9,3.6,4,5.7c1.5,2.8,2.4,5.8,3,8.9c0.8,3.8,1,7.7,1.2,11.6
						c0.2,2.9,0.3,5.9,0.4,8.8C623.4,270.3,623.5,274.6,623.5,278.8z"/>
				</g>
				<g>
					<path class="st0" d="M614.6,231.1c-1,1.1-1.9,2.5-2.6,3.8c-11.2,20.1-5.4,45.6-12.6,67.4c-1.8,5.3-4.5,10.6-9.3,13.6
						c-2.5,1.6-5.5,2.4-8.4,2.7c-6.2,0.8-12.5-0.4-18.3-2.5c-4.4-1.6-8.8-4.1-11-8.2c-1.2-2.2-1.6-4.8-1.9-7.3
						c-2.3-17.1-1.4-34.6,2.7-51.3c0.6-2.4,1.2-4.7,2-7c1.5-4.1,3.4-8,6.3-11.3c1.4-1.5,2.9-2.8,4.5-4c-0.5,1.9-0.9,3.8-1.1,5.7
						c-0.5,4.4-0.2,8.9,1,13.1c0.8,2.8,1.9,5.7,4.3,7.4c1.8,1.3,4.1,1.8,6.2,2.1c3,0.4,6.1,0.6,8.9-0.6c2.8-1.3,4.7-4,6.5-6.5
						c4-5.8,8.1-11.7,12.1-17.5c1.2-1.8,2.5-3.5,3.7-5.3C610.2,227,612.6,228.9,614.6,231.1z M587.8,304.3c3.4-5.3,4.1-12.2,1.9-18
						c-1.7-4.5-5.1-8.3-9.3-10.5c-5.4-0.8-12.9,1.1-15.9,4.6c-3.8,4.4-5.2,10.3-5.3,16.1c0,2.6,0.1,5.2,1.1,7.6
						c1.9,4.8,6.8,8.2,11.9,8.6C578.3,313.1,584.5,309.5,587.8,304.3z"/>
				</g>
				<g>
					<path class="st0" d="M599.2,25.3c3.4-3,8.4-4.4,12.6-2.7c-2.1,3.9-4.5,7.6-7.1,11.2c-1.3,1.8-2.7,3.7-2.6,5.9
						c0,0.2,0,0.3,0.1,0.5l-2.2,0.4c-0.2-0.8-0.5-1.5-0.8-2.2c-1.2-2-3.2-3.3-5.4-3.9c0-0.1,0-0.1,0.1-0.2
						C594.8,30.9,596.5,27.6,599.2,25.3z"/>
				</g>
				<g>
					<path class="st0" d="M606.7,42.9c1.3,0.3,2.6,0.6,3.9,0.9c-3,3.1-9.4,10.5-7.6,15.2c0.8,2.2,2.7,3.7,3.4,6
						c0,0.1,0.1,0.3,0.1,0.4c0.8,3.2,0.1,7-0.3,10.2c-0.2,1.2-0.3,2.5-0.9,3.6c-0.6,1.1-1.6,2-2.9,2.2c-1.4,0.2-2.8-0.8-3.5-2.1
						c-0.2-0.3-0.3-0.6-0.5-1c-0.4-1-0.5-2.1-0.7-3.2c-1-8.5-0.6-17.1,1.3-25.4c0.7-3,1.5-6.3,0.8-9.2l2.2-0.4
						c0.1,0.5,0.3,1,0.7,1.4c0.4,0.3,0.8,0.5,1.3,0.7C605,42.5,605.8,42.7,606.7,42.9z"/>
				</g>
				<g>
					<path class="st0" d="M607.6,225.5c-1.2,1.8-2.5,3.6-3.7,5.3c-12.5,4.7-26.5,6.4-39,2c0.2-1.9,0.6-3.8,1.1-5.7
						c3.2-2.2,6.9-3.8,10.7-4.8c0.6,2.8,1.6,5.4,3.9,7c2.7,1.9,6.7,1.5,9.1-0.8c2-1.9,2.7-4.8,2.9-7.6c3.6,0.3,7.2,1.1,10.5,2.4
						C604.7,223.9,606.1,224.6,607.6,225.5z"/>
				</g>
				<g>
					<path class="st0" d="M603.9,230.8c-4,5.8-8.1,11.7-12.1,17.5c-1.8,2.5-3.7,5.2-6.5,6.5c-2.7,1.3-5.9,1.1-8.9,0.6
						c-2.2-0.3-4.4-0.8-6.2-2.1c-2.4-1.7-3.6-4.6-4.3-7.4c-1.1-4.3-1.4-8.7-1-13.1C577.4,237.2,591.4,235.5,603.9,230.8z"/>
				</g>
				<g>
					<path class="st0" d="M599.9,40.6c0.7,2.9-0.2,6.2-0.8,9.2c-1.9,8.3-2.3,16.9-1.3,25.4c0.1,1.1,0.3,2.2,0.7,3.2l-5.2,13.8
						c-2.2-1.7-4.5-3.2-7.2-4c-1.5-0.4-3.1-0.5-4.6-0.2c0,0,0,0,0,0c-0.2-0.8-0.2-1.6-0.1-2.4c0.2-1.8,0.9-3.4,1.5-5.2
						c1-3.4,1.3-7.1,0.8-10.6c-0.3-2-0.8-4-0.2-5.9c0.5-1.4,1.5-2.6,2.1-4c0.5-1.1,0.6-2.4,0.7-3.6c0.1-1.6,0.3-3.2,0.5-4.8
						c1.1,0.3,2.3,0.9,3.5,0.9c2,0,3.6-1.7,4-3.7c0.1-0.7,0.1-1.5,0.2-2.2c0.1-1.7,0.4-3.5,1-5.1c0.2-0.7,0.5-1.4,0.5-2.1
						c0-0.7-0.1-1.5-0.7-2c-0.5-0.4-1.2-0.5-1.9-0.6c0,0-0.1,0-0.1,0c-1.3-0.1-2.7-0.1-4-0.1c0.1-0.2,0.2-0.4,0.3-0.6
						c0.8-1.2,2.2-1.5,3.7-1.7c0.2,0,0.4,0.1,0.6,0.1c2.3,0.6,4.3,1.9,5.4,3.9C599.5,39.1,599.8,39.8,599.9,40.6z"/>
				</g>
				<g>
					<path class="st0" d="M595,37.4c0.5,0.5,0.7,1.2,0.7,2c-0.1,0.7-0.3,1.4-0.5,2.1c-0.5,1.6-0.9,3.4-1,5.1c0,0.8,0,1.5-0.2,2.2
						c-0.4,1.9-2,3.7-4,3.7c-1.2,0-2.3-0.6-3.5-0.9c0.5-4.4,1.2-8.8,2-13.1c0.1-0.6,0.2-1.2,0.5-1.7c1.3,0,2.7,0,4,0.1
						c0,0,0.1,0,0.1,0C593.8,36.8,594.5,36.9,595,37.4z"/>
				</g>
				<g>
					<path class="st0" d="M557.9,342.4l37.7,1.2c-2.2,1.2-4.2,2.7-5.8,4.6c-0.7,0.9-1.4,2-2.5,2.5c-0.9,0.4-2,0.3-3,0.2
						c-7.3-0.8-14.7-1.6-22-2.4c-0.9-0.1-1.9-0.2-2.4-0.9c-0.7-0.8-0.5-2-0.7-3.1C559,343.7,558.5,343,557.9,342.4z"/>
				</g>
				<g>
					<path class="st0" d="M593.2,92.1l-2.3,6.2c-0.9-1.2-2.1-2.1-3.5-2.6c-1-0.3-2.1-0.4-3.2-0.5c-2-0.1-4,0.1-5.9,0.8l3-8l0-0.1
						c1.5-0.3,3.2-0.2,4.6,0.2C588.7,88.9,591,90.4,593.2,92.1z"/>
				</g>
				<g>
					<path class="st0" d="M591.6,206.8c0.9,4.2,1.3,8.5,1.1,12.8c0,0.4,0,0.8-0.1,1.2c-0.2,2.8-0.9,5.6-2.9,7.6
						c-2.4,2.3-6.4,2.6-9.1,0.8c-2.3-1.6-3.4-4.2-3.9-7c-0.3-1.4-0.5-3-0.5-4.4c-0.2-3.5-0.5-7-0.4-10.5c5.2,1.1,10.7,0.8,15.8-0.8
						C591.5,206.6,591.5,206.7,591.6,206.8z"/>
				</g>
				<g>
					<path class="st0" d="M590.9,98.3l-31.2,82.4c-3-3.1-6.9-5.3-11.1-6.4L578.3,96c1.8-0.7,3.9-0.8,5.9-0.8c1.1,0,2.2,0.1,3.2,0.5
						C588.8,96.2,590,97.1,590.9,98.3z"/>
				</g>
				<g>
					<path class="st0" d="M589.7,286.3c2.2,5.9,1.5,12.8-1.9,18c-3.3,5.2-9.5,8.8-15.7,8.3c-5.1-0.4-10-3.8-11.9-8.6
						c-0.9-2.4-1.1-5-1.1-7.6c0.1-5.8,1.5-11.7,5.3-16.1c3.1-3.5,10.5-5.4,15.9-4.6C584.5,278,587.9,281.8,589.7,286.3z"/>
				</g>
				<g>
					<path class="st0" d="M559.7,180.7l-7.8,20.5c-1.6-1.8-3.3-3.6-5.4-5c-1.6-1.1-3.5-1.9-5.4-2.3l7.5-19.6
						C552.7,175.4,556.6,177.7,559.7,180.7z"/>
				</g>
				<g>
					<path class="st0" d="M557.9,342.4l-17.8-0.6c-2.6-1.6-4.4-4.4-5.5-7.3c-1.2-3.3-1.5-6.9-1.7-10.5c-0.2-2.2-0.3-4.5-0.2-6.7
						c0.2-2.4,0.7-4.7,1.2-7.1c0.1,0.3,0.1,0.5,0.2,0.8c0.9,3.5,2.3,6.8,3.7,10.2c3.1,7.1,6.7,14.9,13.8,18
						C553.8,340.1,556.3,340.9,557.9,342.4z"/>
				</g>
				<g>
					<path class="st0" d="M551.9,201.2L517,293.4l-0.6-0.2c-0.2-1.8-1.2-3.4-2.5-4.5c-1.3-1.2-2.9-2-4.6-2.7
						c-1.4-0.6-2.9-1.2-4.4-1.4c1.5-2.9,3.2-5.6,5-8.3l31.2-82.2c1.9,0.3,3.8,1.2,5.4,2.3C548.5,197.6,550.3,199.4,551.9,201.2z"/>
				</g>
				<g>
					<path d="M540.1,341.8l-6-0.2c-0.5-0.2-0.9-0.6-1.3-0.9c-0.9-0.8-1.8-1.8-2.4-2.8c-1.1-2-1.7-4.2-2-6.4c-0.1-0.5-0.2-1-0.2-1.6
						c-0.5-3.6-0.8-7.2-0.9-10.8c-0.1-3,0-6,1.3-8.7c0.9-2,2.6-3.8,4.7-4.5c0.2,1.5,0.4,2.9,0.7,4.3c-0.5,2.3-1,4.7-1.2,7.1
						c-0.2,2.2,0,4.5,0.2,6.7c0.3,3.5,0.5,7.1,1.7,10.5C535.6,337.4,537.5,340.1,540.1,341.8z"/>
				</g>
				<g>
					<path class="st0" d="M532.7,340.7c-0.3,0.7-0.8,1.3-1.4,1.8c-1,1-2.3,1.6-3.6,2.3c-1.2,0.6-2.5,1.3-3.7,1.9l-85.1-4.9
						c-0.9-3.5-0.6-7.5,1.9-10.1c2.7-2.8,7-3.1,10.9-3.3c4.3-0.2,8.6-0.3,12.9-0.5c1.5-0.1,3.1-0.2,4.4-1c1.5-1.1,2.1-3.1,3.1-4.6
						c2.3-3.1,6.5-3.8,10.4-4.2c2.2-0.2,4.4-0.3,6.6-0.5c3.7-0.2,7.4-0.3,11.1-0.3c1.9,0,3.9,0.1,5.6,1c0.1,0,0.1,0.1,0.2,0.1
						c2.9,1.7,3.8,5.3,3.9,8.9c0,1,0,1.9,0,2.9c4.1,0.3,8.3,0.6,12.4,0.9c2,0.1,4.1,0.3,6.1,0.4c0.4,2.2,0.9,4.4,2,6.4
						C531,338.9,531.8,339.9,532.7,340.7z"/>
				</g>
				<g>
					<path class="st0" d="M522.3,331.1c-4.1-0.3-8.3-0.6-12.4-0.9c0-0.9,0-1.9,0-2.9c2.5-2.2,5.3-4,8.5-4c1.2,0,2.6,0.5,3,1.6
						c0.2,0.5,0.2,1,0.2,1.5C521.7,328,521.9,329.6,522.3,331.1z"/>
				</g>
				<g>
					<path class="st0" d="M517,293.4l-7.4,19.4c-4-2.9-9.1-4.3-14-3.9c0.6-1.1,1.1-2.3,1.6-3.5c0.4-1,0.8-2.1,1.1-3.1
						c0.4,0.2,0.8,0.3,1.3,0.4c1,0.1,2-0.1,3-0.3c0.1-0.9,0.5-1.8,0.8-2.7c1.2-2.7,2.5-5.5,3.7-8.2c-1.2-0.3-2.8-0.6-3.9-0.8
						c-0.4,0-0.9-0.1-1.3-0.1c0.9-2.1,1.8-4.1,2.9-6.1c1.5,0.2,3,0.8,4.4,1.4c1.6,0.7,3.2,1.5,4.6,2.7c1.3,1.2,2.4,2.8,2.5,4.5
						L517,293.4z"/>
				</g>
				<g>
					<path class="st0" d="M509.6,312.8l-1.1,3c-0.8,0.9-1.7,1.8-2.5,2.6c-0.1,0-0.1-0.1-0.2-0.1c-1.7-0.9-3.7-1-5.6-1
						c-3.7,0-7.4,0.1-11.1,0.3c2.6-2.6,4.8-5.5,6.5-8.8C500.5,308.5,505.6,309.9,509.6,312.8z"/>
				</g>
				<g>
					<path class="st0" d="M507.1,291.5c-1.2,2.7-2.5,5.5-3.7,8.2c-0.4,0.8-0.8,1.7-0.8,2.7c-1,0.2-2,0.4-3,0.3
						c-0.4,0-0.9-0.2-1.3-0.4c-0.5-0.2-1-0.6-1.3-1.1c-0.6-0.9-0.5-2.1-0.3-3.2c0.3-1.7,0.9-3.4,1.7-5c0.3-0.6,0.7-1.3,1.3-1.7
						c0.7-0.5,1.5-0.6,2.3-0.6c0.4,0,0.9,0,1.3,0.1C504.3,290.8,505.9,291.1,507.1,291.5z"/>
				</g>
			</g>
			<g>
				<g>
					<path d="M578.3,97.5c-0.2,0-0.4,0-0.5-0.1c-0.8-0.3-1.2-1.2-0.9-1.9l3-8c0.3-0.8,1.2-1.2,1.9-0.9c0.8,0.3,1.2,1.2,0.9,1.9l-3,8
						C579.5,97.1,578.9,97.5,578.3,97.5z"/>
				</g>
				<g>
					<path d="M581.4,89.5c-0.2,0-0.3,0-0.5-0.1c-0.8-0.3-1.2-1.1-0.9-1.9c0.3-0.8,1.1-1.3,1.9-1c0.8,0.3,1.2,1.1,1,1.9l0,0.1
						C582.6,89.1,582,89.5,581.4,89.5z"/>
				</g>
				<g>
					<path d="M541.1,195.4c-0.2,0-0.4,0-0.5-0.1c-0.8-0.3-1.2-1.2-0.9-1.9l7.5-19.6c0.3-0.8,1.2-1.2,1.9-0.9
						c0.8,0.3,1.2,1.2,0.9,1.9l-7.5,19.6C542.3,195,541.7,195.4,541.1,195.4z"/>
				</g>
				<g>
					<path d="M509.9,277.6c-0.2,0-0.4,0-0.5-0.1c-0.8-0.3-1.2-1.2-0.9-1.9l31.2-82.2c0.3-0.8,1.2-1.2,1.9-0.9
						c0.8,0.3,1.2,1.2,0.9,1.9l-31.2,82.2C511.1,277.2,510.5,277.6,509.9,277.6z"/>
				</g>
				<g>
					<path d="M548.6,175.8c-0.2,0-0.4,0-0.5-0.1c-0.8-0.3-1.2-1.2-0.9-1.9l29.8-78.3c0.3-0.8,1.2-1.2,1.9-0.9
						c0.8,0.3,1.2,1.2,0.9,1.9L550,174.8C549.7,175.4,549.2,175.8,548.6,175.8z"/>
				</g>
				<g>
					<path d="M508.5,317.3c-0.2,0-0.4,0-0.5-0.1c-0.8-0.3-1.2-1.2-0.9-1.9l1.1-3c0.3-0.8,1.2-1.2,1.9-0.9c0.8,0.3,1.2,1.2,0.9,1.9
						l-1.1,3C509.6,316.9,509.1,317.3,508.5,317.3z"/>
				</g>
				<g>
					<path d="M509.6,314.3c-0.2,0-0.4,0-0.5-0.1c-0.8-0.3-1.2-1.2-0.9-1.9l42.3-111.6c0.3-0.8,1.2-1.2,1.9-0.9
						c0.8,0.3,1.2,1.2,0.9,1.9L511,313.3C510.8,313.9,510.2,314.3,509.6,314.3z"/>
				</g>
				<g>
					<path d="M590.9,99.8c-0.2,0-0.4,0-0.5-0.1c-0.8-0.3-1.2-1.2-0.9-1.9l2.4-6.2c0.3-0.8,1.2-1.2,1.9-0.9c0.8,0.3,1.2,1.2,0.9,1.9
						l-2.4,6.2C592.1,99.4,591.5,99.8,590.9,99.8z"/>
				</g>
				<g>
					<path d="M593.2,93.6c-0.2,0-0.4,0-0.5-0.1c-0.8-0.3-1.2-1.2-0.9-1.9l5.2-13.8c0.3-0.8,1.2-1.2,1.9-0.9c0.8,0.3,1.2,1.2,0.9,1.9
						l-5.2,13.8C594.4,93.2,593.8,93.6,593.2,93.6z"/>
				</g>
				<g>
					<path d="M551.9,202.7c-0.2,0-0.4,0-0.5-0.1c-0.8-0.3-1.2-1.2-0.9-1.9l7.8-20.5c0.3-0.8,1.2-1.2,1.9-0.9
						c0.8,0.3,1.2,1.2,0.9,1.9l-7.8,20.5C553.1,202.3,552.5,202.7,551.9,202.7z"/>
				</g>
				<g>
					<path d="M559.7,182.2c-0.2,0-0.4,0-0.5-0.1c-0.8-0.3-1.2-1.2-0.9-1.9l31.2-82.4c0.3-0.8,1.2-1.2,1.9-0.9
						c0.8,0.3,1.2,1.2,0.9,1.9l-31.2,82.4C560.8,181.9,560.3,182.2,559.7,182.2z"/>
				</g>
				<g>
					<path d="M634.4,346.4C634.4,346.4,634.4,346.4,634.4,346.4l-38.9-1.3c-0.8,0-1.5-0.7-1.4-1.5c0-0.8,0.7-1.5,1.5-1.4l38.8,1.3
						c0.8,0,1.5,0.7,1.4,1.5C635.9,345.8,635.2,346.4,634.4,346.4z"/>
				</g>
				<g>
					<path d="M634.5,346.4c-0.8,0-1.5-0.7-1.5-1.5s0.6-1.5,1.5-1.5h0.1c0.8,0,1.5,0.7,1.5,1.5S635.3,346.4,634.5,346.4z"/>
				</g>
				<g>
					<path d="M540.1,343.3C540,343.3,540,343.3,540.1,343.3l-6.1-0.2c-0.8,0-1.5-0.7-1.4-1.5c0-0.8,0.7-1.5,1.5-1.4l6,0.2
						c0.8,0,1.5,0.7,1.4,1.5C541.5,342.6,540.9,343.3,540.1,343.3z"/>
				</g>
				<g>
					<path d="M534,343.1C534,343.1,534,343.1,534,343.1l-0.6,0c-0.8,0-1.5-0.7-1.4-1.6s0.7-1.5,1.6-1.4l0.6,0c0.8,0,1.5,0.7,1.4,1.6
						C535.5,342.4,534.8,343.1,534,343.1z"/>
				</g>
				<g>
					<path d="M595.6,345.1C595.6,345.1,595.5,345.1,595.6,345.1l-37.8-1.3c-0.8,0-1.5-0.7-1.4-1.5c0-0.8,0.7-1.5,1.5-1.4l37.7,1.2
						c0.8,0,1.5,0.7,1.4,1.5C597.1,344.5,596.4,345.1,595.6,345.1z"/>
				</g>
				<g>
					<path d="M557.9,343.9C557.9,343.9,557.8,343.9,557.9,343.9l-17.9-0.6c-0.8,0-1.5-0.7-1.4-1.5c0-0.8,0.7-1.5,1.5-1.4l17.8,0.6
						c0.8,0,1.5,0.7,1.4,1.5C559.4,343.2,558.7,343.9,557.9,343.9z"/>
				</g>
				<g>
					<path d="M524,348.2C524,348.2,524,348.2,524,348.2l-85.2-4.9c-0.8,0-1.5-0.8-1.4-1.6c0-0.8,0.8-1.4,1.6-1.4l85.1,4.9
						c0.8,0,1.5,0.8,1.4,1.6C525.5,347.6,524.8,348.2,524,348.2z"/>
				</g>
				<g>
					<path d="M551.9,202.7c-0.4,0-0.8-0.2-1.1-0.5c-1.5-1.7-3.1-3.4-5.1-4.8c-1.5-1.1-3.2-1.8-4.8-2.1c-0.8-0.1-1.4-0.9-1.2-1.7
						s0.9-1.4,1.7-1.2c2,0.4,4.1,1.2,6,2.5c2.2,1.5,4.1,3.5,5.7,5.2c0.5,0.6,0.5,1.6-0.1,2.1C552.6,202.6,552.2,202.7,551.9,202.7z"
						/>
				</g>
				<g>
					<path d="M559.7,182.2c-0.4,0-0.8-0.1-1.1-0.4c-2.9-2.9-6.5-5-10.4-6c-0.8-0.2-1.3-1-1.1-1.8c0.2-0.8,1-1.3,1.8-1.1
						c4.4,1.2,8.5,3.6,11.8,6.8c0.6,0.6,0.6,1.5,0,2.1C560.4,182.1,560,182.2,559.7,182.2z"/>
				</g>
				<g>
					<path d="M593.1,38.3c0,0-0.1,0-0.1,0c-1.2-0.1-2.5-0.1-3.9-0.1c-0.8,0-1.5-0.6-1.5-1.5c0-0.8,0.6-1.5,1.5-1.5
						c1.4,0,2.8,0,4.2,0.1c0.8,0.1,1.4,0.8,1.4,1.6C594.5,37.7,593.8,38.3,593.1,38.3z"/>
				</g>
				<g>
					<path d="M590.1,53.9c-1.1,0-2.1-0.4-3-0.7c-0.3-0.1-0.6-0.2-0.9-0.3c-0.8-0.2-1.2-1.1-1-1.9c0.2-0.8,1.1-1.2,1.9-1
						c0.3,0.1,0.7,0.2,1,0.4c0.7,0.3,1.4,0.5,2,0.5c1.1,0,2.3-1.1,2.5-2.5c0.1-0.5,0.1-1,0.1-1.5l0-0.5c0.1-1.8,0.4-3.7,1-5.5
						l0.1-0.3c0.2-0.5,0.3-1,0.4-1.5c0-0.4-0.1-0.6-0.2-0.7c-0.2-0.1-0.8-0.2-1-0.2c-0.8-0.1-1.4-0.7-1.4-1.5c0-0.8,0.6-1.5,1.5-1.5
						c0,0,0.2,0,0.2,0c0.9,0.1,1.9,0.3,2.7,0.9c0.9,0.8,1.3,1.9,1.2,3.2c-0.1,0.8-0.3,1.5-0.5,2.2l-0.1,0.2
						c-0.5,1.6-0.8,3.1-0.9,4.7l0,0.5c0,0.6,0,1.3-0.2,2C595,51.8,592.7,53.9,590.1,53.9z"/>
				</g>
				<g>
					<path d="M581.4,89.5c-0.6,0-1.2-0.4-1.4-1c0,0,0-0.1,0-0.1c-0.2-0.7,0.1-1.4,0.8-1.7c0.7-0.4,1.6-0.1,2,0.7
						c0.1,0.1,0.1,0.3,0.1,0.4c0.2,0.8-0.2,1.5-1,1.8C581.7,89.5,581.5,89.5,581.4,89.5z"/>
				</g>
				<g>
					<path d="M590.4,37.3l-2.7-1.2c0.1-0.2,0.2-0.5,0.4-0.8c1.2-1.7,3.1-2.2,4.8-2.4c0.8-0.1,1.6,0.5,1.7,1.3
						c0.1,0.8-0.5,1.6-1.3,1.7c-1.5,0.2-2.3,0.5-2.7,1.1C590.5,37.1,590.5,37.2,590.4,37.3z"/>
				</g>
				<g>
					<path d="M581.3,89.4c-0.7,0-1.3-0.5-1.5-1.2c-0.2-1-0.3-2-0.1-3c0.2-1.4,0.6-2.8,1.1-4.1c0.1-0.4,0.3-0.9,0.4-1.3
						c1-3.2,1.2-6.6,0.7-9.9c0-0.3-0.1-0.6-0.1-0.9c-0.3-1.7-0.6-3.7,0-5.6c0.3-1,0.8-1.7,1.3-2.5c0.3-0.5,0.7-1.1,0.9-1.6
						c0.4-0.9,0.5-2,0.6-3.2c0.2-1.6,0.3-3.2,0.5-4.8c0.1-0.8,0.9-1.4,1.7-1.3c0.8,0.1,1.4,0.8,1.3,1.7c-0.2,1.6-0.4,3.2-0.5,4.7
						c-0.1,1.3-0.3,2.7-0.8,4.1c-0.3,0.8-0.7,1.4-1.1,2c-0.4,0.6-0.8,1.2-1,1.8c-0.4,1.2-0.2,2.7,0.1,4.2c0.1,0.3,0.1,0.7,0.2,1
						c0.6,3.8,0.3,7.6-0.8,11.3c-0.1,0.5-0.3,0.9-0.5,1.4c-0.4,1.2-0.8,2.3-0.9,3.5c-0.1,0.6,0,1.3,0.1,1.9c0.2,0.8-0.3,1.6-1.1,1.8
						C581.5,89.4,581.4,89.4,581.3,89.4z"/>
				</g>
				<g>
					<path d="M593.1,35.9c-0.7,0-1.4-0.5-1.5-1.3c-0.1-0.8,0.5-1.6,1.3-1.7c0.2,0,0.4-0.1,0.7-0.1c0.8-0.1,1.6,0.5,1.6,1.3
						s-0.5,1.6-1.3,1.6c0,0,0,0,0,0c-0.2,0-0.4,0-0.5,0.1C593.2,35.9,593.2,35.9,593.1,35.9z"/>
				</g>
				<g>
					<path d="M586.6,53c-0.1,0-0.1,0-0.2,0c-0.8-0.1-1.4-0.8-1.3-1.7c0.5-4.4,1.2-8.8,2-13.2c0.1-0.6,0.3-1.3,0.5-2
						c0.3-0.8,1.2-1.1,2-0.8c0.8,0.3,1.1,1.2,0.8,2c-0.2,0.4-0.3,0.9-0.4,1.4c-0.8,4.3-1.4,8.7-2,13C588,52.4,587.4,53,586.6,53z"/>
				</g>
				<g>
					<path d="M590.9,99.8c-0.5,0-0.9-0.2-1.2-0.6c-0.7-1-1.7-1.7-2.8-2.1c-0.9-0.3-1.9-0.4-2.8-0.4c-2-0.1-3.8,0.1-5.3,0.7
						c-0.8,0.3-1.6-0.1-1.9-0.9c-0.3-0.8,0.1-1.6,0.9-1.9c1.9-0.7,4-0.9,6.4-0.8c1.1,0,2.4,0.1,3.6,0.6c1.6,0.5,3.1,1.7,4.2,3.1
						c0.5,0.7,0.3,1.6-0.3,2.1C591.5,99.7,591.2,99.8,590.9,99.8z"/>
				</g>
				<g>
					<path d="M581.3,89.4c-0.6,0-1.1-0.3-1.3-0.8c-0.4-0.7-0.1-1.6,0.7-2c0.2-0.1,0.5-0.2,0.7-0.2c0.8,0,1.5,0.7,1.5,1.5
						c0,0.7-0.5,1.4-1.2,1.5C581.5,89.4,581.4,89.4,581.3,89.4z"/>
				</g>
				<g>
					<path d="M593.2,93.6c-0.3,0-0.6-0.1-0.9-0.3c-2-1.5-4.3-3.1-6.7-3.7c-1.3-0.4-2.7-0.4-4-0.2c-0.8,0.2-1.6-0.4-1.8-1.2
						c-0.2-0.8,0.4-1.6,1.2-1.8c1.7-0.3,3.6-0.2,5.3,0.2c2.9,0.8,5.4,2.5,7.7,4.2c0.7,0.5,0.8,1.4,0.3,2.1
						C594.1,93.4,593.7,93.6,593.2,93.6z"/>
				</g>
				<g>
					<path d="M606.4,66.5c-0.6,0-1.2-0.4-1.4-1.1c-0.3-1-0.9-1.9-1.6-2.8c-0.7-0.9-1.3-1.9-1.8-3.1c-1.4-3.6,0.7-8.5,6.1-14.8
						c-0.5-0.1-0.9-0.2-1.4-0.4c-0.8-0.2-1.3-1-1.1-1.8c0.2-0.8,1-1.3,1.8-1.1c1.3,0.3,2.6,0.6,3.8,0.9c0.5,0.1,1,0.5,1.2,1
						c0.2,0.5,0,1.1-0.3,1.5c-5.6,6-8.3,10.9-7.2,13.6c0.3,0.9,0.9,1.6,1.5,2.5c0.8,1.1,1.5,2.2,2,3.6c0.2,0.8-0.2,1.6-1,1.9
						C606.7,66.5,606.5,66.5,606.4,66.5z"/>
				</g>
				<g>
					<path d="M602.2,82.9c-1.8,0-3.5-1.1-4.5-2.8c-0.2-0.3-0.4-0.7-0.6-1.2c-0.3-0.8,0.1-1.6,0.8-1.9c0.8-0.3,1.6,0.1,1.9,0.8
						c0.1,0.3,0.2,0.5,0.4,0.7c0.5,0.9,1.4,1.4,2.1,1.3c0.6-0.1,1.3-0.6,1.7-1.4c0.5-0.9,0.6-2,0.7-3.1l0.2-1.3
						c0.4-2.8,0.8-5.9,0.2-8.4l-0.1-0.3c-0.2-0.8,0.2-1.6,1-1.9c0.8-0.2,1.6,0.2,1.9,1l0,0.1c0,0.1,0.1,0.3,0.1,0.4
						c0.7,3,0.3,6.4-0.1,9.4l-0.2,1.2c-0.2,1.4-0.4,2.8-1.1,4.1c-0.9,1.7-2.4,2.8-4,3C602.5,82.9,602.3,82.9,602.2,82.9z"/>
				</g>
				<g>
					<path d="M598.5,79.9c-0.6,0-1.2-0.4-1.4-1c-0.4-1.2-0.6-2.4-0.8-3.5c-1-8.7-0.6-17.4,1.3-25.9l0.1-0.5c0.6-2.8,1.3-5.6,0.7-8.1
						c-0.1-0.6-0.4-1.2-0.7-1.8c-1.1-1.9-3.1-2.8-4.5-3.2c-0.8-0.2-1.3-1-1.1-1.8s1-1.3,1.8-1.1c2.9,0.8,5.1,2.4,6.4,4.6
						c0.5,0.8,0.8,1.7,1,2.6c0.7,3.1-0.1,6.4-0.7,9.4l-0.1,0.5c-1.8,8.2-2.2,16.5-1.3,24.9c0.1,0.9,0.3,2,0.6,2.8
						c0.3,0.8-0.1,1.6-0.9,1.9C598.8,79.8,598.6,79.9,598.5,79.9z"/>
				</g>
				<g>
					<path d="M606.7,44.4c-0.1,0-0.3,0-0.4-0.1c-0.7-0.2-1.6-0.5-2.5-0.8c-0.5-0.2-1.2-0.4-1.8-0.9c-0.6-0.6-1-1.3-1.2-2.2
						c0-0.2-0.1-0.5-0.1-0.7c-0.1-2.7,1.4-4.9,2.8-6.9c2.2-3,4.2-6.1,6.1-9.4c-3.1-0.6-6.7,0.5-9.3,2.9c-2.2,2-3.9,4.8-5,8.4
						c-0.2,0.8-1.1,1.2-1.9,1c-0.8-0.2-1.2-1.1-1-1.9c1.3-4.1,3.3-7.4,5.9-9.7c4-3.6,9.7-4.8,14.1-2.9c0.4,0.2,0.7,0.5,0.8,0.9
						s0.1,0.8-0.1,1.2c-2.2,4-4.6,7.8-7.2,11.3c-1.2,1.6-2.4,3.3-2.3,5c0,0.1,0,0.2,0,0.3c0,0.2,0.1,0.4,0.2,0.5
						c0.1,0.1,0.5,0.2,0.8,0.3c0.8,0.3,1.6,0.5,2.4,0.7c0.8,0.2,1.3,1,1,1.8C607.9,44,607.3,44.4,606.7,44.4z"/>
				</g>
				<g>
					<path d="M593.7,36c-0.1,0-0.3,0-0.5-0.1c-0.1,0-0.2,0-0.3-0.1l-0.2,0c-0.8-0.2-1.3-1-1.2-1.8c0.2-0.8,1-1.3,1.8-1.2l0.1,0
						c0.2,0,0.4,0.1,0.6,0.1c0.8,0.2,1.2,1.1,1,1.9C594.9,35.6,594.3,36,593.7,36z"/>
				</g>
				<g>
					<path d="M593.7,36c-0.1,0-0.3,0-0.4-0.1c-0.8-0.2-1.3-1-1-1.8l0-0.1c0.2-0.8,1.1-1.3,1.9-1.1c0.8,0.2,1.3,1,1,1.8l0,0.1
						C594.9,35.5,594.3,36,593.7,36z"/>
				</g>
				<g>
					<path d="M599.8,167c-0.2,0-0.4,0-0.6-0.1c-0.8-0.3-1.1-1.2-0.8-2c3.3-7.4,7.1-16.3,9.7-25.6c0.9-3.2,1.6-6.5,2.4-9.6l1.4-5.9
						c0.6-2.6,1.2-5.3,1.8-8c0.9-3.9,1.8-7.8,2.3-11.8c0.5-3.7,0.6-7.4,0.7-11.1l0-1.2c0.2-5.4,0.4-10.8,0.6-16.2l0-0.1
						c0.1-3.2,0.2-6.6-0.3-9.7c-0.3-1.8-0.8-3.6-1.5-5.3c-0.3-0.8-0.5-0.9-0.5-0.9l0,0c0,0-0.2,0-1,0.5c-2.4,1.6-4.6,3.7-6.4,6.2
						c-0.5,0.7-1.4,0.8-2.1,0.3c-0.7-0.5-0.8-1.4-0.3-2.1c2-2.7,4.4-5.1,7.1-6.9c0.9-0.6,2.2-1.3,3.7-0.8c1.5,0.5,2.1,2,2.3,2.6
						c0.8,1.9,1.4,4,1.7,6c0.6,3.5,0.5,7,0.3,10.3l0,0.1c-0.2,5.4-0.4,10.8-0.6,16.2l0,1.2c-0.1,3.7-0.3,7.6-0.8,11.4
						c-0.5,4.1-1.5,8.1-2.4,12.1c-0.6,2.7-1.2,5.3-1.8,8l-1.4,5.9c-0.7,3.2-1.5,6.5-2.4,9.8c-2.6,9.5-6.5,18.5-9.8,26.1
						C600.9,166.7,600.3,167,599.8,167z"/>
				</g>
				<g>
					<path d="M619,157.3c-0.2,0-0.5-0.1-0.7-0.2c-0.7-0.4-1-1.3-0.7-2c2.2-4.3,4-8.8,5.5-13.4c3.3-10.4,4.6-21.5,5.5-31.9
						c0.8-9.4,1.7-21.8,0.8-34.1c-0.3-4.3-0.8-8.6-1.4-13.4c-0.5-4.1-1-8.6-3.3-12.3c-3.4-5.6-11.3-8.1-17.6-5.7
						c-0.8,0.3-1.6-0.1-1.9-0.9c-0.3-0.8,0.1-1.6,0.9-1.9c7.8-3,17.1,0.1,21.3,7c2.5,4.2,3.1,9.1,3.7,13.5c0.6,4.8,1.1,9.2,1.4,13.6
						c0.9,12.5,0,25.1-0.8,34.6c-0.9,10.6-2.2,21.9-5.6,32.6c-1.5,4.7-3.4,9.4-5.7,13.8C620.1,157,619.6,157.3,619,157.3z"/>
				</g>
				<g>
					<path d="M582.1,209.5c-2.2,0-4.4-0.2-6.6-0.7c-0.8-0.2-1.3-1-1.2-1.8c0.2-0.8,1-1.3,1.8-1.2c5,1,10.2,0.8,15-0.8
						c0.8-0.2,1.6,0.2,1.9,1c0.2,0.8-0.2,1.6-1,1.9C588.7,209,585.4,209.5,582.1,209.5z"/>
				</g>
				<g>
					<path d="M575.7,208.8C575.7,208.8,575.7,208.8,575.7,208.8c-0.8,0-1.5-0.7-1.5-1.5c0.1-7.1,1.1-12.7,3.2-17.6
						c1.1-2.5,2.5-5,4.5-7.9c4.6-6.7,10.3-12.6,16.9-17.5c0.7-0.5,1.6-0.4,2.1,0.3c0.5,0.7,0.4,1.6-0.3,2.1
						c-6.4,4.7-11.8,10.4-16.3,16.8c-1.9,2.7-3.2,5.1-4.2,7.4c-2,4.6-2.9,9.8-3,16.5C577.2,208.2,576.5,208.8,575.7,208.8z"/>
				</g>
				<g>
					<path d="M614.9,209.8c-4.6,0-8.7-2.7-11.7-5.1c-5.1-4-8.3-8-9.8-12.2c-0.3-0.8,0.1-1.6,0.9-1.9c0.8-0.3,1.6,0.1,1.9,0.9
						c1.3,3.7,4.2,7.3,8.9,10.9c2.8,2.1,6.4,4.6,10.3,4.4c1.7-0.1,3.6-0.7,5.8-1.9c7.4-4.1,13-12.3,15-21.8
						c0.9-4.4,1.5-10.9-1.2-16.7c-2.4-5.3-7.5-9-12.5-9.3c-1-0.1-2,0-3,0.2c-0.8,0.1-1.6-0.4-1.7-1.2c-0.1-0.8,0.4-1.6,1.2-1.7
						c1.3-0.2,2.5-0.3,3.7-0.2c6.2,0.4,12.1,4.7,15.1,11c2.4,5.2,2.9,11.6,1.5,18.6c-2.2,10.4-8.3,19.3-16.5,23.9
						c-2.6,1.4-4.9,2.2-7.1,2.3C615.3,209.8,615.1,209.8,614.9,209.8z"/>
				</g>
				<g>
					<path d="M592.6,222.4c0,0-0.1,0-0.1,0c-0.8-0.1-1.4-0.8-1.4-1.6c0-0.4,0.1-0.8,0.1-1.1c0.2-4.2-0.2-8.4-1.1-12.5l0-0.2
						c-0.2-0.8,0.3-1.6,1.1-1.8c0.8-0.2,1.6,0.3,1.8,1.1l0,0.2c0,0,0,0.1,0,0.1c1,4.4,1.3,8.8,1.1,13.2c0,0.4,0,0.9-0.1,1.3
						C594,221.8,593.4,222.4,592.6,222.4z"/>
				</g>
				<g>
					<path d="M599.8,167c-0.5,0-0.9-0.2-1.2-0.6c-0.5-0.7-0.4-1.6,0.3-2.1c3.6-2.7,7.5-5,11.4-7c2.2-1.1,5.2-2.4,8.5-3
						c0.8-0.1,1.6,0.4,1.7,1.2c0.1,0.8-0.4,1.6-1.2,1.7c-2.2,0.4-4.6,1.2-7.6,2.7c-3.8,1.9-7.5,4.1-10.9,6.7
						C600.4,166.9,600.1,167,599.8,167z"/>
				</g>
				<g>
					<path d="M591.5,208c-0.7,0-1.3-0.5-1.5-1.2l-0.2-0.7c-0.5-2.3-1.1-4.8-0.8-7.2c0.1-0.8,0.8-1.4,1.7-1.3
						c0.8,0.1,1.4,0.8,1.3,1.7c-0.2,1.9,0.3,4.1,0.7,6.2l0.2,0.7c0.2,0.8-0.3,1.6-1.1,1.8C591.7,208,591.6,208,591.5,208z"/>
				</g>
				<g>
					<path d="M576.7,223.7c-0.7,0-1.3-0.5-1.5-1.2c-0.3-1.3-0.5-2.8-0.6-4.6c-0.2-3.1-0.5-6.9-0.4-10.6c0-0.8,0.7-1.5,1.5-1.5
						c0.8,0,1.5,0.7,1.5,1.5c0,3.6,0.2,7.2,0.4,10.3c0.1,1.6,0.3,3,0.5,4.2c0.2,0.8-0.4,1.6-1.2,1.8
						C576.9,223.7,576.8,223.7,576.7,223.7z"/>
				</g>
				<g>
					<path d="M584.6,231.9c-1.7,0-3.4-0.5-4.9-1.5c-2.3-1.6-3.8-4.2-4.5-7.9c-0.2-0.8,0.4-1.6,1.2-1.8c0.8-0.2,1.6,0.4,1.8,1.2
						c0.6,3,1.6,4.9,3.3,6c2.1,1.5,5.4,1.2,7.2-0.6c1.4-1.4,2.2-3.5,2.4-6.6c0.1-0.8,0.8-1.4,1.6-1.4c0.8,0.1,1.4,0.8,1.4,1.6
						c-0.3,3.8-1.4,6.6-3.3,8.5C589.1,231.1,586.9,231.9,584.6,231.9z"/>
				</g>
				<g>
					<path d="M596,192.8l-2.6-1.5c2-3.4,4.1-6.9,6.9-9.9c2.7-2.9,5.9-5.1,8.8-7c0.7-0.5,1.6-0.3,2.1,0.4c0.5,0.7,0.3,1.6-0.4,2.1
						c-2.7,1.8-5.8,3.9-8.2,6.5C599.9,186.2,598,189.5,596,192.8z"/>
				</g>
				<g>
					<path d="M590.6,200.6c-0.2,0-0.5-0.1-0.7-0.2c-0.7-0.4-1-1.3-0.6-2c0.2-0.4,0.5-0.9,0.7-1.3l1.2-2.1c0.7-1.2,1.4-2.4,2.2-3.7
						c0.4-0.7,1.3-1.1,2-0.7c0.7,0.4,1.1,1.2,0.7,2c0,0.1-0.1,0.2-0.1,0.3c-0.7,1.2-1.4,2.4-2.1,3.6l-1.2,2.1
						c-0.2,0.4-0.5,0.8-0.7,1.2C591.6,200.4,591.1,200.6,590.6,200.6z"/>
				</g>
				<g>
					<path d="M613.3,193.2c-1,0-2-0.1-2.9-0.4c-0.5-0.1-1.4-0.4-2-1.1c-0.9-0.9-1.1-2.2-1.2-2.9c-0.5-4.5,0-9.1,1.3-13.5
						c0.1-0.3,0.3-0.6,0.6-0.8c0.3-0.2,0.6-0.4,0.9-0.6c1.9-1.2,4.2-2.7,6.7-3.5c3-0.9,5.9-0.5,8,0.9c2.6,1.7,4,5.1,3.7,8.6
						c-0.3,2.7-1.7,5.5-4,8C621.3,191.2,617.1,193.2,613.3,193.2z M611.2,176.6c-1.1,3.9-1.4,7.9-1,11.8c0,0.3,0.1,0.9,0.3,1.1
						c0.1,0.1,0.2,0.2,0.7,0.3c4.3,1.2,8.6-1.5,11.1-4.1c1.3-1.4,2.9-3.7,3.2-6.3c0.3-2.3-0.7-4.6-2.3-5.7c-1.4-0.9-3.4-1.1-5.6-0.5
						c-2,0.6-3.7,1.7-5.8,3C611.5,176.4,611.4,176.5,611.2,176.6z"/>
				</g>
				<g>
					<path d="M607.6,227c-0.3,0-0.5-0.1-0.7-0.2c-1.4-0.8-2.8-1.5-4.2-2.1c-3.1-1.2-6.5-2-10.1-2.3c-0.8-0.1-1.4-0.8-1.4-1.6
						c0.1-0.8,0.8-1.4,1.6-1.4c3.9,0.4,7.6,1.2,11,2.5c1.5,0.6,3,1.3,4.6,2.2c0.7,0.4,1,1.3,0.5,2C608.6,226.7,608.1,227,607.6,227z
						"/>
				</g>
				<g>
					<path d="M535,281.2c-0.1,0-0.2,0-0.3,0c-0.8-0.1-1.4-0.9-1.2-1.7c0.4-2.2,0.8-4.4,1.2-6.5c1.2-6.6,2.6-14.1,6.4-20.6
						c3.3-5.7,8.2-9.8,13.6-11.5c0.8-0.2,1.6,0.2,1.9,1s-0.2,1.6-1,1.9c-4.7,1.4-9,5.1-11.9,10.1c-3.5,6-4.9,13.2-6.1,19.6
						c-0.4,2.2-0.8,4.3-1.2,6.5C536.4,280.6,535.7,281.2,535,281.2z"/>
				</g>
				<g>
					<path d="M577.7,320.4c-4.8,0-9.7-1-14.8-2.8c-5.9-2.2-9.8-5.1-11.8-9c-1.3-2.5-1.7-5.2-2.1-7.8c-2.3-17.4-1.4-34.8,2.7-51.9
						c0.7-2.7,1.3-5.1,2.1-7.1c0.3-0.8,1.1-1.2,1.9-0.9c0.8,0.3,1.2,1.1,0.9,1.9c-0.7,2-1.3,4.2-2,6.9c-4.1,16.7-5,33.8-2.7,50.8
						c0.3,2.3,0.7,4.8,1.8,6.8c1.6,3.1,5,5.6,10.2,7.5c6.2,2.3,12.1,3.1,17.6,2.4c3.1-0.4,5.7-1.2,7.8-2.5c3.7-2.3,6.6-6.5,8.6-12.8
						c3.1-9.3,3.7-19.5,4.4-29.3c0.9-13.1,1.8-26.7,8.3-38.4c1-1.7,1.9-3,2.8-4.1c0.6-0.6,1.5-0.7,2.1-0.1c0.6,0.6,0.7,1.5,0.1,2.1
						c-0.8,0.9-1.6,2.1-2.4,3.6c-6.2,11.1-7,23.7-7.9,37.1c-0.7,10-1.4,20.4-4.5,30c-2.3,7-5.5,11.7-9.9,14.4
						c-2.4,1.5-5.5,2.5-9,2.9C580.5,320.3,579.1,320.4,577.7,320.4z"/>
				</g>
				<g>
					<path d="M614.6,232.6c-0.4,0-0.8-0.2-1.1-0.5c-1.9-2.1-4.1-3.8-6.7-5.3c-0.7-0.4-1-1.3-0.5-2.1c0.4-0.7,1.3-1,2.1-0.5
						c2.8,1.6,5.3,3.6,7.4,5.9c0.6,0.6,0.5,1.6-0.1,2.1C615.3,232.4,615,232.6,614.6,232.6z"/>
				</g>
				<g>
					<path d="M585.7,352.6c-0.6,0-1.1-0.1-1.5-0.1l-22-2.4c-0.8-0.1-2.4-0.2-3.4-1.4c-0.8-0.9-0.9-2-0.9-2.9c0-0.3,0-0.6-0.1-0.8
						c-0.1-0.6-0.4-1-0.8-1.5c-0.6-0.6-0.6-1.5-0.1-2.1c0.6-0.6,1.5-0.6,2.1-0.1c0.9,0.9,1.5,1.9,1.7,3c0.1,0.4,0.1,0.8,0.2,1.2
						c0,0.5,0.1,1,0.2,1.2c0.2,0.3,1.1,0.3,1.4,0.4l22,2.4c0.9,0.1,1.7,0.2,2.2-0.1c0.5-0.2,1-0.9,1.5-1.6c0.1-0.2,0.3-0.4,0.4-0.5
						c1.5-1.9,3.5-3.5,6.2-5c0.7-0.4,1.6-0.1,2,0.6c0.4,0.7,0.1,1.6-0.6,2c-2.4,1.3-4.1,2.7-5.3,4.3c-0.1,0.2-0.2,0.3-0.4,0.5
						c-0.7,0.9-1.4,1.9-2.7,2.5C587.2,352.5,586.4,352.6,585.7,352.6z"/>
				</g>
				<g>
					<path d="M533.9,311.7c-0.7,0-1.3-0.5-1.5-1.2c-0.3-1.4-0.6-2.9-0.7-4.5c-0.1-0.8,0.5-1.6,1.3-1.6c0.8-0.1,1.6,0.5,1.6,1.3
						c0.2,1.5,0.4,2.8,0.7,4.1c0.2,0.8-0.3,1.6-1.1,1.8C534.1,311.7,534,311.7,533.9,311.7z"/>
				</g>
				<g>
					<path d="M555.2,243.8c-0.2,0-0.3,0-0.5-0.1c-0.8-0.3-1.2-1.1-0.9-1.9c1.7-4.9,3.9-8.8,6.6-11.8c1.4-1.6,3-3,4.8-4.2
						c0.7-0.5,1.6-0.3,2.1,0.4c0.5,0.7,0.3,1.6-0.4,2.1c-1.6,1.1-3,2.3-4.2,3.7c-2.4,2.7-4.4,6.2-6,10.8
						C556.4,243.4,555.8,243.8,555.2,243.8z"/>
				</g>
				<g>
					<path d="M595.6,345.1c-0.5,0-1-0.3-1.3-0.8c-0.4-0.7-0.1-1.6,0.6-2c1.7-0.9,3.5-1.7,5.2-2.5c2.1-0.9,4.3-1.9,6.3-3.1
						c5.7-3.5,10.2-9.8,12.6-17.8c2.3-7.3,2.7-15.2,2.9-22.7c0.2-5.6,0.2-11.4,0.2-17.4c0-0.8,0.7-1.5,1.5-1.5
						c0.8,0,1.5,0.7,1.5,1.5c0.1,6,0,11.9-0.2,17.5c-0.2,7.7-0.6,15.8-3,23.5c-2.7,8.6-7.6,15.5-13.9,19.4c-2.1,1.3-4.4,2.3-6.6,3.3
						c-1.7,0.8-3.4,1.5-5,2.4C596.1,345,595.8,345.1,595.6,345.1z"/>
				</g>
				<g>
					<path d="M557.9,343.9c-0.4,0-0.7-0.1-1-0.4c-1-0.9-2.6-1.6-4.1-2.2c-0.6-0.2-1.1-0.4-1.7-0.7c-7.4-3.3-11.3-11.1-14.6-18.8
						c-1.5-3.4-2.9-6.8-3.8-10.4l-0.2-0.9c-0.2-0.8,0.3-1.6,1.1-1.8c0.8-0.2,1.6,0.3,1.8,1.1l0.2,0.8c0.8,3.3,2.2,6.6,3.6,9.8
						c3.3,7.5,6.7,14.5,13.1,17.3c0.5,0.2,1,0.4,1.6,0.6c1.8,0.7,3.7,1.5,5.1,2.8c0.6,0.6,0.6,1.5,0,2.1
						C558.7,343.7,558.3,343.9,557.9,343.9z"/>
				</g>
				<g>
					<path d="M566,228.5c-0.5,0-0.9-0.2-1.2-0.6c-0.5-0.7-0.3-1.6,0.4-2.1c3.2-2.2,6.9-3.9,11.2-5c0.8-0.2,1.6,0.3,1.8,1.1
						c0.2,0.8-0.3,1.6-1.1,1.8c-3.9,1-7.3,2.6-10.2,4.6C566.6,228.4,566.3,228.5,566,228.5z"/>
				</g>
				<g>
					<path d="M623.5,280.3c-0.8,0-1.5-0.7-1.5-1.5c0-4.5-0.1-8.7-0.3-12.8c0-0.8,0.6-1.5,1.4-1.6c0.8,0,1.5,0.6,1.6,1.4
						c0.1,4.1,0.2,8.3,0.3,12.9C625,279.6,624.4,280.3,623.5,280.3C623.5,280.3,623.5,280.3,623.5,280.3z"/>
				</g>
				<g>
					<path d="M623.3,267.5c-0.8,0-1.5-0.6-1.5-1.4c-0.1-2.9-0.2-5.8-0.4-8.8c-0.2-3.5-0.5-7.5-1.2-11.4c-0.2-0.8,0.4-1.6,1.2-1.8
						c0.8-0.2,1.6,0.4,1.8,1.2c0.8,4,1.1,8.2,1.3,11.8c0.2,2.9,0.3,5.9,0.4,8.8C624.8,266.8,624.2,267.5,623.3,267.5
						C623.3,267.5,623.3,267.5,623.3,267.5z"/>
				</g>
				<g>
					<path d="M621.7,247.1c-0.7,0-1.3-0.5-1.5-1.2c-0.6-3.3-1.6-6.1-2.9-8.5c-1-1.9-2.3-3.7-3.8-5.3c-0.6-0.6-0.5-1.6,0.1-2.1
						c0.6-0.6,1.6-0.5,2.1,0.1c1.7,1.8,3.1,3.8,4.3,6c1.4,2.7,2.5,5.7,3.2,9.3c0.2,0.8-0.4,1.6-1.2,1.8
						C621.8,247.1,621.7,247.1,621.7,247.1z"/>
				</g>
				<g>
					<path d="M533.2,307.4c-0.8,0-1.4-0.6-1.5-1.3c-0.2-2-0.3-4-0.3-6.3c0-7.4,1.2-14.8,2.1-20.4c0.1-0.8,0.9-1.4,1.7-1.2
						c0.8,0.1,1.4,0.9,1.2,1.7c-1,5.5-2,12.7-2.1,19.9c0,2.1,0.1,4.1,0.3,5.9c0.1,0.8-0.5,1.6-1.3,1.6
						C533.3,307.4,533.3,307.4,533.2,307.4z"/>
				</g>
				<g>
					<path d="M585.1,333.4c-1.6,0-3.2-0.1-4.8-0.2c-4-0.2-7.8-0.5-11.5-0.7c-3.9-0.3-7.4-0.6-10.8-1.9c-6-2.3-11.2-7.6-14.2-14.6
						c-2.5-5.9-3.5-12.1-4.2-19.7c-0.4-4.8-0.8-10.3,0.3-15.6l-4.9,0.5c-0.8,0.1-1.6-0.5-1.6-1.4c-0.1-0.8,0.5-1.6,1.4-1.6l7-0.7
						c0.5,0,1,0.2,1.3,0.5c0.3,0.4,0.4,0.9,0.3,1.4c-1.5,5.4-1.2,11.2-0.7,16.6c0.6,7.3,1.6,13.3,3.9,18.8c2.7,6.3,7.3,11,12.5,13
						c3,1.1,6.3,1.4,10,1.7c3.7,0.3,7.4,0.5,11.4,0.7c5.4,0.3,10.2,0.4,14.4-1.6c2.6-1.2,5-3.2,7.4-6.1c4.6-5.6,7.8-12.9,9.6-21.7
						c1.6-7.9,1.9-16.3,2.2-24.3c0-0.5,0.2-0.9,0.6-1.2c0.4-0.3,0.8-0.4,1.3-0.2c2.1,0.6,4.2,1.2,6.4,1.7l1.6,0.4
						c0.8,0.2,1.3,1,1.1,1.8c-0.2,0.8-1,1.3-1.8,1.1l-1.6-0.4c-1.5-0.4-3-0.8-4.6-1.2c-0.3,7.6-0.7,15.4-2.2,22.9
						c-1.9,9.3-5.3,17.1-10.2,23c-2.7,3.3-5.4,5.5-8.4,6.9C592.7,333,589,333.4,585.1,333.4z"/>
				</g>
				<g>
					<path d="M573.3,314.2c-0.4,0-0.9,0-1.3-0.1c-5.9-0.5-11.2-4.3-13.2-9.5c-1.1-2.9-1.2-6-1.2-8.1c0.1-7,2.1-12.9,5.6-17
						c3.7-4.2,11.8-5.9,17.3-5.1c0.2,0,0.3,0.1,0.5,0.2c4.6,2.5,8.2,6.6,10,11.3c2.4,6.3,1.6,13.7-2,19.4
						C585.5,310.7,579.4,314.2,573.3,314.2z M577.7,277.1c-4.7,0-10,1.8-12.2,4.3c-3.9,4.5-4.8,10.7-4.9,15.1c-0.1,2.9,0.2,5.2,1,7
						c1.6,4.2,5.9,7.3,10.6,7.6c5.4,0.4,11.1-2.6,14.3-7.6c3.1-4.9,3.8-11.3,1.7-16.7c-1.5-4-4.6-7.5-8.4-9.6
						C579.2,277.1,578.5,277.1,577.7,277.1z"/>
				</g>
				<g>
					<path d="M564.9,234.3c-0.1,0-0.1,0-0.2,0c-0.8-0.1-1.4-0.8-1.3-1.7c0.2-2,0.6-4,1.1-6c0.2-0.8,1-1.3,1.8-1c0.8,0.2,1.3,1,1,1.8
						c-0.5,1.8-0.9,3.7-1.1,5.5C566.3,233.7,565.6,234.3,564.9,234.3z"/>
				</g>
				<g>
					<path d="M580.3,257.3c-1.4,0-2.8-0.2-4.1-0.4c-2.4-0.4-4.8-0.9-6.9-2.4c-3-2.2-4.2-5.8-4.9-8.3c-1.2-4.4-1.5-9-1-13.7
						c0.1-0.8,0.8-1.4,1.7-1.3c0.8,0.1,1.4,0.8,1.3,1.7c-0.5,4.3-0.2,8.5,0.9,12.6c0.9,3.3,2.1,5.4,3.8,6.6c1.5,1.1,3.6,1.5,5.6,1.8
						c2.6,0.4,5.6,0.6,8-0.5c2.5-1.2,4.3-3.7,5.9-6l0.5-0.7c3.9-5.6,7.7-11.2,11.6-16.8c0.5-0.7,1.4-0.8,2.1-0.4
						c0.7,0.5,0.8,1.4,0.4,2.1c-3.9,5.6-7.7,11.2-11.6,16.8l-0.5,0.7c-1.7,2.5-3.8,5.5-7.1,7C584.1,257,582.2,257.3,580.3,257.3z"/>
				</g>
				<g>
					<path d="M603.9,232.3c-0.3,0-0.6-0.1-0.9-0.3c-0.7-0.5-0.8-1.4-0.4-2.1c0.9-1.4,1.9-2.7,2.8-4.1l0.9-1.3
						c0.5-0.7,1.4-0.9,2.1-0.4c0.7,0.5,0.9,1.4,0.4,2.1l-0.9,1.3c-0.9,1.4-1.9,2.7-2.8,4.1C604.8,232.1,604.4,232.3,603.9,232.3z"/>
				</g>
				<g>
					<path d="M580.5,236.9c-5.2,0-10.7-0.8-16.1-2.7c-0.8-0.3-1.2-1.1-0.9-1.9c0.3-0.8,1.1-1.2,1.9-0.9c13.9,5,28.3,1.7,38-2
						c0.8-0.3,1.6,0.1,1.9,0.9c0.3,0.8-0.1,1.6-0.9,1.9C598,234.6,589.6,236.9,580.5,236.9z"/>
				</g>
				<g>
					<path d="M540.1,343.3c-0.3,0-0.5-0.1-0.8-0.2c-2.7-1.7-4.9-4.5-6.1-8.1c-1.3-3.5-1.5-7.3-1.8-10.9l0-0.2
						c-0.2-2.2-0.3-4.4-0.1-6.7c0.2-2.1,0.6-4.2,1-6.2l0.2-1.1c0.2-0.8,1-1.3,1.8-1.2c0.8,0.2,1.3,1,1.2,1.8l-0.2,1.1
						c-0.4,2-0.8,3.9-1,5.8c-0.2,2.1,0,4.1,0.1,6.3l0,0.2c0.3,3.4,0.5,6.9,1.7,10.1c1,2.9,2.8,5.2,4.9,6.5c0.7,0.4,0.9,1.4,0.5,2.1
						C541,343,540.5,343.3,540.1,343.3z"/>
				</g>
				<g>
					<path d="M634.5,346.4c-0.5,0-1-0.3-1.3-0.7c-0.4-0.7-0.2-1.6,0.5-2.1c1.8-1,3.5-2.3,5.1-3.7c0.6-0.5,1.6-0.5,2.1,0.1
						c0.5,0.6,0.5,1.6-0.1,2.1c-1.7,1.5-3.6,2.9-5.5,4C635,346.3,634.7,346.4,634.5,346.4z"/>
				</g>
				<g>
					<path d="M639.8,342.5c-0.4,0-0.8-0.2-1.1-0.5c-0.5-0.6-0.5-1.6,0.1-2.1c4.4-3.9,7.3-8.6,8.6-13.6c1.4-5.5,0.5-11.6-2.3-16.6
						c-0.4-0.7-0.2-1.6,0.6-2c0.7-0.4,1.6-0.2,2,0.6c3.2,5.6,4.2,12.6,2.6,18.8c-1.4,5.6-4.7,10.9-9.5,15.1
						C640.5,342.4,640.1,342.5,639.8,342.5z"/>
				</g>
				<g>
					<path d="M638,288C638,288,638,288,638,288c-0.9,0-1.5-0.7-1.5-1.5c0.1-3.3,0-6.7-0.2-10.2c-0.1-0.8,0.6-1.5,1.4-1.6
						c0.8-0.1,1.5,0.6,1.6,1.4c0.3,3.5,0.3,7.1,0.2,10.5C639.5,287.4,638.8,288,638,288z"/>
				</g>
				<g>
					<path d="M637.8,277.7c-0.8,0-1.4-0.6-1.5-1.4c-0.4-5.5-1.3-10.9-2.6-16c-0.9-3.5-1.8-6.2-3.7-8.4c-0.3-0.3-0.6-0.6-0.9-0.9
						l2.1-2.2l-1,1.1l1-1.1c0.4,0.4,0.8,0.7,1.1,1.2c2.4,2.7,3.5,6.2,4.3,9.6c1.3,5.3,2.2,10.9,2.6,16.5c0.1,0.8-0.6,1.5-1.4,1.6
						C637.9,277.7,637.8,277.7,637.8,277.7z"/>
				</g>
				<g>
					<path d="M634.4,346.4c-0.4,0-0.8-0.2-1.1-0.5c-0.6-0.6-0.5-1.5,0.1-2.1c0,0,0.1-0.1,0.2-0.1c0.6-0.5,1.4-0.4,2,0.1
						c0.6,0.6,0.6,1.5,0,2.1c-0.1,0.1-0.1,0.1-0.2,0.2C635.1,346.3,634.7,346.4,634.4,346.4z"/>
				</g>
				<g>
					<path d="M630.1,251.4c-0.4,0-0.7-0.1-1-0.4c-1.8-1.6-4.3-2.9-7.9-3.9c-0.8-0.2-1.3-1.1-1-1.9s1.1-1.3,1.9-1
						c2.5,0.7,6.2,2,9.1,4.6c0.6,0.6,0.7,1.5,0.1,2.1C630.9,251.2,630.5,251.4,630.1,251.4z"/>
				</g>
				<g>
					<path d="M646.4,310.5c-0.5,0-1-0.3-1.3-0.8c-1.1-1.9-2.4-3.5-3.9-4.9c-0.6-0.6-0.7-1.5-0.1-2.1c0.6-0.6,1.5-0.7,2.1-0.1
						c1.8,1.6,3.3,3.5,4.5,5.6c0.4,0.7,0.2,1.6-0.6,2C646.9,310.4,646.6,310.5,646.4,310.5z"/>
				</g>
				<g>
					<path d="M642.2,305.2c-0.4,0-0.7-0.1-1-0.4c-0.9-0.8-1.8-1.5-2.8-2l-0.1-0.1c-1-0.6-2.3-1.3-2.7-2.9c-0.2-0.8-0.1-1.5,0-2
						c0.6-3.8,0.9-7.6,1-11.4c0-0.8,0.7-1.5,1.5-1.5c0.8,0,1.5,0.7,1.5,1.5c-0.1,3.9-0.5,7.9-1,11.7c0,0.3-0.1,0.7-0.1,0.8
						c0.1,0.3,0.8,0.7,1.3,1.1l0.1,0.1c1.1,0.6,2.2,1.5,3.3,2.4c0.6,0.5,0.7,1.5,0.1,2.1C643,305,642.6,305.2,642.2,305.2z"/>
				</g>
				<g>
					<path d="M639.8,342.5c-0.7,0-1.3-0.5-1.5-1.2c-2.3-11.2-1.7-20.1,1.8-27.2c1.5-3,3.3-5.2,5.5-6.4c0.7-0.4,1.6-0.2,2,0.5
						c0.4,0.7,0.2,1.6-0.5,2c-1.6,0.9-3.1,2.7-4.3,5.1c-3.2,6.6-3.7,14.8-1.6,25.3c0.2,0.8-0.4,1.6-1.2,1.8
						C640,342.5,639.9,342.5,639.8,342.5z"/>
				</g>
				<g>
					<path d="M634.5,346.4c-0.6,0-1.2-0.4-1.4-1c-3.9-12-2.9-25.2,2.8-36.3c1.6-3.2,3.4-5.3,5.6-6.6c0.7-0.4,1.6-0.2,2,0.5
						c0.4,0.7,0.2,1.6-0.5,2c-1.6,0.9-3,2.7-4.4,5.3c-5.3,10.4-6.3,22.8-2.7,34.1c0.3,0.8-0.2,1.6-1,1.9
						C634.8,346.3,634.6,346.4,634.5,346.4z"/>
				</g>
				<g>
					<path d="M634.5,346.4c-0.7,0-1.2-0.4-1.4-1c-0.2-0.5-0.1-1.1,0.3-1.5c0.6-0.6,1.5-0.6,2.1-0.1c0.3,0.3,0.5,0.7,0.5,1.1
						C636,345.7,635.3,346.4,634.5,346.4z"/>
				</g>
				<g>
					<path d="M637.8,277.7c-0.4,0-0.8-0.1-1.1-0.4c-7.1-7-10.3-17.9-8.1-27.7c0.2-0.8,1-1.3,1.8-1.1c0.8,0.2,1.3,1,1.1,1.8
						c-2,8.8,0.9,18.6,7.2,24.9c0.6,0.6,0.6,1.5,0,2.1C638.6,277.5,638.2,277.7,637.8,277.7z"/>
				</g>
				<g>
					<path d="M638,288c-0.2,0-0.4,0-0.6-0.1c-2.5-1-4.8-2.9-6.8-5.3c-2.1-2.7-3.7-5.8-5.1-8.6c-0.9-1.8-1.8-3.7-2.7-5.5l-0.9-1.8
						c-0.4-0.7-0.1-1.6,0.7-2s1.6-0.1,2,0.7l0.9,1.8c0.9,1.8,1.8,3.7,2.7,5.5c1.4,2.8,2.8,5.6,4.7,8.1c1.7,2.1,3.6,3.6,5.6,4.4
						c0.8,0.3,1.1,1.2,0.8,2C639.1,287.7,638.6,288,638,288z"/>
				</g>
				<g>
					<path d="M534,343.1c-0.2,0-0.5-0.1-0.7-0.2c-0.5-0.3-0.9-0.6-1.5-1c-0.6-0.5-0.7-1.5-0.2-2.1c0.5-0.6,1.5-0.7,2.1-0.2
						c0.4,0.3,0.8,0.6,1.1,0.7c0.7,0.4,1,1.3,0.6,2C535,342.8,534.5,343.1,534,343.1z"/>
				</g>
				<g>
					<path d="M526.8,331.7l1.5-0.2L526.8,331.7c-0.1-0.6-0.2-1.1-0.2-1.6c-0.5-3.6-0.8-7.2-0.9-10.9c-0.1-3.1,0.1-6.4,1.4-9.4
						c1.2-2.5,3.2-4.5,5.5-5.3c0.8-0.3,1.6,0.1,1.9,0.9c0.3,0.8-0.1,1.6-0.9,1.9c-1.6,0.6-3,2-3.8,3.7c-1.1,2.5-1.2,5.5-1.1,8.1
						c0.1,3.6,0.4,7.1,0.8,10.6c0.1,0.5,0.1,1,0.2,1.5l-1.5,0.3L526.8,331.7z"/>
				</g>
				<g>
					<path d="M532.7,342.2c-0.3,0-0.7-0.1-1-0.3c-1.1-0.9-2-2-2.7-3.2c-1.3-2.3-1.9-4.9-2.2-6.9c-0.1-0.8,0.4-1.6,1.2-1.7
						c0.8-0.1,1.6,0.4,1.7,1.2c0.3,1.7,0.8,3.9,1.9,5.9c0.5,0.9,1.2,1.7,2,2.4c0.6,0.5,0.7,1.5,0.2,2.1
						C533.6,342,533.2,342.2,532.7,342.2z"/>
				</g>
				<g>
					<path d="M506,319.9c-0.2,0-0.5-0.1-0.7-0.2c0,0-0.2-0.1-0.2-0.1c-1.5-0.8-3.4-0.8-5.3-0.8c-3.4,0-6.9,0.1-10.6,0.3
						c-0.8,0-1.5-0.6-1.6-1.4c0-0.8,0.6-1.5,1.4-1.6c4-0.2,7.6-0.3,11.2-0.3c2.1,0,4.3,0.1,6.3,1.1c0,0,0.1,0.1,0.2,0.1
						c0.7,0.4,1,1.3,0.6,2C507,319.6,506.5,319.9,506,319.9z"/>
				</g>
				<g>
					<path d="M438.9,343.3c-0.7,0-1.3-0.4-1.5-1.1c-1.2-4.5-0.3-8.8,2.3-11.5c3-3.1,7.6-3.6,12-3.8l12.9-0.5
						c1.4-0.1,2.7-0.2,3.5-0.8c0.7-0.5,1.2-1.4,1.7-2.3c0.3-0.6,0.7-1.3,1.1-1.9c2.6-3.5,7.2-4.4,11.5-4.8c2.1-0.2,4.3-0.3,6.6-0.5
						c0.8-0.1,1.5,0.6,1.6,1.4c0,0.8-0.6,1.5-1.4,1.6c-2.3,0.1-4.4,0.3-6.5,0.5c-3.7,0.3-7.4,1-9.3,3.5c-0.3,0.5-0.6,1-0.9,1.6
						c-0.6,1.1-1.3,2.4-2.6,3.4c-1.6,1.2-3.7,1.3-5.2,1.3l-12.9,0.5c-3.9,0.2-7.7,0.5-9.9,2.8c-1.9,1.9-2.4,5.2-1.5,8.6
						c0.2,0.8-0.3,1.6-1.1,1.8C439.2,343.3,439,343.3,438.9,343.3z"/>
				</g>
				<g>
					<path d="M528.3,333c0,0-0.1,0-0.1,0l-6.1-0.4c-0.8-0.1-1.5-0.8-1.4-1.6c0.1-0.8,0.8-1.4,1.6-1.4l6.1,0.4
						c0.8,0.1,1.4,0.8,1.4,1.6C529.8,332.4,529.1,333,528.3,333z"/>
				</g>
				<g>
					<path d="M509.8,328.8c-0.8,0-1.5-0.6-1.5-1.4c-0.1-4-1.2-6.5-3.2-7.7c-0.7-0.4-1-1.3-0.5-2.1c0.4-0.7,1.3-1,2.1-0.5
						c2.9,1.7,4.5,5,4.6,10.2C511.4,328.1,510.7,328.8,509.8,328.8C509.9,328.8,509.9,328.8,509.8,328.8z"/>
				</g>
				<g>
					<path d="M522.3,332.6c0,0-0.1,0-0.1,0l-12.4-0.9c-0.8-0.1-1.4-0.7-1.4-1.6c0-1,0-1.9,0-2.7c0-0.8,0.6-1.5,1.4-1.6
						c0.8-0.1,1.5,0.6,1.6,1.4c0,0.5,0,1,0,1.5l11,0.8c0.8,0.1,1.4,0.8,1.4,1.6C523.7,332,523,332.6,522.3,332.6z"/>
				</g>
				<g>
					<path d="M524,348.2c-0.5,0-1.1-0.3-1.3-0.8c-0.4-0.7-0.1-1.6,0.6-2c1.2-0.6,2.5-1.3,3.7-1.9c1.2-0.6,2.4-1.2,3.2-2
						c0.5-0.4,0.8-0.9,1.1-1.4c0.4-0.7,1.3-1.1,2-0.7c0.7,0.4,1.1,1.3,0.7,2c-0.4,0.8-1,1.6-1.7,2.3c-1.2,1.1-2.6,1.8-3.9,2.5
						c-1.3,0.6-2.5,1.3-3.7,1.9C524.5,348.2,524.3,348.2,524,348.2z"/>
				</g>
				<g>
					<path d="M522.3,332.6c-0.7,0-1.3-0.5-1.5-1.1c-0.4-1.6-0.6-3.3-0.7-4.9l0-0.2c0-0.3,0-0.7-0.1-0.9c-0.2-0.4-0.9-0.6-1.7-0.6
						c-2.3-0.1-4.6,1.1-7.5,3.6c-0.6,0.5-1.6,0.5-2.1-0.1c-0.5-0.6-0.5-1.6,0.1-2.1c2.3-2.1,5.5-4.4,9.5-4.4c2.1,0,3.8,1,4.4,2.5
						c0.3,0.7,0.3,1.4,0.3,1.9l0,0.1c0.1,1.4,0.3,2.9,0.6,4.3c0.2,0.8-0.3,1.6-1.1,1.8C522.5,332.6,522.4,332.6,522.3,332.6z"/>
				</g>
				<g>
					<path d="M505.9,319.9c-0.4,0-0.7-0.1-1-0.4c-0.6-0.6-0.6-1.5,0-2.1l2.5-2.6c0.6-0.6,1.5-0.6,2.1,0c0.6,0.6,0.6,1.5,0,2.1
						l-2.5,2.6C506.7,319.8,506.3,319.9,505.9,319.9z"/>
				</g>
				<g>
					<path d="M489.1,319.1c-0.4,0-0.8-0.2-1.1-0.4c-0.6-0.6-0.6-1.5,0-2.1c2.5-2.4,4.6-5.3,6.2-8.4c0.4-0.7,1.3-1,2-0.6
						c0.7,0.4,1,1.3,0.6,2c-1.8,3.4-4.1,6.5-6.8,9.1C489.8,319,489.5,319.1,489.1,319.1z"/>
				</g>
				<g>
					<path d="M502,292.1c-0.2,0-0.4,0-0.6-0.1c-0.8-0.3-1.1-1.2-0.8-2c0.8-2,1.8-4.2,2.9-6.3c0.4-0.7,1.3-1,2-0.6
						c0.7,0.4,1,1.3,0.6,2c-1.1,2-2,4-2.8,6C503.1,291.7,502.5,292.1,502,292.1z"/>
				</g>
				<g>
					<path d="M495.6,310.4c-0.2,0-0.5-0.1-0.7-0.2c-0.7-0.4-1-1.3-0.6-2c0.6-1.2,1.1-2.3,1.5-3.3c0.4-1,0.7-1.9,1-3
						c0.2-0.8,1.1-1.2,1.9-1c0.8,0.2,1.2,1.1,1,1.9c-0.3,1-0.7,2.2-1.1,3.2c-0.4,1.1-1,2.3-1.7,3.6
						C496.7,310.1,496.1,310.4,495.6,310.4z"/>
				</g>
				<g>
					<path d="M504.8,286c-0.2,0-0.5-0.1-0.7-0.2c-0.7-0.4-1-1.3-0.6-2c1.4-2.7,3.1-5.5,5.1-8.5c0.5-0.7,1.4-0.9,2.1-0.4
						c0.7,0.5,0.9,1.4,0.4,2.1c-2,2.9-3.6,5.6-5,8.2C505.9,285.7,505.4,286,504.8,286z"/>
				</g>
				<g>
					<path d="M516.3,294.6c-0.8,0-1.4-0.6-1.5-1.4c-0.1-1.2-0.9-2.5-2-3.6c-1.1-1-2.5-1.7-4.2-2.5c-1.1-0.5-2.6-1.1-4-1.3
						c-0.8-0.1-1.4-0.9-1.3-1.7c0.1-0.8,0.9-1.4,1.7-1.3c1.8,0.2,3.5,1,4.8,1.6c1.6,0.7,3.4,1.6,4.9,3c1.8,1.6,2.9,3.5,3,5.5
						c0.1,0.8-0.5,1.6-1.3,1.6C516.4,294.6,516.4,294.6,516.3,294.6z"/>
				</g>
				<g>
					<path d="M509.6,314.3c-0.3,0-0.6-0.1-0.9-0.3c-3.7-2.7-8.4-4-13-3.6c-0.8,0.1-1.5-0.5-1.6-1.4c-0.1-0.8,0.5-1.5,1.4-1.6
						c5.3-0.4,10.7,1.1,15,4.2c0.7,0.5,0.8,1.4,0.3,2.1C510.5,314.1,510.1,314.3,509.6,314.3z"/>
				</g>
				<g>
					<path d="M498.3,303.7c-0.2,0-0.4,0-0.6-0.1c-0.9-0.4-1.5-0.9-2-1.6c-0.9-1.5-0.7-3.2-0.5-4.3c0.4-1.9,1-3.7,1.8-5.4
						c0.4-0.8,0.9-1.6,1.7-2.3c0.9-0.6,1.9-0.9,3.2-0.9c0.8,0,1.5,0.7,1.5,1.5s-0.7,1.5-1.5,1.5c-0.6,0-1.1,0.1-1.4,0.3
						c-0.3,0.2-0.6,0.7-0.8,1.2c-0.7,1.4-1.2,3-1.6,4.6c-0.2,1-0.2,1.8,0.1,2.2c0.1,0.2,0.4,0.4,0.7,0.5c0.8,0.3,1.1,1.2,0.7,2
						C499.4,303.4,498.8,303.7,498.3,303.7z"/>
				</g>
				<g>
					<path d="M507.1,293c-0.1,0-0.2,0-0.4,0c-1.3-0.3-2.8-0.6-3.7-0.8c-0.3,0-0.7-0.1-1.1-0.1c-0.8,0-1.5-0.7-1.5-1.5
						s0.7-1.5,1.5-1.5c0.6,0,1.1,0.1,1.5,0.1c1.1,0.1,2.7,0.5,4.1,0.8c0.8,0.2,1.3,1,1.1,1.8C508.4,292.5,507.8,293,507.1,293z"/>
				</g>
				<g>
					<path d="M500.1,304.1c-0.2,0-0.5,0-0.8,0c-0.5,0-1.1-0.2-1.7-0.5c-0.8-0.3-1.1-1.2-0.8-2c0.3-0.8,1.2-1.1,2-0.8
						c0.3,0.1,0.5,0.2,0.8,0.2c0.5,0.1,1,0,1.6-0.1c0.2-0.8,0.5-1.5,0.8-2l3.7-8.2c0.3-0.8,1.2-1.1,2-0.7c0.8,0.3,1.1,1.2,0.7,2
						l-3.7,8.2c-0.4,0.8-0.7,1.5-0.7,2.2c-0.1,0.7-0.5,1.2-1.2,1.4C502,303.9,501.1,304.1,500.1,304.1z"/>
				</g>
			</g>
		</g>
	</g>
</g>
<g>
	<g>
		<g>
			<g>
				<g>
					<path class="st0" d="M136,332.9c2.5,1.6,3.1,5.5,1.2,7.8c-2.2,2.6-6.3,2.4-9.7,2c-8.2-1.1-16.4-2.1-24.6-3.1
						c-2-7.4,0.2-15.6,1.8-23.3c0.8-3.7,1.4-7.5,2-11.3c1.8-10.6,3.5-21.1,5.2-31.7c1.6,2.6,3.2,5.2,4.8,7.8c2.2,3.6,4.5,7.3,5,11.5
						c0.5,4.5-1.1,8.9-2.6,13.1c-2.4,6.6-4.9,13.3-7.3,19.9c-0.2,0.6-0.4,1.2-0.1,1.7c0.3,0.5,0.8,0.7,1.4,0.8
						c5.9,1.7,12,2.9,18.1,3.5C132.9,331.9,134.7,332.1,136,332.9z"/>
				</g>
				<g>
					<circle cx="88" cy="165.1" r="3.9"/>
				</g>
				<g>
					<path class="st0" d="M80.7,209c0.6,0.2,1.1,0.3,1.7,0.4c-0.4,0.5-0.9,0.9-1.3,1.4c-0.6,0.6-1.2,1.2-1.9,1.6
						c-1,0.5-2.1,0.5-3.2,0.5c-1.1,0-2.3,0-3.4-0.4c-1-0.3-1.8-0.9-2.7-1.5c-0.2-0.1-0.4-0.3-0.6-0.4c1.5-0.9,2.7-2.2,3.7-3.7
						c0.7-1.1,1.2-2.3,1.6-3.5C75.9,206,78,208.1,80.7,209z"/>
				</g>
				<g>
					<path d="M80.7,201.3c-1.8,0.9-3.8,1.2-5.8,1.1c-0.3,0-0.6-0.1-0.8-0.1c-0.6-0.1-1.2-0.2-1.8-0.4c-1.4-0.5-2.6-1.2-3.8-2.1
						c-1.2-0.8-2.4-1.7-3.1-2.9c-0.8-1.2-1-2.8-0.4-4.1c0.6-1.2,1.9-1.9,3.1-2.4c2.9-1.2,6.1-1.8,9.2-1.7c1.5,0.2,3.1,0.5,4.6,0.9
						c1.9,0.4,4.1,1.3,4.5,3.2c0.2,0.7,0,1.5-0.2,2.2C85.3,197.6,83.3,200,80.7,201.3z"/>
				</g>
				<g>
					<path class="st0" d="M74.9,202.4c2,0.2,4-0.2,5.8-1.1c2.6-1.3,4.6-3.7,5.5-6.4c0.2-0.7,0.4-1.4,0.2-2.2
						c-0.4-1.9-2.6-2.8-4.5-3.2c-1.5-0.4-3.1-0.6-4.6-0.9c-3.2,0-6.3,0.6-9.2,1.7c-1.2,0.5-2.5,1.2-3.1,2.4
						c-0.7,1.3-0.4,2.9,0.4,4.1c0.8,1.2,1.9,2.1,3.1,2.9c1.2,0.8,2.5,1.6,3.8,2.1c0.6,0.2,1.2,0.4,1.8,0.4c0.1,0.4,0.3,0.8,0.5,1.1
						c-0.4,1.2-0.9,2.4-1.6,3.5c-0.9,1.5-2.2,2.8-3.7,3.7c-1.1,0.7-2.4,1.2-3.8,1.2c-4.8,0.3-8.6-4.3-10.3-8.8
						c-1.5-4-2-8.3-2.7-12.5c0-0.1-0.1-0.3-0.1-0.4c-0.1,0.1-0.1,0.2-0.2,0.3c-0.7,1.4-1.5,2.9-2.6,4c-1.2,1.1-2.8,1.9-4.4,1.6
						c-0.8-0.2-1.6-0.6-2.3-1.2c-0.3-0.2-0.5-0.4-0.8-0.6c-1.7-1.4-3.3-2.7-5-4.1c-1.7-1.4-3.4-2.8-4.9-4.5
						c-3.8-4.5-5.3-10.5-8.6-15.4c-2.1-3.1-5-6.1-5-9.8c0-3.9,3.2-7,6.3-9.4c4.3-3.3,9.2-6.4,11.6-11.2c1.1-2.3,1.9-5.2,4.3-6.1
						c0.8-0.3,1.7-0.3,2.5-0.3c4.9,0,9.9,0,14.8,0c3-1.7,6.1-3.1,9.3-4c4.6-1.2,9.6-1.4,14.1,0.1c1.7,0.6,3.3,1.4,5.1,1.9
						c1.5,0.4,3.2,0.6,4.8,0.7c3.8,0.3,7.6,0.6,11.3,0.9c1.9,0.2,4,0.4,5.6,1.4c2,1.4,3,3.8,4.5,5.8c3.6,4.6,10.3,6,13.5,10.8
						c2.2,3.3,2.3,7.5,2.4,11.4c0,2,0.1,4.1-0.4,6c-0.3,1.5-0.9,3-1.6,4.4c-3.8,8.3-9.8,15.4-16.1,21.9c-0.7,0.7-1.4,1.4-2.3,1.8
						c-0.4,0.2-0.8,0.3-1.3,0.4c-2.4,0.3-4.9-1.5-6.5-3.5c-1-1.2-1.8-2.5-2.5-3.8c-0.7,2.8-1.3,5.7-2,8.5c-0.4,1.8-0.9,3.7-1.7,5.4
						c-2.2,4.3-7.5,6.7-12.2,5.9c-0.6-0.1-1.1-0.2-1.7-0.4c-2.7-1-4.8-3.1-6.1-5.6C74.7,203.1,74.8,202.7,74.9,202.4z M91.9,165.1
						c0-2.2-1.8-3.9-3.9-3.9s-3.9,1.8-3.9,3.9s1.8,3.9,3.9,3.9S91.9,167.3,91.9,165.1z M64.5,165.1c0-2.2-1.8-3.9-3.9-3.9
						s-3.9,1.8-3.9,3.9s1.8,3.9,3.9,3.9S64.5,167.3,64.5,165.1z"/>
				</g>
				<g>
					<circle cx="60.6" cy="165.1" r="3.9"/>
				</g>
				<g>
					<path class="st0" d="M40.9,283.8c3.4,18.4,8.8,37.1,7.1,55.5c-6.7-1.2-13.6-0.7-20.1,1.4c-2.7,0.9-5.3,2.1-8.2,2
						c-2.8-0.1-5.9-1.9-6.2-4.7c-0.4-3.5,3.5-5.9,6.9-7.1c6.4-2.2,13.2-3.3,19.9-3.2c-2.3-7.3-4.6-14.6-7-21.9
						c-1.2-3.8-2.4-7.6-2.7-11.6c-0.5-8.6,3.4-16.6,8.1-24C39.4,274.8,40.1,279.3,40.9,283.8z"/>
				</g>
				<g>
					<path class="st0" d="M48.2,351.4c-1.8-1.1-1.5-3.7-1.1-5.8c0.4-2.1,0.7-4.2,0.9-6.3c1.7-18.5-3.7-37.1-7.1-55.5
						c-0.8-4.5-1.5-9-2.1-13.5c-2.6-21.1-2.4-42.6,1.8-63.5c0.8-4,1.7-7.9,2.3-11.9c0.7,0.5,1.5,1,2.3,1.2c1.6,0.3,3.2-0.4,4.4-1.6
						c1.1-1.1,1.9-2.6,2.6-4c0.1-0.1,0.1-0.2,0.2-0.3c0,0.1,0,0.3,0.1,0.4c0.7,4.2,1.2,8.5,2.7,12.5c1.7,4.5,5.4,9.1,10.3,8.8
						c1.3-0.1,2.6-0.5,3.8-1.2c0.2,0.1,0.4,0.3,0.6,0.4c0.8,0.6,1.7,1.2,2.7,1.5c1.1,0.4,2.2,0.4,3.4,0.4c1.1,0,2.2,0,3.2-0.5
						c0.8-0.4,1.3-1,1.9-1.6c0.4-0.5,0.9-0.9,1.3-1.4c4.7,0.8,10-1.6,12.2-5.9c0.9-1.7,1.3-3.5,1.7-5.4c0.6-2.8,1.3-5.7,2-8.5
						c0.7,1.3,1.5,2.6,2.5,3.8c1.6,2,4.1,3.8,6.5,3.5c1.8,13.6,3.7,27.2,5.5,40.8c0.8,6.1,1.7,12.2,1.4,18.4
						c-0.2,4.8-1,9.6-1.7,14.3c-0.2,0.9-0.3,1.8-0.5,2.8c-1.8,10.5-3.5,21.1-5.2,31.7c-0.6,3.8-1.2,7.5-2,11.3
						c-1.6,7.7-3.8,15.9-1.8,23.3c0.2,0.8,0.5,1.6,0.8,2.4c1,2.5,2.6,5.5,1.2,7.9c-1,1.7-3.1,2.3-5.1,2.5c-0.2,0-0.4,0.1-0.6,0.1
						c-3.2,0.3-6.4,0.3-9.6,0c-1.2-0.1-2.5-0.3-3.7-0.5c-1.2-0.2-2.5-0.5-3.2-1.5c-0.6-0.9-0.5-2-0.3-3c0.3-2.6,0.7-5.2,1-7.7
						c-4.7,0.7-9.5,0.6-14.2-0.2c0.1,1,0.2,2,0.3,3c0.2,1.8,0.3,3.8-0.7,5.3c-1,1.5-2.8,2.1-4.5,2.6c-2.1,0.6-4.3,1-6.4,1.3
						c-2.4,0.3-4.9,0.5-7.3,0.4c-0.3,0-0.6,0-0.9,0C49.3,351.9,48.7,351.7,48.2,351.4z"/>
				</g>
			</g>
			<g>
				<g>
					<path d="M74.6,204.9c-0.2,0-0.3,0-0.5-0.1c-0.8-0.3-1.2-1.1-0.9-1.9l0,0c0.1-0.3,0.2-0.6,0.3-0.9c0.2-0.8,1.1-1.3,1.9-1
						c0.8,0.2,1.3,1.1,1,1.9c-0.1,0.4-0.2,0.7-0.4,1.1C75.8,204.5,75.2,204.9,74.6,204.9z"/>
				</g>
				<g>
					<path d="M69.3,212.1c-0.5,0-1-0.3-1.3-0.7c-0.4-0.7-0.2-1.6,0.5-2.1c1.2-0.8,2.3-1.9,3.2-3.2c0.6-0.9,1.1-2,1.5-3.2
						c0.3-0.8,1.1-1.2,1.9-0.9c0.8,0.3,1.2,1.1,0.9,1.9c-0.5,1.4-1.1,2.7-1.8,3.8c-1.1,1.7-2.5,3.2-4.1,4.2
						C69.9,212.1,69.6,212.1,69.3,212.1z"/>
				</g>
				<g>
					<path d="M52.5,191.6c-0.7,0-1.4-0.5-1.5-1.3c-1.2-6.9-2.8-13.8-4.9-20.5l-0.3-1c-1.2-3.7-2.4-7.6-2.1-11.7
						c0.3-4.4,2.7-9.5,7.6-11c0.8-0.2,1.6,0.2,1.9,1c0.2,0.8-0.2,1.6-1,1.9c-3.5,1-5.3,5-5.5,8.3c-0.2,3.5,0.9,7.1,2,10.6l0.3,1
						c2.1,6.8,3.8,13.8,5,20.9c0.1,0.8-0.4,1.6-1.2,1.7C52.6,191.6,52.6,191.6,52.5,191.6z"/>
				</g>
				<g>
					<path d="M65.1,213.4c-5.6,0-9.6-5.2-11.3-9.8c-1.3-3.6-1.9-7.4-2.5-11.1l-0.3-1.7c0-0.2-0.1-0.3-0.1-0.5
						c-0.1-0.8,0.5-1.6,1.3-1.7c0.8-0.1,1.6,0.5,1.7,1.3c0,0.1,0,0.2,0.1,0.3c0,0,0,0.1,0,0.1l0.3,1.7c0.6,3.5,1.1,7.2,2.4,10.5
						c1.5,4.1,4.8,8.1,8.8,7.9c1-0.1,2-0.4,3-1c0.7-0.4,1.6-0.2,2.1,0.5c0.4,0.7,0.2,1.6-0.5,2.1c-1.4,0.9-3,1.4-4.5,1.5
						C65.5,213.4,65.3,213.4,65.1,213.4z"/>
				</g>
				<g>
					<path d="M84.4,211.2c-0.7,0-1.5-0.1-2.2-0.2c-0.8-0.1-1.4-0.9-1.2-1.7c0.1-0.8,0.9-1.4,1.7-1.2c4.2,0.7,8.7-1.4,10.6-5.1
						c0.8-1.5,1.2-3.3,1.6-5c0.7-2.8,1.3-5.7,2-8.5c0.2-0.8,1-1.3,1.8-1.1c0.8,0.2,1.3,1,1.1,1.8c-0.7,2.8-1.3,5.7-2,8.5
						c-0.4,1.8-0.9,3.9-1.9,5.7C93.7,208.5,89.1,211.2,84.4,211.2z"/>
				</g>
				<g>
					<path d="M74.6,204.9c-0.6,0-1.1-0.3-1.4-0.8c-0.2-0.5-0.4-0.9-0.5-1.3c-0.3-0.8,0.1-1.6,0.9-1.9c0.8-0.3,1.6,0.1,1.9,0.9
						c0.1,0.3,0.3,0.7,0.4,1c0.4,0.7,0.1,1.6-0.7,2C75,204.9,74.8,204.9,74.6,204.9z"/>
				</g>
				<g>
					<path d="M82.4,211c-0.1,0-0.2,0-0.3,0c-0.7-0.1-1.3-0.3-1.9-0.5c-2.9-1.1-5.4-3.4-6.9-6.4c-0.4-0.7-0.1-1.6,0.7-2
						c0.7-0.4,1.6-0.1,2,0.7c1.2,2.3,3.1,4.1,5.3,4.9c0.4,0.2,0.9,0.3,1.5,0.4c0.8,0.2,1.3,0.9,1.2,1.8
						C83.7,210.5,83.1,211,82.4,211z"/>
				</g>
				<g>
					<path d="M98.3,191.2c-0.1,0-0.2,0-0.3,0c-0.8-0.2-1.3-1-1.1-1.8l6.3-27.4c0.6-2.8,1.4-6,0.8-8.9c-0.5-2.5-2.3-5.1-4.8-5.5
						c-0.8-0.1-1.4-0.9-1.3-1.7c0.1-0.8,0.9-1.4,1.7-1.3c4.1,0.6,6.7,4.5,7.4,7.9c0.7,3.5-0.1,7.1-0.8,10.2l-6.3,27.4
						C99.6,190.8,98.9,191.2,98.3,191.2z"/>
				</g>
				<g>
					<path d="M75.9,203.9c-0.3,0-0.7,0-1,0c-0.8-0.1-1.4-0.8-1.4-1.6c0.1-0.8,0.8-1.4,1.6-1.4c1.8,0.1,3.5-0.2,5-0.9
						c2.2-1.1,4-3.2,4.7-5.5c0.2-0.6,0.3-1.1,0.2-1.4c-0.2-1.1-2-1.7-3.4-2.1c-1.4-0.3-2.8-0.6-4.5-0.9c-0.8-0.1-1.4-0.9-1.3-1.7
						c0.1-0.8,0.9-1.4,1.7-1.3c1.8,0.3,3.3,0.6,4.8,0.9c3.3,0.8,5.1,2.3,5.6,4.4c0.2,1.1,0,2.2-0.3,2.9c-1,3.2-3.2,5.8-6.2,7.3
						C79.7,203.5,77.8,203.9,75.9,203.9z"/>
				</g>
				<g>
					<path d="M74.1,203.8c-0.1,0-0.2,0-0.2,0c-0.8-0.1-1.5-0.3-2.1-0.5c-1.6-0.6-3-1.4-4.2-2.2c-1.2-0.8-2.6-1.9-3.6-3.4
						c-1.1-1.8-1.3-4-0.4-5.6c0.9-1.7,2.7-2.6,3.9-3.1c3.1-1.2,6.5-1.9,9.8-1.8c0.8,0,1.5,0.7,1.5,1.5c0,0.8-0.7,1.5-1.5,1.5
						c-0.1,0-0.1,0-0.2,0c-2.9,0-5.8,0.6-8.4,1.6c-0.8,0.3-1.9,0.9-2.4,1.7c-0.4,0.7-0.2,1.8,0.3,2.6c0.6,1,1.7,1.8,2.7,2.5
						c1,0.7,2.2,1.4,3.5,1.9c0.5,0.2,1,0.3,1.6,0.4c0.8,0.1,1.4,0.9,1.2,1.7C75.5,203.3,74.8,203.8,74.1,203.8z"/>
				</g>
				<g>
					<path d="M74.9,203.9c0,0-0.1,0-0.1,0c-0.3,0-0.6-0.1-0.9-0.1c-0.8-0.1-1.4-0.9-1.3-1.7c0.1-0.8,0.9-1.4,1.7-1.3
						c0.2,0,0.5,0.1,0.7,0.1c0.8,0.1,1.4,0.8,1.4,1.6C76.4,203.3,75.7,203.9,74.9,203.9z"/>
				</g>
				<g>
					<path d="M76.4,214.5c-0.2,0-0.3,0-0.5,0c-1.2,0-2.6,0-3.9-0.5c-1.2-0.4-2.2-1.1-3-1.8c-0.2-0.1-0.4-0.3-0.5-0.4
						c-0.7-0.5-0.9-1.4-0.4-2.1c0.5-0.7,1.4-0.9,2.1-0.4c0.2,0.1,0.4,0.3,0.6,0.4c0.7,0.5,1.5,1.1,2.3,1.3c0.9,0.3,1.9,0.3,2.9,0.3
						c0.9,0,1.9,0,2.5-0.3c0.5-0.3,1-0.8,1.5-1.3l1.3-1.4c0.6-0.6,1.5-0.6,2.1-0.1c0.6,0.6,0.6,1.5,0.1,2.1l-1.3,1.4
						c-0.6,0.6-1.3,1.4-2.3,1.9C78.7,214.4,77.4,214.5,76.4,214.5z"/>
				</g>
				<g>
					<path d="M43,196.4c-0.3,0-0.6-0.1-0.9-0.3c-0.3-0.2-0.6-0.4-0.8-0.7c-1.7-1.4-3.3-2.7-5-4.1c-1.5-1.3-3.5-2.9-5.1-4.7
						c-2.3-2.7-3.8-5.9-5.2-9c-1.1-2.3-2.1-4.5-3.5-6.5c-0.4-0.6-0.9-1.3-1.3-1.9c-1.9-2.6-3.9-5.3-3.9-8.7c0-4.8,3.9-8.4,6.9-10.6
						c0.6-0.5,1.3-1,2-1.5c3.6-2.7,7.3-5.4,9.2-9.2c0.2-0.4,0.4-0.9,0.6-1.3c0.9-2.1,2-4.6,4.6-5.5c1-0.4,2.1-0.4,3-0.4
						c4.7,0,9.4,0,14.1,0l0.7,0c0,0,0,0,0,0c0.8,0,1.5,0.7,1.5,1.5c0,0.8-0.7,1.5-1.5,1.5l-0.7,0c-4.7,0-9.4,0-14.1,0
						c-0.7,0-1.4,0-2,0.2c-1.3,0.5-2.1,2.1-2.8,3.9c-0.2,0.5-0.4,1-0.6,1.4c-2.2,4.5-6.2,7.5-10.1,10.3c-0.6,0.5-1.3,1-1.9,1.4
						c-3.9,3-5.7,5.6-5.7,8.2c0,2.5,1.6,4.7,3.3,7c0.5,0.7,1,1.3,1.4,2c1.5,2.2,2.6,4.6,3.7,6.9c1.4,3,2.8,5.9,4.8,8.3
						c1.3,1.5,2.8,2.8,4.7,4.4c1.7,1.4,3.3,2.8,5,4.1c0.2,0.2,0.5,0.4,0.7,0.6c0.7,0.5,0.8,1.4,0.3,2.1
						C43.9,196.2,43.4,196.4,43,196.4z"/>
				</g>
				<g>
					<path d="M46.1,197.6c-0.4,0-0.7,0-1.1-0.1c-1.2-0.2-2.2-0.9-2.9-1.5c-0.7-0.5-0.8-1.4-0.3-2.1c0.5-0.7,1.4-0.8,2.1-0.3
						c0.7,0.5,1.2,0.8,1.7,0.9c1.1,0.2,2.3-0.4,3-1.2c1-1,1.7-2.3,2.3-3.7l0.2-0.4c0.4-0.7,1.3-1,2-0.6c0.7,0.4,1,1.3,0.6,2
						l-0.2,0.3c-0.7,1.4-1.6,3.1-2.9,4.4C49.4,196.9,47.7,197.6,46.1,197.6z"/>
				</g>
				<g>
					<path d="M106.8,198.5c-2.4,0-5.1-1.5-7.2-4c-1.1-1.3-2-2.7-2.7-4.1c-0.4-0.7-0.1-1.6,0.6-2c0.7-0.4,1.6-0.1,2,0.6
						c0.6,1.2,1.4,2.4,2.3,3.5c1.2,1.5,3.3,3.1,5.2,2.9c0.8-0.1,1.6,0.5,1.7,1.3c0.1,0.8-0.5,1.6-1.3,1.7
						C107.3,198.5,107,198.5,106.8,198.5z"/>
				</g>
				<g>
					<path d="M107.3,198.5c-0.8,0-1.4-0.6-1.5-1.3c-0.1-0.8,0.5-1.6,1.3-1.7c0.3,0,0.6-0.1,0.8-0.2c0.6-0.3,1.2-0.9,1.8-1.5
						c5.3-5.4,11.8-12.8,15.8-21.5c0.5-1.1,1.1-2.6,1.5-4.1c0.4-1.8,0.4-3.7,0.3-5.7c-0.1-4.1-0.3-7.8-2.1-10.6
						c-1.5-2.2-3.9-3.7-6.5-5.3c-2.5-1.5-5.1-3.1-7-5.5c-0.6-0.7-1-1.5-1.5-2.2c-0.8-1.3-1.6-2.5-2.6-3.2c-1.3-0.8-2.9-1-4.9-1.2
						l-11.5-0.9c-1.6-0.1-3.2-0.3-4.8-0.7c-1.1-0.3-2.2-0.7-3.2-1.2c-0.6-0.3-1.3-0.5-1.9-0.7c-3.9-1.3-8.5-1.4-13.2-0.1
						c-2.9,0.8-5.8,2-9,3.9c-0.7,0.4-1.6,0.2-2-0.6c-0.4-0.7-0.2-1.6,0.6-2c3.4-2,6.6-3.3,9.7-4.2c5.3-1.4,10.5-1.4,15,0.2
						c0.7,0.2,1.4,0.5,2.1,0.8c1,0.4,1.9,0.8,2.9,1c1.4,0.4,2.8,0.5,4.3,0.6l11.5,0.9c1.9,0.2,4.3,0.4,6.3,1.7
						c1.6,1.1,2.6,2.6,3.5,4.1c0.4,0.7,0.9,1.4,1.3,1.9c1.5,2,3.8,3.3,6.2,4.8c2.7,1.7,5.6,3.4,7.4,6.2c2.5,3.8,2.6,8.5,2.6,12.2
						c0,2.1,0.1,4.2-0.4,6.4c-0.4,1.8-1.1,3.5-1.7,4.7c-4.2,9.1-11,16.7-16.4,22.3c-0.7,0.8-1.6,1.6-2.7,2.1
						c-0.5,0.3-1.1,0.4-1.8,0.5C107.4,198.5,107.4,198.5,107.3,198.5z"/>
				</g>
				<g>
					<path d="M38.8,271.8c-0.7,0-1.4-0.6-1.5-1.3c-2.8-22.5-2.2-44,1.8-64c0.2-1.2,0.5-2.4,0.8-3.6c0.6-2.7,1.1-5.5,1.6-8.2
						c0.1-0.8,0.9-1.4,1.7-1.3c0.8,0.1,1.4,0.9,1.3,1.7c-0.4,2.8-1,5.6-1.6,8.3c-0.3,1.2-0.5,2.4-0.7,3.6c-4,19.7-4.6,40.9-1.8,63
						c0.1,0.8-0.5,1.6-1.3,1.7C38.9,271.8,38.9,271.8,38.8,271.8z"/>
				</g>
				<g>
					<path d="M48,340.8c0,0-0.1,0-0.1,0c-0.8-0.1-1.4-0.8-1.4-1.6c1.3-14.1-1.7-28.7-4.6-42.8c-0.8-4-1.7-8.2-2.4-12.3
						c-0.8-4.5-1.5-9.1-2.1-13.6c-0.1-0.8,0.5-1.6,1.3-1.7c0.8-0.1,1.6,0.5,1.7,1.3c0.6,4.4,1.2,9,2,13.4c0.7,4.1,1.6,8.2,2.4,12.3
						c2.9,14.3,6,29.1,4.7,43.7C49.4,340.2,48.7,340.8,48,340.8z"/>
				</g>
				<g>
					<path d="M58,353.1c-0.7,0-1.4-0.5-1.5-1.3c-0.1-0.8,0.5-1.6,1.3-1.7c2.1-0.3,4.2-0.7,6.2-1.3c1.5-0.4,2.9-0.9,3.6-2
						c0.7-1.1,0.6-2.7,0.5-4.4c-0.1-0.6-0.1-1.3-0.2-1.9l-0.1-1c-0.1-0.8,0.5-1.6,1.3-1.7c0.8-0.1,1.6,0.5,1.7,1.3l0.1,1
						c0.1,0.7,0.2,1.3,0.2,2c0.2,2.2,0.3,4.4-1,6.3c-1.2,1.9-3.4,2.7-5.3,3.2c-2.1,0.6-4.4,1-6.6,1.3
						C58.2,353.1,58.1,353.1,58,353.1z"/>
				</g>
				<g>
					<path d="M51.7,353.5c-0.3,0-0.6,0-0.9,0c-0.4,0-0.7,0-1-0.1c-0.8-0.1-1.4-0.8-1.3-1.6c0.1-0.8,0.8-1.4,1.6-1.3
						c0.3,0,0.5,0,0.8,0c2.3,0,4.6-0.1,7-0.4c0.8-0.1,1.6,0.5,1.7,1.3s-0.5,1.6-1.3,1.7C56,353.3,53.8,353.5,51.7,353.5z"/>
				</g>
				<g>
					<path d="M69.3,340.9c-0.8,0-1.4-0.6-1.5-1.3c-2.2-19.8-6.2-39.5-11.9-58.5c-0.2-0.8,0.2-1.6,1-1.9c0.8-0.2,1.6,0.2,1.9,1
						c5.8,19.1,9.8,39,12,59c0.1,0.8-0.5,1.6-1.3,1.7C69.4,340.9,69.4,340.9,69.3,340.9z"/>
				</g>
				<g>
					<path d="M49.9,353.4c-0.1,0-0.1,0-0.2,0c-1-0.1-1.7-0.3-2.3-0.7c-2.8-1.8-2-5.8-1.8-7.3c0.4-2,0.6-4.1,0.8-6.2
						c0.1-0.8,0.8-1.4,1.6-1.4c0.8,0.1,1.4,0.8,1.4,1.6c-0.2,2.2-0.5,4.4-0.9,6.5c-0.3,1.5-0.6,3.6,0.4,4.2c0.2,0.1,0.5,0.2,1,0.3
						c0.8,0.1,1.4,0.8,1.3,1.6C51.3,352.9,50.6,353.4,49.9,353.4z"/>
				</g>
				<g>
					<path d="M49.9,353.4c-0.2,0-0.4,0-0.6-0.1c-0.7-0.4-1.1-1.3-0.7-2l4-8.2c0.4-0.7,1.3-1.1,2-0.7c0.7,0.4,1.1,1.3,0.7,2l-4,8.2
						C51,353.1,50.4,353.4,49.9,353.4z"/>
				</g>
				<g>
					<path d="M58,353.1c-0.2,0-0.4,0-0.6-0.1c-0.8-0.3-1.1-1.2-0.8-2c0.8-1.9,1.4-3.9,1.8-5.8c0.2-0.8,1-1.3,1.8-1.2
						c0.8,0.2,1.3,1,1.2,1.8c-0.4,2.1-1.1,4.2-2,6.3C59.2,352.7,58.6,353.1,58,353.1z"/>
				</g>
				<g>
					<path d="M89.7,353.9c-0.1,0-0.1,0-0.2,0c-1.6-0.2-2.7-0.3-3.8-0.5c-1-0.2-3.1-0.5-4.2-2.2c-0.9-1.4-0.7-3-0.6-4
						c0.3-2.6,0.7-5.2,1-7.8c0.1-0.8,0.9-1.4,1.7-1.3c0.8,0.1,1.4,0.9,1.3,1.7c-0.4,2.6-0.7,5.1-1,7.7c-0.1,0.6-0.2,1.6,0.1,2
						c0.3,0.5,1.3,0.7,2.1,0.9c1,0.2,2.2,0.3,3.6,0.5c0.8,0.1,1.4,0.8,1.3,1.6C91.1,353.3,90.5,353.9,89.7,353.9z"/>
				</g>
				<g>
					<path d="M103,341c-0.7,0-1.3-0.4-1.4-1.1c-1.9-7-0.3-14.4,1.2-21.6c0.2-0.8,0.3-1.6,0.5-2.4c0.7-3.5,1.3-7,1.9-10.4l5.4-32.4
						c0.1-0.8,0.9-1.4,1.7-1.2c0.8,0.1,1.4,0.9,1.2,1.7l-5.4,32.4c-0.6,3.5-1.2,7-1.9,10.6c-0.2,0.8-0.3,1.6-0.5,2.5
						c-1.5,6.8-3,13.8-1.3,20.2c0.2,0.8-0.3,1.6-1.1,1.8C103.3,341,103.1,341,103,341z"/>
				</g>
				<g>
					<path d="M112.1,274.8c-0.1,0-0.2,0-0.3,0c-0.8-0.1-1.4-0.9-1.2-1.7c0.1-0.8,0.3-1.6,0.4-2.3l0.1-0.4c0.8-4.6,1.6-9.4,1.7-14.1
						c0.2-6-0.6-12.1-1.4-18.1l0-0.1l-5.5-40.8c-0.1-0.8,0.5-1.6,1.3-1.7c0.8-0.1,1.6,0.5,1.7,1.3l5.5,40.9
						c0.8,6.1,1.7,12.3,1.4,18.6c-0.2,4.9-1,9.8-1.8,14.5l-0.1,0.4c-0.1,0.8-0.3,1.6-0.4,2.4C113.4,274.3,112.8,274.8,112.1,274.8z"
						/>
				</g>
				<g>
					<path d="M94.8,354.1c-1.7,0-3.5-0.1-5.2-0.3c-0.8-0.1-1.4-0.8-1.3-1.6c0.1-0.8,0.8-1.4,1.6-1.3c3.1,0.3,6.2,0.3,9.3,0
						c0.2,0,0.3,0,0.5-0.1c0.8-0.1,1.6,0.4,1.7,1.3c0.1,0.8-0.4,1.6-1.3,1.7c-0.2,0-0.4,0.1-0.7,0.1C97.9,354,96.4,354.1,94.8,354.1
						z"/>
				</g>
				<g>
					<path d="M83.5,341.1c-0.1,0-0.1,0-0.2,0c-0.8-0.1-1.4-0.9-1.3-1.7c0.7-4.7,1.4-9.4,2.1-13.9c0.9-5.4,1.7-10.9,2.6-16.3
						c1.5-9.4,3-19.2,5.8-28.6c0.2-0.8,1.1-1.2,1.9-1c0.8,0.2,1.2,1.1,1,1.9c-2.7,9.2-4.2,18.9-5.7,28.2c-0.9,5.4-1.7,10.9-2.6,16.3
						c-0.7,4.5-1.4,9.2-2.1,13.8C84.9,340.5,84.3,341.1,83.5,341.1z"/>
				</g>
				<g>
					<path d="M99.9,353.8c-0.8,0-1.4-0.6-1.5-1.3c-0.1-0.8,0.5-1.6,1.3-1.7c2.1-0.2,3.4-0.8,4-1.8c0.8-1.4-0.1-3.5-0.9-5.5
						c-0.1-0.3-0.3-0.7-0.4-1c-0.3-0.9-0.6-1.7-0.9-2.6c-0.2-0.8,0.3-1.6,1.1-1.8c0.8-0.2,1.6,0.3,1.8,1.1c0.2,0.8,0.4,1.5,0.7,2.3
						c0.1,0.3,0.3,0.6,0.4,0.9c1,2.4,2.3,5.5,0.7,8.2c-1.6,2.7-5.1,3.1-6.2,3.2C100,353.8,100,353.8,99.9,353.8z"/>
				</g>
				<g>
					<path d="M89.7,353.9c-0.8,0-1.4-0.6-1.5-1.4c-0.3-2.6-0.3-5.2-0.1-7.8c0.1-0.8,0.8-1.4,1.6-1.4c0.8,0.1,1.4,0.8,1.4,1.6
						c-0.2,2.4-0.1,4.8,0.1,7.3c0.1,0.8-0.5,1.6-1.3,1.6C89.8,353.9,89.8,353.9,89.7,353.9z"/>
				</g>
				<g>
					<path d="M99.9,353.8c-0.8,0-1.4-0.6-1.5-1.4c-0.1-1.3-0.9-2.6-1.8-4c-1-1.6-2.1-3.3-2.3-5.4c-0.1-0.8,0.5-1.6,1.3-1.7
						c0.8-0.1,1.6,0.5,1.7,1.3c0.2,1.4,1,2.7,1.9,4.1c1,1.6,2.1,3.3,2.3,5.3c0.1,0.8-0.5,1.6-1.4,1.6
						C100,353.8,100,353.8,99.9,353.8z"/>
				</g>
				<g>
					<path d="M19.9,344.2c-0.1,0-0.2,0-0.2,0c-3.5-0.1-7.2-2.4-7.6-6c-0.4-3.6,2.6-6.8,7.9-8.6c6-2,12.1-3.1,18.4-3.3
						c-2.1-6.7-4.2-13.3-6.4-20c-1.2-3.8-2.5-7.8-2.7-11.9c-0.6-9.3,3.9-17.8,8.3-24.9c0.4-0.7,1.4-0.9,2.1-0.5
						c0.7,0.4,0.9,1.4,0.5,2.1c-4.2,6.7-8.4,14.7-7.8,23.1c0.2,3.8,1.4,7.6,2.6,11.2c2.3,7.3,4.7,14.6,7,21.9c0.1,0.5,0.1,1-0.2,1.3
						c-0.3,0.4-0.7,0.6-1.2,0.6c-6.6-0.1-13.2,1-19.5,3.2c-3,1-6.1,3-5.9,5.5c0.2,2,2.6,3.3,4.7,3.3c2,0.1,4-0.7,6.1-1.4
						c0.5-0.2,1-0.4,1.5-0.5c6.7-2.2,13.8-2.7,20.8-1.5c0.8,0.1,1.4,0.9,1.2,1.7c-0.1,0.8-0.9,1.4-1.7,1.2
						c-6.5-1.2-13.1-0.7-19.3,1.4c-0.5,0.2-1,0.3-1.5,0.5C24.7,343.4,22.4,344.2,19.9,344.2z"/>
				</g>
				<g>
					<path d="M77,341.5c-2.6,0-5.3-0.2-7.9-0.6c-0.8-0.1-1.4-0.9-1.2-1.7c0.1-0.8,0.9-1.4,1.7-1.2c4.6,0.7,9.2,0.8,13.8,0.2
						c0.8-0.1,1.6,0.5,1.7,1.3s-0.5,1.6-1.3,1.7C81.5,341.4,79.2,341.5,77,341.5z"/>
				</g>
				<g>
					<path d="M131.1,344.4c-1.2,0-2.5-0.1-3.7-0.3l-24.6-3.1c-0.8-0.1-1.4-0.9-1.3-1.7c0.1-0.8,0.9-1.4,1.7-1.3l24.6,3.1
						c3.3,0.4,6.6,0.5,8.3-1.5c0.6-0.7,0.9-1.8,0.7-2.9c-0.2-1.1-0.8-2.1-1.6-2.6c-1.1-0.7-2.5-0.8-4-1l-0.1,0
						c-6.2-0.7-12.4-1.9-18.4-3.6c-0.6-0.2-1.7-0.5-2.3-1.6c-0.6-1.1-0.2-2.3,0-2.9c2.4-6.4,4.7-12.9,7.1-19.3l0.2-0.6
						c1.4-3.8,3-8.2,2.5-12.4c-0.5-4-2.7-7.7-4.8-10.9l-1.8-2.9c-1-1.6-2-3.2-3-4.8c-0.4-0.7-0.2-1.6,0.5-2.1
						c0.7-0.4,1.6-0.2,2.1,0.5c1,1.6,2,3.2,3,4.8l1.8,2.9c2.2,3.5,4.7,7.5,5.2,12.2c0.6,5-1.2,9.9-2.7,13.8l-0.2,0.6
						c-2.4,6.4-4.7,12.9-7.1,19.3c-0.1,0.2-0.1,0.4-0.1,0.5c0.1,0,0.2,0.1,0.4,0.1c5.8,1.7,11.8,2.8,17.9,3.5l0.1,0
						c1.7,0.2,3.6,0.4,5.3,1.4c1.6,1,2.6,2.7,2.9,4.7c0.3,2-0.2,3.9-1.4,5.3C136.6,343.8,133.9,344.4,131.1,344.4z"/>
				</g>
				<g>
					<path d="M60.6,170.5c-3,0-5.4-2.4-5.4-5.4s2.4-5.4,5.4-5.4s5.4,2.4,5.4,5.4S63.6,170.5,60.6,170.5z M60.6,162.7
						c-1.3,0-2.4,1.1-2.4,2.4s1.1,2.4,2.4,2.4s2.4-1.1,2.4-2.4S61.9,162.7,60.6,162.7z"/>
				</g>
				<g>
					<path d="M88,170.5c-3,0-5.4-2.4-5.4-5.4s2.4-5.4,5.4-5.4s5.4,2.4,5.4,5.4S91,170.5,88,170.5z M88,162.7c-1.3,0-2.4,1.1-2.4,2.4
						s1.1,2.4,2.4,2.4s2.4-1.1,2.4-2.4S89.3,162.7,88,162.7z"/>
				</g>
			</g>
		</g>
	</g>
</g>
</svg>
