<?xml version="1.0" encoding="utf-8"?>
<!-- Generator: Adobe Illustrator 19.1.0, SVG Export Plug-In . SVG Version: 6.00 Build 0)  -->
<svg version="1.1" id="레이어_1" xmlns="http://www.w3.org/2000/svg" xmlns:xlink="http://www.w3.org/1999/xlink" x="0px"
	 y="0px" viewBox="472 0 1196.8 605.7" style="enable-background:new 472 0 1196.8 605.7;" xml:space="preserve">
<style type="text/css">
	.st0{fill:#FFFFFF;}
	.st1{fill:none;stroke:#000000;stroke-width:7;stroke-miterlimit:10;}
	.st2{fill:none;stroke:#000000;stroke-width:4;stroke-miterlimit:10;}
</style>
<g>
	<g id="XMLID_28_">
		<g>
			<path class="st0" d="M1612.4,189.1c20.4,21.3,34.2,49.8,34.5,79.3l0,0c1,15.7-1.2,31.6-5.8,46.7c-7.4,24.4-20.6,46.6-35.7,67.2
				c-10.1,13.9-21.2,27.2-34.5,38.1c-15.8,12.9-34.2,22.1-52.6,30.8c-26.9,12.8-54.8,25.2-84.6,27.6c-15,1.3-30.1-0.1-45.1-1.6
				c-60.2-6.1-124.3-17.6-167.3-60.1c-16.2-16-28.5-35.9-35.7-57.5c-4.6-14-7.1-28.8-5.3-43.4c2.9-23.1,16.3-43.6,30.9-61.7
				c38.4-47.5,88.9-85.7,146.3-106.4s121.8-23.4,179.7-4.2C1565.3,153.2,1592,167.7,1612.4,189.1z"/>
		</g>
		<g>
			<path class="st1" d="M1647,268.3c-0.4-29.5-14.1-58-34.5-79.3s-47.1-35.9-75.1-45.2c-57.9-19.3-122.3-16.6-179.7,4.2
				c-57.4,20.8-107.9,59-146.3,106.4c-14.7,18.1-28,38.6-30.9,61.7c-1.8,14.6,0.7,29.5,5.3,43.4c7.2,21.6,19.5,41.5,35.7,57.5
				c43,42.5,107.2,54,167.3,60.1c15,1.5,30.1,2.8,45.1,1.6c29.7-2.5,57.6-14.8,84.6-27.6c18.4-8.8,36.9-17.9,52.6-30.8
				c13.3-10.9,24.3-24.2,34.5-38.1c15-20.6,28.3-42.8,35.7-67.2C1645.7,300,1647.9,284,1647,268.3c-0.6-9.7-2.5-19.3-5.8-28.4"/>
		</g>
	</g>
	<g id="XMLID_29_">
		<g>
			<path class="st0" d="M955.5,109c17.1,24.1,26.5,54.2,22.5,83.5l0,0c-1.3,15.6-5.8,31.1-12.6,45.4c-10.9,23-27.2,43.1-45.1,61.2
				c-12.1,12.2-25,23.8-39.7,32.6c-17.5,10.5-37.1,16.8-56.6,22.8c-28.5,8.7-57.9,16.9-87.7,15c-15-1-29.8-4.5-44.4-8.2
				c-58.6-14.9-120.4-35.6-156.7-84c-13.7-18.2-23-39.7-26.9-62.1c-2.5-14.5-2.8-29.6,1.1-43.8c6.2-22.5,22.5-40.7,39.6-56.5
				C594,73.6,649.5,43.2,709.3,31c59.8-12.1,123.9-5.3,178.4,22.2C914.1,66.6,938.4,85,955.5,109z"/>
		</g>
		<g>
			<path class="st1" d="M978,192.5c4-29.2-5.5-59.4-22.5-83.5c-17.1-24.1-41.3-42.4-67.7-55.7C833.3,25.7,769.2,19,709.4,31.1
				S594,73.6,549.1,115c-17.2,15.8-33.4,34-39.6,56.5c-3.9,14.2-3.6,29.3-1.1,43.8c3.9,22.4,13.2,43.9,26.9,62.1
				c36.3,48.4,98.1,69.1,156.7,84c14.6,3.7,29.4,7.2,44.4,8.2c29.8,1.9,59.2-6.2,87.7-15c19.5-6,39.1-12.3,56.6-22.8
				c14.7-8.8,27.6-20.4,39.7-32.6c17.9-18.2,34.2-38.2,45.1-61.2C972.1,223.6,976.7,208.2,978,192.5c0.8-9.7,0.4-19.4-1.6-29"/>
		</g>
	</g>
	<g>
		<g id="XMLID_27_">
			<g>
				<path class="st0" d="M1125,355.5c2.6,11.8,2.1,24,0.8,36c-3.3,31.2-12.2,62.6-30.6,87.8c-1.3,1.8-2.7,3.6-4.1,5.3
					c-24.5,30.2-62.5,47.5-101.1,52.5s-77.9-1.5-115.2-12.5c-27.5-8.1-54.5-18.9-78.2-35c-23.7-16.1-44.1-37.9-55.4-64.3
					c-5.2-12-8.4-24.9-10.5-37.8c-4-24.7-3.6-50.3,1.9-74.6c2.9-12.9,7.3-25.5,13.3-37.4c13.2-26.3,34.4-48.9,60.3-62.5
					c42.4-27.8,97-36.4,146.6-25c57.5,13.3,107.9,51.9,139.8,101.6c7.3,11.4,13.7,23.3,19.9,35.3
					C1117.6,334.8,1122.6,344.8,1125,355.5z M1098.8,429.2c14-46.6,3.3-98.8-23.8-139.1s-69.5-69.2-115.5-84.8
					c-11.7-4-23.8-7.1-36.2-7.7c-12.8-0.6-25.5,1.6-38,3.8c-28.7,5-58.4,10.5-82.1,27.5c-21.3,15.3-35.4,38.3-48.8,61
					c-1.6,4.3-3,8.7-4.4,13.1c-3.2,10.2-6.3,20.5-7.5,31.1c-2.6,23.3,4,46.6,10.5,69.1c2.9,10,5.8,20.2,10.7,29.4
					c10.5,19.8,29.1,33.9,48.2,45.6C844,498,879.4,513,916.6,519.7c37.2,6.7,76.2,4.8,111.7-8.1c12.2-4.4,24.1-10.3,33.9-18.9
					c10.8-9.5,18.6-22.1,25-35C1091.8,448.6,1095.8,439.1,1098.8,429.2z"/>
				<path class="st0" d="M1075,290.1c27.1,40.3,37.8,92.5,23.8,139.1c-2.9,9.8-6.9,19.4-11.5,28.6c-6.4,12.9-14.2,25.5-25,35
					c-9.8,8.6-21.7,14.4-33.9,18.9c-35.5,12.9-74.5,14.8-111.7,8.1c-37.2-6.7-72.5-21.7-104.7-41.5c-19.1-11.7-37.7-25.9-48.2-45.6
					c-4.9-9.2-7.8-19.3-10.7-29.4c-6.5-22.5-13.1-45.8-10.5-69.1c1.2-10.6,4.2-21,7.5-31.1c1.4-4.4,2.8-8.8,4.4-13.1
					c13.3-22.6,27.5-45.7,48.8-61c23.7-17,53.4-22.5,82.1-27.5c12.6-2.2,25.3-4.4,38-3.8c12.4,0.6,24.4,3.8,36.2,7.7
					C1005.5,220.9,1047.8,249.8,1075,290.1z M1043,426.2c12.4-20.4,16.9-45.5,12.5-69s-17.7-45.2-36.7-59.7
					c-7.6-5.9-16.1-10.6-24.5-15.3c-12.3-6.9-24.6-13.7-36.9-20.6c-7.9-4.4-15.9-8.8-24.5-11.5c-19.2-5.9-40.1-2.7-59.4,3.1
					c-14.8,4.4-29.2,10.3-42.9,17.5c-11.4,11-23.3,26.9-27.5,38.5c-5.6,15.4-7.1,32.1-6.4,48.5c1,24.3,7.9,50,26.7,65.5
					c8,6.6,17.7,10.9,27.4,14.5c23.2,8.7,47.4,14.2,71.6,19.7c15.5,3.5,31.2,7,47,5.8c15.9-1.2,31-7.3,45.6-13.6
					c5.2-2.3,10.5-4.6,15-8.1C1035.3,437.5,1039.5,432,1043,426.2z"/>
				<path class="st0" d="M1091.1,484.6c1.4-1.7,2.8-3.5,4.1-5.3c-22.9,38.6-58,70-99.2,87.9c-13.2,5.7-27.1,10.1-41.4,11.8
					c-17.5,2.1-35.2,0-52.6-2c-24.4-2.8-49.1-5.7-71.6-15.6c-14.5-6.4-27.7-15.5-40.7-24.6c-9.3-6.5-18.7-13-26.2-21.5
					c-8.6-9.7-14.5-21.5-19.8-33.4c-6.5-14.4-12.4-29.1-16.7-44.4c-10.8-38.7-7-84.1,5.7-124.6c-5.5,24.3-5.9,49.9-1.9,74.6
					c2.1,12.9,5.3,25.8,10.5,37.8c11.3,26.3,31.7,48.1,55.4,64.3c23.7,16.1,50.7,26.9,78.2,35c37.3,11,76.6,17.5,115.2,12.5
					C1028.6,532.2,1066.6,514.8,1091.1,484.6z"/>
				<path class="st0" d="M1055.4,357.3c4.4,23.5-0.1,48.5-12.5,69c-3.5,5.8-7.7,11.3-13,15.4c-4.5,3.4-9.8,5.8-15,8.1
					c-14.6,6.4-29.7,12.4-45.6,13.6c-15.8,1.2-31.5-2.3-47-5.8c-24.1-5.5-48.4-11-71.6-19.7c-9.7-3.6-19.4-7.9-27.4-14.5
					c-18.8-15.4-25.7-41.2-26.7-65.5c-0.7-16.4,0.8-33.1,6.4-48.5c4.2-11.6,16-27.5,27.5-38.5c13.7-7.2,28.1-13.1,42.9-17.5
					c19.3-5.8,40.2-9.1,59.4-3.1c8.6,2.7,16.6,7.1,24.5,11.5c12.3,6.9,24.6,13.7,36.9,20.6c8.4,4.7,16.9,9.4,24.5,15.3
					C1037.7,312.1,1051,333.8,1055.4,357.3z"/>
			</g>
			<g>
				<path class="st2" d="M754.4,289.9c-1.6,4.3-3,8.7-4.4,13.1c-3.2,10.2-6.3,20.5-7.5,31.1c-2.6,23.3,4,46.6,10.5,69.1
					c2.9,10,5.8,20.2,10.7,29.4c10.5,19.8,29.1,33.9,48.2,45.6C844,498,879.4,513,916.6,519.7c37.2,6.7,76.2,4.8,111.7-8.1
					c12.2-4.4,24.1-10.3,33.9-18.9c10.8-9.5,18.6-22.1,25-35c4.6-9.2,8.6-18.7,11.5-28.6c14-46.6,3.3-98.8-23.8-139.1
					s-69.5-69.2-115.5-84.8c-11.7-4-23.8-7.1-36.2-7.7c-12.8-0.6-25.5,1.6-38,3.8c-28.7,5-58.4,10.5-82.1,27.5
					C781.9,244.2,767.7,267.2,754.4,289.9z"/>
				<path class="st1" d="M732.7,313c-5.5,24.3-5.9,49.9-1.9,74.6c2.1,12.9,5.3,25.8,10.5,37.8c11.3,26.3,31.7,48.1,55.4,64.3
					c23.7,16.1,50.7,26.9,78.2,35c37.3,11,76.6,17.5,115.2,12.5s76.5-22.4,101.1-52.5c1.4-1.7,2.8-3.5,4.1-5.3"/>
				<path class="st1" d="M732.7,313c2.9-12.9,7.3-25.5,13.3-37.4c13.2-26.3,34.4-48.9,60.3-62.5"/>
				<path class="st1" d="M806.3,213c42.4-27.8,97-36.4,146.6-25c57.5,13.3,107.9,51.9,139.8,101.6c7.3,11.4,13.7,23.3,19.9,35.3
					c5,9.8,10,19.8,12.4,30.5c2.6,11.8,2.1,24,0.8,36c-3.3,31.2-12.2,62.6-30.6,87.8"/>
				<path class="st1" d="M732.7,313c-12.7,40.5-16.5,85.9-5.7,124.6c4.2,15.2,10.1,30,16.7,44.4c5.3,11.8,11.2,23.7,19.8,33.4
					c7.5,8.5,16.9,15,26.2,21.5c13,9.1,26.1,18.2,40.7,24.6c22.4,9.9,47.2,12.8,71.6,15.6c17.5,2,35.2,4,52.6,2
					c14.3-1.7,28.2-6.1,41.4-11.8c41.2-17.8,76.3-49.3,99.2-87.9"/>
				<path class="st1" d="M830.5,270.9c-11.4,11-23.3,26.9-27.5,38.5c-5.6,15.4-7.1,32.1-6.4,48.5c1,24.3,7.9,50,26.7,65.5
					c8,6.6,17.7,10.9,27.4,14.5c23.2,8.7,47.4,14.2,71.6,19.7c15.5,3.5,31.2,7,47,5.8c15.9-1.2,31-7.3,45.6-13.6
					c5.2-2.3,10.5-4.6,15-8.1c5.4-4.1,9.5-9.6,13-15.4c12.4-20.4,16.9-45.5,12.5-69s-17.7-45.2-36.7-59.7
					c-7.6-5.9-16.1-10.6-24.5-15.3c-12.3-6.9-24.6-13.7-36.9-20.6c-7.9-4.4-15.9-8.8-24.5-11.5c-19.2-5.9-40.1-2.7-59.4,3.1
					C858.6,257.8,844.2,263.6,830.5,270.9z"/>
			</g>
		</g>
	</g>
</g>
</svg>
