<?xml version="1.0" encoding="utf-8"?>
<!-- Generator: Adobe Illustrator 19.1.0, SVG Export Plug-In . SVG Version: 6.00 Build 0)  -->
<svg version="1.1" id="레이어_1" xmlns="http://www.w3.org/2000/svg" xmlns:xlink="http://www.w3.org/1999/xlink" x="0px"
	 y="0px" viewBox="275 107.5 711 309.9" style="enable-background:new 275 107.5 711 309.9;" xml:space="preserve">
<style type="text/css">
	.st0{fill:#FFFFFF;}
</style>
<g>
	<g>
		<g>
			<g>
				<g>
					<path class="st0" d="M969.3,213.8c10.6,31.2-21.7,61.6-81.4,84.5c-33,12.7-74.5,23.1-121.7,30.2c-39.1,5.8-82.1,9.4-127.6,10
						c-48.8,0.7-95.5-3-137.8-10c-54-8.8-100.9-22.9-136.1-39.9c-45.4-21.8-71.5-48.5-68.7-74.8c0,32.3,69.6,66.2,171.4,85.2
						c14.1,2.6,28.8,4.9,44.1,6.9c39.1,5.1,81.5,8.1,125.8,8.1c38.6,0,75.5-2.2,109.7-6.2c23.8-2.8,46.2-6.4,67.1-10.6
						C907.9,277.8,969.3,245,969.3,213.8z"/>
				</g>
				<g>
					<path class="st0" d="M969.3,213.8c0,31.3-61.4,64.1-155.2,83.3c-20.9,4.3-43.4,7.9-67.1,10.6c30.1-4.9,56.7-11.6,78.4-19.5
						c38.2-13.8,61.1-31,61.1-47.6c0-36.5-113.9-66-254.5-66s-254.5,29.6-254.5,66c0,18.8,31.3,38.4,80.9,52.9
						c16,4.7,33.9,8.8,53.2,12.3c-15.3-2-30-4.3-44.1-6.9C365.7,280,296.1,246,296.1,213.7c0-48.3,150.7-87.4,336.6-87.4
						S969.3,165.5,969.3,213.8z"/>
				</g>
				<g>
					<path class="st0" d="M887.9,298.3c-4.8,2.6-9.7,5.2-14.5,7.8c-16.7,9-33.6,18.1-47.2,31.3c-3.2,3.1-6.2,6.4-8.9,9.9
						c-7.2,9.3-12.4,20-14.1,31.4c-31,15.1-93.4,27.2-166.9,27.2c-77.8,0-146.2-13.5-176.4-29.9c0.8-7.5,0.8-15.1-2.7-21.6
						c-1.6-2.9-3.8-5.5-6.2-7.8c-1-1-2.1-2-3.1-3c-12.6-11.8-25.4-23.7-40.5-31.9c-6-3.2-12.3-5.8-18.4-8.8
						c-8.4-4.1-16.5-8.9-24.1-14.4c35.2,17,82.1,31.1,136.1,39.9c42.3,6.9,88.9,10.6,137.8,10c45.5-0.6,88.6-4.1,127.6-10
						C813.5,321.4,854.9,311,887.9,298.3z"/>
				</g>
				<g>
					<path class="st0" d="M886.4,240.7c0,16.6-22.9,33.8-61.1,47.6c2.4-2.8,3.6-5.7,3.6-8.5c0-22.9-85.2-41.5-190.4-41.5
						s-190.3,18.6-190.3,41.5c0,4.6,3.5,9.3,10.1,13.8c-49.6-14.5-80.9-34.1-80.9-52.9c0-36.5,113.9-66,254.5-66
						S886.4,204.2,886.4,240.7z"/>
				</g>
				<g>
					<path class="st0" d="M828.9,279.8c0,2.8-1.2,5.6-3.6,8.5c-21.7,7.8-48.2,14.6-78.4,19.5c-34.2,4-71.1,6.2-109.7,6.2
						c-44.2,0-86.7-2.9-125.8-8.1c-19.4-3.4-37.2-7.6-53.2-12.3c-6.5-4.5-10.1-9.2-10.1-13.8c0-22.9,85.2-41.5,190.3-41.5
						S828.9,256.8,828.9,279.8z"/>
				</g>
			</g>
			<g>
				<g>
					<path d="M637.3,317.9c-42.9,0-85.4-2.7-126.3-8.1c-2.2-0.3-3.7-2.3-3.4-4.5c0.3-2.2,2.3-3.7,4.5-3.4c40.6,5.3,82.7,8,125.2,8
						c37.1,0,73.9-2.1,109.2-6.2c2.2-0.3,4.2,1.3,4.4,3.5c0.3,2.2-1.3,4.2-3.5,4.4C711.8,315.8,674.7,317.9,637.3,317.9z"/>
				</g>
				<g>
					<path d="M969.3,217.8c-2.2,0-4-1.8-4-4c0-21-34.8-42.1-95.6-57.9c-63.3-16.4-147.5-25.5-237-25.5c-2.2,0-4-1.8-4-4s1.8-4,4-4
						c90.3,0,175.2,9.1,239.1,25.7c31.3,8.1,55.9,17.6,73.2,28.2c18.8,11.5,28.4,24.1,28.4,37.4C973.3,216,971.5,217.8,969.3,217.8z
						"/>
				</g>
				<g>
					<path d="M511.5,309.9c-0.2,0-0.3,0-0.5,0c-15.1-2-30-4.3-44.3-7c-2.2-0.4-3.6-2.5-3.2-4.7c0.4-2.2,2.5-3.6,4.7-3.2
						c14.2,2.6,28.9,5,43.9,6.9c2.2,0.3,3.7,2.3,3.4,4.5C515.2,308.4,513.5,309.9,511.5,309.9z"/>
				</g>
				<g>
					<path d="M296,217.8c-2.2,0-4-1.8-4-4c0-13.3,9.5-25.9,28.4-37.4c17.3-10.6,41.9-20.1,73.2-28.2
						c63.9-16.6,148.8-25.7,239.1-25.7c2.2,0,4,1.8,4,4s-1.8,4-4,4c-89.6,0-173.8,9-237,25.5c-60.8,15.8-95.6,36.9-95.6,57.9
						C300,216,298.2,217.8,296,217.8z"/>
				</g>
				<g>
					<path d="M747,311.7c-2,0-3.7-1.5-4-3.5c-0.3-2.2,1.3-4.2,3.5-4.4c23.2-2.7,45.7-6.3,66.8-10.6c2.2-0.4,4.3,1,4.7,3.1
						c0.4,2.2-1,4.3-3.1,4.7c-21.4,4.4-44.1,8-67.5,10.7C747.3,311.7,747.1,311.7,747,311.7z"/>
				</g>
				<g>
					<path d="M467.4,302.9c-0.2,0-0.5,0-0.7-0.1c-50.5-9.4-93.8-22.5-124.9-37.9c-32.6-16.1-49.8-33.8-49.8-51.2c0-2.2,1.8-4,4-4
						s4,1.8,4,4c0,29.4,69.2,62.8,168.2,81.2c2.2,0.4,3.6,2.5,3.2,4.7C471,301.6,469.3,302.9,467.4,302.9z"/>
				</g>
				<g>
					<path d="M814.1,301.1c-1.9,0-3.5-1.3-3.9-3.2c-0.4-2.2,1-4.3,3.1-4.7c45.7-9.4,84.3-22.1,111.7-36.7
						c26-13.9,40.3-29.1,40.3-42.7c0-2.2,1.8-4,4-4s4,1.8,4,4c0,16.9-15.4,34.1-44.5,49.7c-28,15-67.4,28-113.9,37.5
						C814.6,301,814.4,301.1,814.1,301.1z"/>
				</g>
				<g>
					<path d="M747,309.2c-0.7,0-1.4-0.5-1.5-1.3s0.4-1.6,1.2-1.7c29.1-4.7,56.1-11.4,78.1-19.4c0.8-0.3,1.6,0.1,1.9,0.9
						s-0.1,1.6-0.9,1.9c-22.2,8-49.4,14.8-78.6,19.5C747.1,309.2,747,309.2,747,309.2z"/>
				</g>
				<g>
					<path d="M511.5,307.4c-0.1,0-0.2,0-0.3,0c-19.2-3.4-37.1-7.5-53.4-12.3c-0.8-0.2-1.3-1.1-1-1.9c0.2-0.8,1.1-1.3,1.9-1
						c16.2,4.7,34,8.8,53.1,12.2c0.8,0.1,1.4,0.9,1.2,1.7C512.9,306.9,512.3,307.4,511.5,307.4z"/>
				</g>
				<g>
					<path d="M458.3,295.1c-0.1,0-0.3,0-0.4-0.1c-52.1-15.3-82-35.1-82-54.4c0-18.4,26.9-35.5,75.7-48.2
						c48.2-12.5,112.2-19.4,180.3-19.4s132.1,6.9,180.3,19.4c48.8,12.7,75.7,29.8,75.7,48.2c0,17.1-22,34.5-62.1,49
						c-0.8,0.3-1.6-0.1-1.9-0.9c-0.3-0.8,0.1-1.6,0.9-1.9c38.2-13.8,60.1-30.6,60.1-46.2c0-16.6-26.8-33.1-73.4-45.3
						C763.6,182.9,699.8,176,631.9,176s-131.6,6.9-179.6,19.3c-46.7,12.1-73.4,28.6-73.4,45.3c0,17.6,29.8,36.8,79.8,51.5
						c0.8,0.2,1.3,1.1,1,1.9C459.6,294.7,459,295.1,458.3,295.1z"/>
				</g>
				<g>
					<path d="M458.3,295.1c-0.3,0-0.6-0.1-0.9-0.3c-7.1-5-10.7-10-10.7-15.1c0-8.4,9.9-20.6,56.9-30.8c36.1-7.9,84-12.2,134.9-12.2
						s98.9,4.3,134.9,12.2c26,5.7,56.9,15.6,56.9,30.8c0,3.1-1.3,6.3-4,9.4c-0.5,0.6-1.5,0.7-2.1,0.2s-0.7-1.5-0.2-2.1
						c2.2-2.6,3.3-5.1,3.3-7.5c0-10.2-19.9-20.3-54.6-27.9c-35.9-7.8-83.5-12.1-134.3-12.1c-50.7,0-98.4,4.3-134.3,12.1
						c-34.7,7.6-54.6,17.7-54.6,27.9c0,4,3.2,8.2,9.4,12.6c0.7,0.5,0.8,1.4,0.4,2.1C459.2,294.9,458.8,295.1,458.3,295.1z"/>
				</g>
				<g>
					<path d="M887.9,302.3c-1.6,0-3.1-1-3.7-2.6c-0.8-2.1,0.2-4.4,2.3-5.2c59.6-22.9,88.4-51.9,79-79.5c-0.7-2.1,0.4-4.4,2.5-5.1
						s4.4,0.4,5.1,2.5c5.6,16.6,0.3,33.7-15.3,49.5c-14.6,14.7-37.6,28.2-68.5,40.1C888.9,302.2,888.4,302.3,887.9,302.3z"/>
				</g>
				<g>
					<path d="M500.8,332.5c-0.2,0-0.4,0-0.7-0.1c-53.2-8.7-100.6-22.6-137.2-40.3c-2-1-2.8-3.3-1.9-5.3c1-2,3.3-2.8,5.3-1.9
						c35.9,17.3,82.6,31,135.1,39.6c2.2,0.4,3.7,2.4,3.3,4.6C504.5,331.1,502.8,332.5,500.8,332.5z"/>
				</g>
				<g>
					<path d="M364.7,292.6c-0.6,0-1.2-0.1-1.7-0.4c-48.6-23.4-73.8-51.4-70.9-78.8c0.2-2.2,2.2-3.8,4.4-3.6c2.2,0.2,3.8,2.2,3.6,4.4
						c-2.5,23.5,21.7,49.3,66.4,70.8c2,1,2.8,3.3,1.9,5.3C367.6,291.7,366.2,292.6,364.7,292.6z"/>
				</g>
				<g>
					<path d="M627.3,342.5c-43.5,0-86.2-3.4-127.1-10.1c-2.2-0.4-3.7-2.4-3.3-4.6c0.4-2.2,2.4-3.7,4.6-3.3
						c44,7.2,90.2,10.5,137.1,9.9c44.2-0.6,86.9-3.9,127.1-9.9c2.2-0.3,4.2,1.2,4.5,3.4c0.3,2.2-1.2,4.2-3.4,4.5
						c-40.5,6-83.6,9.4-128.1,10C634.9,342.5,631.1,342.5,627.3,342.5z"/>
				</g>
				<g>
					<path d="M766.2,332.5c-1.9,0-3.7-1.4-4-3.4c-0.3-2.2,1.2-4.2,3.4-4.5c45.9-6.9,87.7-17.2,120.9-29.9c2.1-0.8,4.4,0.2,5.2,2.3
						s-0.2,4.4-2.3,5.2c-33.7,12.9-76.1,23.4-122.6,30.4C766.6,332.5,766.4,332.5,766.2,332.5z"/>
				</g>
				<g>
					<path d="M636.2,409.9c-84.4,0-150.4-15.2-178.3-30.3l3.8-7c27.1,14.6,91.5,29.4,174.5,29.4c67,0,131.9-10.5,165.2-26.8l3.5,7.2
						C770.5,399.1,704.3,409.9,636.2,409.9z"/>
				</g>
				<g>
					<path d="M622.4,384.7c-0.4,0-0.8,0-1.3,0c-81.8-0.1-124.2-11.6-136.7-22.3c-0.6-0.5-0.7-1.5-0.2-2.1s1.5-0.7,2.1-0.2
						c15.1,13,67.9,21.4,134.7,21.5c0.4,0,0.8,0,1.1,0c66.6,0,127.1-8.5,154.4-21.7c0.7-0.4,1.6-0.1,2,0.7c0.4,0.7,0.1,1.6-0.7,2
						C756,373.3,703.6,384.7,622.4,384.7z"/>
				</g>
				<g>
					<path d="M803.1,382.7c-0.2,0-0.4,0-0.6,0c-2.2-0.3-3.7-2.4-3.4-4.6c1.7-11.3,6.9-22.8,14.9-33.2c1.3-1.8,3.9-2.1,5.6-0.7
						c1.7,1.3,2.1,3.9,0.7,5.6c-7.2,9.4-11.8,19.6-13.4,29.5C806.7,381.3,805,382.7,803.1,382.7z"/>
				</g>
				<g>
					<path d="M817.2,351.3c-0.9,0-1.7-0.3-2.4-0.8c-1.8-1.3-2.1-3.9-0.7-5.6c2.8-3.7,6-7.2,9.3-10.4c14.2-13.6,31.4-22.9,48.1-31.9
						c4.4-2.4,8.9-4.8,13.3-7.2l1.3-0.7c1.9-1,4.4-0.3,5.4,1.6s0.3,4.4-1.6,5.4l-1.3,0.7c-4.4,2.4-8.9,4.8-13.3,7.2
						c-16.2,8.7-33,17.8-46.4,30.6c-3.1,2.9-5.9,6.1-8.5,9.5C819.6,350.8,818.4,351.3,817.2,351.3z"/>
				</g>
				<g>
					<path d="M450.9,350.6c-1,0-2-0.4-2.8-1.2c-1-1-2-2-3-2.9c-12.3-11.5-24.9-23.3-39.7-31.3c-3.6-2-7.5-3.7-11.3-5.5
						c-2.3-1.1-4.7-2.1-7-3.3c-8.6-4.2-16.9-9.1-24.7-14.7c-1.8-1.3-2.2-3.8-0.9-5.6c1.3-1.8,3.8-2.2,5.6-0.9
						c7.5,5.3,15.4,10,23.6,14c2.2,1.1,4.6,2.2,6.8,3.2c3.9,1.8,7.9,3.6,11.7,5.7c15.7,8.5,28.8,20.7,41.4,32.5c1,1,2.1,2,3.2,3.1
						c1.6,1.6,1.6,4.1,0,5.7C452.9,350.2,451.9,350.6,450.9,350.6z"/>
				</g>
				<g>
					<path d="M459.8,380c-0.1,0-0.3,0-0.4,0c-2.2-0.2-3.8-2.2-3.6-4.4c0.6-6.3,0.9-13.5-2.2-19.3c-1.5-2.8-3.7-5.1-5.5-6.9
						c-1.6-1.6-1.6-4.1,0-5.7c1.6-1.6,4.1-1.6,5.7,0c2.2,2.2,4.9,5.1,6.9,8.8c4.1,7.7,3.9,16.4,3.1,23.9
						C463.5,378.5,461.8,380,459.8,380z"/>
				</g>
			</g>
		</g>
	</g>
</g>
</svg>
